<?xml version="1.0" encoding="UTF-8"?>
<svg xmlns="http://www.w3.org/2000/svg" xmlns:xlink="http://www.w3.org/1999/xlink" width="137px" height="42px" viewBox="0 0 137 42" version="1.1">
<g id="surface1">
<path style=" stroke:none;fill-rule:evenodd;fill:rgb(98.039216%,64.313728%,30.19608%);fill-opacity:1;" d="M 68.847656 0.191406 C 68.621094 0.386719 68.34375 1.242188 67.980469 2.867188 C 67.707031 4.085938 67.652344 4.199219 67.257812 4.34375 C 66.984375 4.441406 65.722656 4.738281 64.988281 4.878906 C 64.328125 5.003906 63.65625 5.140625 63.042969 5.28125 L 62.59375 5.378906 L 62.59375 9.605469 C 62.59375 11.929688 62.601562 13.832031 62.617188 13.832031 C 62.640625 13.832031 64.996094 12.746094 71.074219 9.941406 C 74.445312 8.382812 74.214844 8.507812 74.035156 8.332031 C 73.53125 7.847656 72.964844 7.90625 72.246094 8.519531 C 71.078125 9.515625 70.601562 8.429688 69.785156 2.898438 C 69.445312 0.601562 69.199219 -0.109375 68.847656 0.191406 M 132.503906 1.601562 C 132.269531 1.628906 131.921875 1.660156 131.730469 1.664062 C 131.539062 1.671875 131.167969 1.722656 130.90625 1.777344 C 130.648438 1.835938 130.351562 1.878906 130.25 1.878906 C 130.117188 1.878906 130.085938 1.898438 130.125 1.945312 C 130.167969 2 130.140625 2.003906 129.949219 1.984375 C 129.816406 1.96875 129.722656 1.972656 129.722656 1.996094 C 129.722656 2.019531 129.667969 2.039062 129.601562 2.039062 C 129.53125 2.039062 129.359375 2.082031 129.214844 2.140625 C 129.070312 2.195312 128.953125 2.226562 128.953125 2.210938 C 128.953125 2.195312 128.863281 2.226562 128.75 2.277344 C 128.433594 2.425781 128.1875 2.507812 128.050781 2.507812 C 127.980469 2.507812 127.921875 2.53125 127.921875 2.558594 C 127.921875 2.625 127.628906 2.75 127.554688 2.71875 C 127.523438 2.703125 127.464844 2.734375 127.421875 2.785156 C 127.375 2.835938 127.203125 2.949219 127.03125 3.03125 C 126.863281 3.113281 126.726562 3.203125 126.726562 3.222656 C 126.726562 3.246094 126.628906 3.320312 126.511719 3.390625 C 126.394531 3.464844 126.296875 3.550781 126.296875 3.582031 C 126.296875 3.617188 126.238281 3.65625 126.167969 3.667969 C 126.097656 3.679688 126.039062 3.734375 126.039062 3.785156 C 126.039062 3.839844 125.980469 3.945312 125.910156 4.023438 C 125.691406 4.261719 125.890625 4.855469 126.191406 4.859375 C 126.25 4.859375 126.339844 4.898438 126.390625 4.949219 C 126.484375 5.042969 126.796875 5.144531 127.324219 5.25 C 127.828125 5.351562 129.796875 5.355469 130.585938 5.253906 C 130.933594 5.210938 131.316406 5.167969 131.433594 5.160156 C 131.550781 5.152344 131.773438 5.117188 131.921875 5.082031 C 132.074219 5.042969 132.277344 5.015625 132.371094 5.015625 C 132.472656 5.015625 132.546875 4.988281 132.546875 4.957031 C 132.546875 4.894531 132.558594 4.890625 132.898438 4.878906 C 133.132812 4.875 134.003906 4.605469 134.003906 4.539062 C 134.003906 4.515625 134.0625 4.507812 134.132812 4.519531 C 134.210938 4.535156 134.261719 4.519531 134.261719 4.484375 C 134.261719 4.453125 134.355469 4.417969 134.472656 4.402344 C 134.59375 4.390625 134.6875 4.359375 134.6875 4.332031 C 134.6875 4.304688 134.785156 4.261719 134.90625 4.238281 C 135.027344 4.210938 135.191406 4.140625 135.269531 4.074219 C 135.351562 4.011719 135.460938 3.957031 135.511719 3.957031 C 135.566406 3.957031 135.632812 3.914062 135.664062 3.863281 C 135.691406 3.8125 135.796875 3.761719 135.902344 3.746094 C 136.007812 3.734375 136.066406 3.714844 136.035156 3.699219 C 135.972656 3.671875 136.453125 3.253906 136.597656 3.207031 C 136.644531 3.195312 136.691406 3.117188 136.703125 3.042969 C 136.71875 2.964844 136.789062 2.84375 136.863281 2.777344 C 137.011719 2.644531 137.050781 2.3125 136.921875 2.3125 C 136.878906 2.3125 136.816406 2.261719 136.789062 2.195312 C 136.757812 2.132812 136.675781 2.0625 136.609375 2.035156 C 136.542969 2.007812 136.484375 1.964844 136.484375 1.933594 C 136.484375 1.90625 136.429688 1.878906 136.359375 1.878906 C 136.289062 1.878906 136.230469 1.867188 136.230469 1.847656 C 136.230469 1.8125 135.796875 1.707031 135.695312 1.71875 C 135.660156 1.722656 135.628906 1.710938 135.628906 1.691406 C 135.628906 1.574219 133.257812 1.507812 132.503906 1.601562 M 111.257812 7.597656 C 109.492188 7.792969 108.125 8.652344 108.730469 9.195312 C 109.484375 9.871094 111.585938 9.824219 113.15625 9.097656 C 114.804688 8.332031 113.554688 7.347656 111.257812 7.597656 M 55.945312 8.457031 C 54.996094 8.628906 54.789062 8.710938 54.851562 8.886719 C 54.914062 9.066406 54.753906 9.167969 53.957031 9.457031 C 53.242188 9.714844 52.246094 10.03125 52.148438 10.03125 C 52.109375 10.03125 52.0625 10.042969 52.046875 10.058594 C 52.015625 10.09375 51.519531 10.242188 49.664062 10.785156 C 45.777344 11.917969 43.71875 12.582031 43.882812 12.648438 C 44.074219 12.726562 47.453125 13.441406 48.164062 13.554688 C 50.117188 13.871094 51.5 13.511719 53.464844 12.195312 L 53.886719 11.910156 L 54.816406 11.910156 C 55.484375 11.910156 55.757812 11.925781 55.78125 11.960938 C 55.839844 12.039062 56.175781 21.003906 56.121094 21.042969 C 56.046875 21.101562 54.308594 21.085938 54.226562 21.03125 C 54.1875 21.003906 54.035156 20.804688 53.886719 20.589844 C 52.167969 18.105469 50.574219 16.800781 47.566406 15.414062 C 45.496094 14.457031 42.945312 13.609375 42.675781 13.785156 C 42.453125 13.929688 41.429688 14.042969 38.832031 14.21875 C 37.84375 14.285156 36.792969 14.359375 36.496094 14.378906 C 36.203125 14.398438 35.703125 14.4375 35.382812 14.457031 C 29.710938 14.859375 28.027344 15.210938 28.707031 15.859375 C 28.867188 16.011719 28.898438 16.109375 28.898438 16.4375 C 28.898438 17.097656 28.570312 17.4375 26.398438 19.03125 C 26.203125 19.175781 26.039062 19.328125 26.035156 19.363281 C 26.03125 19.402344 25.996094 19.433594 25.953125 19.433594 C 25.695312 19.433594 25.53125 19.878906 25.738281 20.015625 C 26.136719 20.273438 24.367188 21.050781 20.386719 22.375 L 19.523438 22.660156 L 19.523438 23.148438 C 19.523438 23.566406 19.546875 23.648438 19.691406 23.738281 C 20.144531 24.03125 20.382812 25.09375 20.117188 25.65625 C 19.851562 26.21875 21.210938 28.316406 22.34375 29.089844 C 23.273438 29.726562 25.464844 30.714844 25.9375 30.714844 C 25.988281 30.714844 26.03125 30.730469 26.03125 30.75 C 26.03125 30.800781 27.824219 31.214844 28.617188 31.347656 C 34.378906 32.300781 42.894531 31.527344 45.382812 29.824219 C 46.738281 28.898438 46.820312 26.519531 45.539062 25.320312 C 45.1875 24.992188 44.203125 24.449219 43.960938 24.449219 C 43.894531 24.449219 43.839844 24.429688 43.839844 24.410156 C 43.839844 24.332031 42.25 24.011719 41.441406 23.929688 C 40.722656 23.859375 40.277344 23.847656 37.609375 23.832031 L 34.59375 23.8125 L 34.59375 22.800781 L 56.855469 22.800781 L 56.855469 15.574219 C 56.855469 8.714844 56.847656 8.34375 56.707031 8.347656 C 56.621094 8.347656 56.28125 8.398438 55.945312 8.457031 M 106.644531 9.277344 C 106.214844 9.34375 102.480469 10.183594 101.125 10.519531 C 97.242188 11.484375 92.460938 12.800781 89.179688 13.8125 C 87.015625 14.476562 86.660156 14.589844 86.695312 14.609375 C 86.746094 14.628906 87.632812 14.480469 87.664062 14.449219 C 87.679688 14.429688 87.757812 14.417969 87.835938 14.417969 C 87.957031 14.417969 89.382812 14.144531 90.890625 13.832031 C 91.554688 13.695312 95.253906 12.847656 96.113281 12.636719 C 96.945312 12.433594 98.582031 12.023438 99.066406 11.898438 C 101.617188 11.242188 102.972656 10.902344 103.820312 10.699219 C 104.667969 10.496094 104.984375 10.394531 105.617188 10.117188 C 106.042969 9.929688 106.628906 9.675781 106.925781 9.546875 C 107.691406 9.210938 107.605469 9.128906 106.644531 9.277344 M 82.238281 9.679688 C 82.050781 9.753906 81.359375 10.050781 80.703125 10.34375 C 78.800781 11.1875 77.519531 11.34375 76.632812 10.839844 L 76.480469 10.753906 L 75.980469 10.96875 C 75.457031 11.195312 73.160156 12.214844 71.515625 12.949219 L 70.550781 13.378906 L 73.960938 15.710938 C 75.835938 16.992188 78.976562 19.140625 80.941406 20.484375 C 82.90625 21.824219 84.511719 22.941406 84.511719 22.960938 C 84.511719 22.984375 83.191406 23 81.019531 23 L 77.527344 23 L 76.117188 21.996094 C 75.34375 21.445312 74.496094 20.847656 74.238281 20.664062 C 73.976562 20.484375 73.335938 20.03125 72.8125 19.660156 C 70.226562 17.824219 66.609375 15.265625 66.570312 15.246094 C 66.507812 15.214844 66.1875 15.34375 64.441406 16.117188 L 62.59375 16.9375 L 62.59375 22.800781 L 65.675781 22.800781 L 65.675781 23.8125 L 64.027344 23.832031 C 59.695312 23.886719 57.859375 24.46875 56.917969 26.074219 C 56.742188 26.378906 56.734375 26.46875 56.707031 29.277344 L 56.675781 32.167969 L 55.707031 32.167969 C 54.90625 32.167969 54.714844 32.15625 54.617188 32.101562 C 52.746094 31.070312 49.105469 30.890625 45.152344 31.640625 C 39.488281 32.714844 34.691406 32.988281 28.597656 32.59375 C 27.964844 32.550781 27.433594 32.519531 27.421875 32.519531 C 27.308594 32.519531 27.511719 32.675781 28.101562 33.042969 C 30.253906 34.378906 31.554688 35.167969 31.714844 35.230469 C 32.78125 35.632812 35.921875 35.378906 40.90625 34.480469 C 41.15625 34.4375 41.539062 34.367188 41.765625 34.328125 C 42.148438 34.257812 43.886719 33.929688 46.195312 33.488281 C 51.785156 32.425781 52.199219 32.558594 48.246094 34.164062 C 47.648438 34.40625 45.882812 35.078125 44.757812 35.492188 C 44.152344 35.714844 43.488281 35.992188 43.28125 36.117188 C 41.117188 37.375 41.820312 39.367188 45.234375 41.636719 C 45.753906 41.984375 45.632812 41.984375 46.78125 41.613281 C 48.152344 41.167969 50.316406 40.542969 51.972656 40.109375 C 52.832031 39.882812 54.535156 39.492188 54.652344 39.492188 C 54.726562 39.492188 54.796875 39.476562 54.8125 39.460938 C 54.882812 39.382812 57.261719 38.988281 58.171875 38.90625 C 60.050781 38.730469 61.125 38.902344 61.773438 39.472656 C 62.644531 40.246094 64.101562 40.316406 65.746094 39.667969 C 66.25 39.472656 67.128906 38.988281 67.128906 38.90625 C 67.128906 38.882812 67.164062 38.867188 67.203125 38.867188 C 67.308594 38.867188 67.882812 38.285156 68.070312 37.988281 C 68.449219 37.378906 68.371094 36.894531 67.808594 36.386719 C 67.414062 36.027344 67.40625 36.007812 67.683594 35.859375 C 68.273438 35.535156 70.671875 35.40625 77.832031 35.300781 C 85.773438 35.1875 89.042969 34.894531 90.054688 34.207031 C 90.597656 33.835938 90.03125 33.066406 88.339844 31.878906 C 87.976562 31.625 87.679688 31.402344 87.679688 31.382812 C 87.679688 31.363281 87.644531 31.34375 87.605469 31.335938 C 87.179688 31.261719 85.800781 29.914062 85.46875 29.246094 C 84.875 28.0625 84.992188 27.359375 85.886719 26.71875 C 86.121094 26.554688 86.308594 26.398438 86.308594 26.375 C 86.308594 26.347656 86.347656 26.328125 86.390625 26.328125 C 86.4375 26.328125 86.691406 26.199219 86.960938 26.042969 C 87.230469 25.886719 87.492188 25.742188 87.542969 25.722656 C 87.730469 25.644531 88.519531 25.128906 88.695312 24.96875 C 89.125 24.578125 88.882812 24.46875 87.585938 24.460938 C 86.464844 24.457031 86.308594 24.421875 85.980469 24.101562 C 85.640625 23.769531 85.664062 22.8125 86.039062 21.46875 C 86.617188 19.421875 86.652344 19.253906 86.652344 18.460938 C 86.652344 16.90625 85.960938 16.324219 83.960938 16.203125 C 83.015625 16.148438 83.5625 15.71875 85.453125 15.042969 C 85.804688 14.914062 86.171875 14.78125 86.265625 14.75 L 86.4375 14.6875 L 86.265625 14.710938 C 81.6875 15.390625 79.453125 15.367188 78.710938 14.625 C 78.324219 14.234375 78.570312 13.382812 79.285156 12.636719 C 79.371094 12.550781 79.582031 12.328125 79.757812 12.144531 C 80.101562 11.785156 81.671875 10.429688 82.027344 10.1875 C 82.269531 10.019531 82.644531 9.640625 82.609375 9.59375 C 82.589844 9.566406 82.433594 9.605469 82.238281 9.679688 M 16.441406 30.511719 C 16.441406 30.546875 16.519531 30.671875 16.613281 30.789062 C 17.289062 31.601562 18.148438 31.820312 19.097656 31.425781 L 19.460938 31.273438 L 19.253906 31.21875 C 19.144531 31.1875 18.667969 31.058594 18.195312 30.929688 C 17.722656 30.804688 17.167969 30.644531 16.964844 30.574219 C 16.535156 30.425781 16.441406 30.414062 16.441406 30.511719 "/>
<path style=" stroke:none;fill-rule:evenodd;fill:rgb(1.960784%,1.568628%,1.568628%);fill-opacity:1;" d="M 56.855469 12.378906 L 56.855469 22.839844 L 45.765625 22.839844 C 35.265625 22.839844 34.679688 22.84375 34.671875 22.910156 C 34.671875 22.949219 34.65625 23.140625 34.640625 23.335938 C 34.625 23.535156 34.636719 23.710938 34.667969 23.734375 C 34.699219 23.757812 35.847656 23.78125 37.632812 23.792969 C 43.007812 23.832031 44.90625 24.273438 45.976562 25.734375 C 46.410156 26.324219 46.585938 28.164062 46.28125 28.902344 C 45.808594 30.050781 43.621094 30.925781 40.066406 31.394531 C 31.230469 32.5625 23.289062 31.074219 20.984375 27.820312 C 18.457031 24.25 19.042969 17.878906 22.132812 15.320312 C 26.125 12.011719 35.859375 11.5 44.398438 14.148438 C 48.796875 15.511719 51.621094 17.355469 53.640625 20.175781 C 53.910156 20.554688 54.164062 20.902344 54.207031 20.949219 C 54.277344 21.035156 54.328125 21.039062 55.195312 21.039062 L 56.109375 21.039062 L 56.054688 19.558594 C 56.023438 18.746094 55.960938 16.96875 55.910156 15.613281 C 55.863281 14.253906 55.804688 12.875 55.773438 12.546875 L 55.722656 11.949219 L 53.882812 11.949219 L 53.492188 12.21875 C 52.511719 12.894531 51.367188 13.417969 50.492188 13.597656 C 49.382812 13.820312 48.65625 13.738281 45.253906 12.996094 C 37.535156 11.3125 31.449219 11.027344 24.574219 12.023438 C 14.003906 13.550781 7.191406 17.539062 7.1875 22.195312 C 7.183594 27.605469 16.09375 31.808594 29.285156 32.613281 C 34.886719 32.957031 38.851562 32.71875 44.738281 31.683594 C 49.355469 30.875 51.746094 30.9375 54.292969 31.9375 L 54.769531 32.125 L 56.597656 32.125 L 56.597656 29.605469 C 56.597656 28.0625 56.632812 26.921875 56.691406 26.660156 C 57.140625 24.613281 59.421875 23.789062 64.667969 23.78125 L 65.589844 23.78125 L 65.589844 22.839844 L 62.507812 22.839844 L 62.507812 16.941406 L 63.46875 16.511719 C 64 16.277344 64.882812 15.886719 65.433594 15.640625 C 65.984375 15.394531 66.472656 15.199219 66.523438 15.207031 C 66.597656 15.21875 67.695312 15.976562 69.101562 16.984375 C 69.339844 17.15625 70.609375 18.054688 71.921875 18.980469 C 73.234375 19.910156 75.03125 21.183594 75.921875 21.8125 L 77.535156 22.957031 L 84.5 22.957031 L 83.367188 22.183594 C 82.742188 21.757812 80.003906 19.886719 77.277344 18.023438 C 74.546875 16.160156 71.902344 14.351562 71.398438 14.007812 L 70.476562 13.378906 L 71.308594 13.007812 C 71.765625 12.800781 73.429688 12.0625 75.007812 11.363281 C 77.808594 10.121094 78.625 9.757812 81.6875 8.390625 L 83.183594 7.722656 L 79.566406 7.71875 L 75.945312 7.71875 L 72.160156 9.46875 C 70.074219 10.433594 67.082031 11.816406 65.507812 12.546875 C 63.9375 13.273438 62.617188 13.871094 62.578125 13.871094 C 62.539062 13.871094 62.507812 11.179688 62.507812 7.894531 L 62.507812 1.917969 L 56.855469 1.917969 L 56.855469 12.378906 "/>
<path style=" stroke:none;fill-rule:evenodd;fill:rgb(98.431373%,98.431373%,98.431373%);fill-opacity:1;" d="M 0 20.980469 L 0 41.960938 L 137 41.960938 L 136.992188 22.324219 C 136.988281 3.675781 136.980469 2.695312 136.839844 2.917969 C 135.992188 4.269531 132.472656 5.34375 128.867188 5.34375 C 125.398438 5.347656 124.710938 4.148438 127.390625 2.78125 C 130.019531 1.445312 136.105469 1.066406 136.886719 2.195312 C 136.960938 2.300781 136.984375 2.082031 136.992188 1.164062 L 137 0 L 72.761719 0.00390625 C 37.425781 0.0078125 8.597656 0.0195312 8.691406 0.0273438 C 8.992188 0.0625 9.433594 0.242188 9.5625 0.382812 C 9.914062 0.765625 9.070312 1.046875 8.289062 0.804688 C 6.9375 0.382812 2.757812 1.660156 2.042969 2.707031 C 1.6875 3.234375 1.828125 3.53125 2.503906 3.660156 C 3.996094 3.945312 7.414062 3.167969 7.242188 2.582031 C 7.171875 2.335938 7.308594 2.273438 7.90625 2.273438 C 9.039062 2.273438 9.304688 2.519531 8.738281 3.046875 C 8 3.738281 7.652344 4.351562 7.878906 4.546875 C 8.140625 4.769531 7.453125 5.042969 6.804688 4.976562 C 6.152344 4.90625 6.039062 4.675781 6.417969 4.183594 C 6.5625 4 6.679688 3.835938 6.679688 3.820312 C 6.679688 3.808594 6.507812 3.851562 6.296875 3.917969 C 3.503906 4.796875 -0.0546875 4.382812 0.105469 3.203125 C 0.296875 1.8125 4.007812 0.257812 7.660156 0.0390625 C 7.96875 0.0234375 6.515625 0.0078125 4.089844 0.00390625 L 0 0 L 0 20.980469 M 69.183594 0.265625 C 69.378906 0.585938 69.558594 1.359375 69.785156 2.898438 C 70.394531 7.035156 70.828125 8.59375 71.429688 8.839844 C 71.667969 8.941406 71.820312 8.878906 72.246094 8.519531 C 72.632812 8.191406 73.023438 7.992188 73.285156 7.992188 C 73.453125 7.992188 73.976562 8.210938 73.984375 8.285156 C 74 8.519531 74.222656 8.476562 75.074219 8.078125 L 75.914062 7.679688 L 79.570312 7.679688 C 81.582031 7.679688 83.226562 7.695312 83.226562 7.710938 C 83.226562 7.746094 82.59375 8.03125 78.625 9.789062 C 76.191406 10.867188 76.265625 10.808594 77.148438 11.015625 C 78.195312 11.261719 78.972656 11.105469 80.894531 10.257812 C 82.292969 9.640625 82.628906 9.511719 82.628906 9.601562 C 82.628906 9.660156 82.226562 10.050781 82.027344 10.1875 C 81.671875 10.429688 80.101562 11.785156 79.757812 12.144531 C 79.582031 12.328125 79.371094 12.550781 79.285156 12.636719 C 78.570312 13.382812 78.324219 14.234375 78.710938 14.625 C 79.453125 15.367188 81.6875 15.390625 86.265625 14.710938 L 86.4375 14.6875 L 86.265625 14.75 C 86.171875 14.78125 85.804688 14.914062 85.453125 15.042969 C 83.5625 15.71875 83.015625 16.148438 83.960938 16.203125 C 85.960938 16.324219 86.652344 16.90625 86.652344 18.460938 C 86.652344 19.253906 86.617188 19.421875 86.039062 21.46875 C 85.664062 22.8125 85.640625 23.769531 85.980469 24.101562 C 86.308594 24.421875 86.464844 24.457031 87.585938 24.460938 C 88.882812 24.46875 89.125 24.578125 88.695312 24.96875 C 88.519531 25.128906 87.730469 25.644531 87.542969 25.722656 C 86.953125 25.964844 85.527344 26.9375 85.285156 27.261719 C 84.898438 27.789062 85.195312 29.0625 85.90625 29.914062 C 86.292969 30.382812 87.390625 31.300781 87.605469 31.335938 C 87.644531 31.34375 87.679688 31.363281 87.679688 31.382812 C 87.679688 31.402344 87.976562 31.625 88.339844 31.878906 C 90.03125 33.066406 90.597656 33.835938 90.054688 34.207031 C 89.042969 34.894531 85.773438 35.1875 77.832031 35.300781 C 70.671875 35.40625 68.273438 35.535156 67.683594 35.859375 C 67.40625 36.007812 67.414062 36.027344 67.808594 36.386719 C 68.371094 36.894531 68.449219 37.378906 68.070312 37.988281 C 67.882812 38.285156 67.308594 38.867188 67.203125 38.867188 C 67.164062 38.867188 67.128906 38.882812 67.128906 38.90625 C 67.128906 38.988281 66.25 39.472656 65.746094 39.667969 C 64.101562 40.316406 62.644531 40.246094 61.773438 39.472656 C 61.125 38.902344 60.050781 38.730469 58.171875 38.90625 C 57.261719 38.988281 54.882812 39.382812 54.8125 39.460938 C 54.796875 39.476562 54.726562 39.492188 54.652344 39.492188 C 54.535156 39.492188 52.832031 39.882812 51.972656 40.109375 C 50.316406 40.542969 48.152344 41.167969 46.78125 41.613281 C 45.632812 41.984375 45.753906 41.984375 45.234375 41.636719 C 41.820312 39.367188 41.117188 37.375 43.28125 36.117188 C 43.488281 35.992188 44.152344 35.714844 44.757812 35.492188 C 45.882812 35.078125 47.648438 34.40625 48.246094 34.164062 C 52.199219 32.558594 51.785156 32.425781 46.195312 33.488281 C 43.886719 33.929688 42.148438 34.257812 41.761719 34.328125 C 41.539062 34.367188 41.15625 34.4375 40.90625 34.480469 C 35.921875 35.378906 32.78125 35.632812 31.714844 35.230469 C 31.554688 35.167969 29.753906 34.074219 27.894531 32.910156 L 27.234375 32.5 L 26.269531 32.394531 C 23.929688 32.136719 20.890625 31.640625 19.800781 31.335938 L 19.523438 31.257812 L 19.128906 31.417969 C 18.527344 31.660156 18.070312 31.671875 17.484375 31.46875 C 17.097656 31.335938 16.441406 30.71875 16.441406 30.496094 C 16.441406 30.4375 16.25 30.347656 15.820312 30.199219 C 4.148438 26.167969 4.222656 18.265625 15.96875 14.046875 C 23.628906 11.300781 33.53125 10.695312 42.597656 12.421875 C 43.070312 12.511719 43.519531 12.59375 43.601562 12.605469 C 43.691406 12.617188 43.996094 12.539062 44.417969 12.394531 C 45.554688 12.003906 47.046875 11.546875 49.664062 10.785156 C 51.519531 10.242188 52.015625 10.09375 52.046875 10.058594 C 52.0625 10.042969 52.109375 10.03125 52.148438 10.03125 C 52.246094 10.03125 53.242188 9.714844 53.957031 9.457031 C 54.753906 9.167969 54.914062 9.066406 54.851562 8.886719 C 54.785156 8.703125 55.015625 8.621094 56.082031 8.4375 L 56.8125 8.3125 L 56.835938 5.09375 L 56.855469 1.878906 L 59.703125 1.890625 L 62.550781 1.898438 L 62.570312 3.632812 C 62.582031 4.585938 62.609375 5.367188 62.625 5.367188 C 62.644531 5.367188 62.886719 5.316406 63.160156 5.253906 C 63.765625 5.117188 64.246094 5.019531 64.988281 4.878906 C 65.722656 4.738281 66.984375 4.441406 67.257812 4.34375 C 67.652344 4.199219 67.707031 4.085938 67.980469 2.867188 C 68.503906 0.519531 68.863281 -0.253906 69.183594 0.265625 M 49.859375 1.074219 C 51.308594 1.355469 50.832031 2.230469 48.847656 2.9375 C 48.574219 3.035156 48.238281 3.160156 48.097656 3.214844 L 47.839844 3.316406 L 48.09375 3.445312 C 48.882812 3.851562 50.792969 3.511719 52.960938 2.578125 C 54.230469 2.03125 54.882812 2.023438 54.082031 2.570312 C 51.15625 4.558594 46.210938 4.789062 46.425781 2.925781 L 46.460938 2.597656 L 45.757812 2.804688 C 45.367188 2.921875 44.230469 3.203125 43.226562 3.429688 C 42.222656 3.660156 41.234375 3.902344 41.035156 3.964844 C 40.328125 4.1875 39.660156 4.191406 39.355469 3.976562 C 39.007812 3.734375 39.28125 3.578125 40.339844 3.410156 C 41.363281 3.246094 42.121094 2.824219 42.265625 2.339844 C 42.472656 1.648438 41.332031 1.859375 39.773438 2.792969 C 38.796875 3.378906 38.625 3.636719 38.535156 4.664062 C 38.496094 5.113281 38.433594 5.503906 38.398438 5.53125 C 38.089844 5.777344 37.539062 5.835938 37.105469 5.664062 C 36.824219 5.554688 36.816406 5.425781 37.03125 4.664062 C 37.203125 4.058594 37.332031 3.339844 37.332031 2.964844 L 37.332031 2.65625 L 36.625 2.960938 C 35.003906 3.660156 33.542969 3.945312 32.746094 3.71875 C 32.460938 3.640625 31.9375 3.234375 31.9375 3.09375 C 31.9375 2.957031 31.816406 2.988281 31.488281 3.222656 C 30.324219 4.054688 28.75 4.476562 27.6875 4.246094 C 27.003906 4.097656 26.851562 3.828125 27.070312 3.152344 C 27.15625 2.894531 27.222656 2.589844 27.226562 2.476562 L 27.230469 2.265625 L 27.003906 2.347656 C 26.410156 2.5625 25.0625 2.609375 24.003906 2.453125 C 23.832031 2.425781 23.820312 2.441406 23.792969 2.730469 C 23.636719 4.261719 18.070312 5.039062 18.117188 3.527344 C 18.144531 2.667969 20.390625 1.371094 21.855469 1.371094 C 22.277344 1.371094 22.457031 1.414062 23 1.648438 C 24.019531 2.085938 26.574219 2.152344 27.5 1.761719 C 27.855469 1.613281 28.394531 1.597656 28.648438 1.726562 C 28.90625 1.859375 28.867188 2.40625 28.558594 2.992188 C 28.191406 3.683594 28.410156 3.835938 29.339844 3.542969 C 30.25 3.257812 30.769531 2.902344 31.636719 1.964844 C 32.074219 1.5 32.304688 1.371094 32.710938 1.371094 C 33.136719 1.371094 33.179688 1.441406 33.074219 1.972656 C 32.894531 2.863281 33.253906 3.273438 34.109375 3.15625 C 34.820312 3.058594 37.214844 2.15625 37.582031 1.84375 C 38.113281 1.398438 39.179688 1.699219 38.96875 2.238281 C 38.847656 2.554688 38.867188 2.558594 39.292969 2.257812 C 40.066406 1.714844 41.347656 1.292969 42.214844 1.292969 C 43.523438 1.292969 44.234375 2.109375 43.4375 2.695312 C 43.285156 2.808594 43.179688 2.898438 43.203125 2.898438 C 43.28125 2.898438 44.839844 2.488281 45.753906 2.226562 C 46.265625 2.078125 46.734375 1.957031 46.792969 1.957031 C 46.855469 1.957031 47.003906 1.882812 47.121094 1.792969 C 47.867188 1.210938 49.015625 0.90625 49.859375 1.074219 M 13.148438 1.703125 C 13.410156 1.824219 13.417969 1.972656 13.1875 2.515625 C 12.964844 3.039062 12.964844 3.039062 13.332031 2.742188 C 14.046875 2.160156 15.242188 1.761719 16.273438 1.761719 C 17.792969 1.761719 18.257812 2.359375 16.75 2.375 C 15.140625 2.394531 13.679688 3.097656 13.148438 4.113281 C 12.933594 4.515625 12.585938 4.652344 11.988281 4.5625 C 11.421875 4.480469 11.386719 3.300781 11.917969 2.058594 C 12.089844 1.65625 12.675781 1.488281 13.148438 1.703125 M 48.820312 1.707031 C 48.3125 1.902344 47.519531 2.832031 48 2.667969 C 48.886719 2.359375 49.433594 2.007812 49.390625 1.769531 C 49.355469 1.589844 49.175781 1.566406 48.820312 1.707031 M 20.964844 2.214844 C 19.867188 2.875 19.609375 3.101562 19.609375 3.394531 C 19.609375 4.003906 21.183594 3.832031 22.28125 3.101562 C 22.722656 2.808594 22.675781 2.246094 22.203125 2.167969 C 22.050781 2.144531 21.507812 2.035156 21.390625 2.007812 C 21.359375 2 21.167969 2.09375 20.964844 2.214844 M 122.511719 5 C 124.15625 5.253906 124.53125 5.910156 123.507812 6.761719 C 121.558594 8.386719 114.84375 8.429688 115.507812 6.816406 C 116.035156 5.539062 119.746094 4.578125 122.511719 5 M 112.835938 7.621094 C 114.75 7.988281 113.957031 9.179688 111.527344 9.582031 C 108.917969 10.015625 107.476562 8.800781 109.648438 8 C 110.707031 7.609375 111.976562 7.457031 112.835938 7.621094 M 107.460938 9.261719 C 107.460938 9.289062 107.21875 9.417969 106.925781 9.546875 C 106.628906 9.675781 106.042969 9.929688 105.617188 10.117188 C 104.984375 10.394531 104.667969 10.496094 103.820312 10.699219 C 102.972656 10.902344 101.617188 11.242188 99.066406 11.898438 C 95.585938 12.792969 91.789062 13.667969 89.050781 14.199219 C 85.933594 14.804688 85.933594 14.808594 89.179688 13.8125 C 96.289062 11.625 107.460938 8.84375 107.460938 9.261719 M 31.679688 12.519531 C 31.609375 12.523438 31.265625 12.550781 30.910156 12.578125 C 23.257812 13.140625 19.796875 15.851562 19.535156 21.5 C 19.503906 22.128906 19.503906 22.644531 19.53125 22.644531 C 19.601562 22.644531 21.5 22.003906 22.476562 21.652344 C 25.285156 20.636719 26.078125 20.234375 25.738281 20.015625 C 25.464844 19.835938 25.769531 19.460938 26.753906 18.769531 C 28.753906 17.367188 29.351562 16.476562 28.707031 15.859375 C 28.175781 15.351562 28.910156 15.089844 31.722656 14.777344 C 32.875 14.648438 33.660156 14.578125 35.382812 14.457031 C 35.703125 14.4375 36.203125 14.398438 36.496094 14.378906 C 36.792969 14.359375 37.84375 14.285156 38.832031 14.21875 C 41.503906 14.042969 42.726562 13.890625 42.726562 13.734375 C 42.726562 13.550781 38.902344 12.859375 36.777344 12.660156 C 35.277344 12.519531 32.523438 12.441406 31.679688 12.519531 M 19.566406 23.996094 C 19.617188 24.328125 19.796875 25.132812 19.917969 25.554688 C 20.046875 26.003906 20.207031 25.664062 20.207031 24.941406 C 20.207031 24.382812 20.007812 23.925781 19.6875 23.742188 L 19.515625 23.644531 L 19.566406 23.996094 "/>
<path style=" stroke:none;fill-rule:evenodd;fill:rgb(54.901963%,38.431373%,21.568628%);fill-opacity:1;" d="M 7.285156 0.0820312 C 3.777344 0.398438 0.386719 1.878906 0.117188 3.210938 C -0.113281 4.34375 3.636719 4.761719 6.269531 3.894531 C 6.820312 3.714844 6.847656 3.738281 6.519531 4.117188 C 6.066406 4.644531 6.226562 4.976562 6.9375 4.976562 C 7.539062 4.976562 8.183594 4.636719 7.792969 4.523438 C 7.554688 4.457031 8.007812 3.65625 8.589844 3.113281 C 9.144531 2.597656 9.144531 2.605469 8.785156 2.449219 C 8.105469 2.15625 7.191406 2.238281 7.320312 2.582031 C 7.5 3.066406 4.71875 3.832031 3.101562 3.746094 C 1.855469 3.679688 1.523438 3.386719 1.960938 2.746094 C 2.699219 1.660156 6.785156 0.371094 8.25 0.761719 C 8.976562 0.957031 9.585938 0.855469 9.589844 0.542969 C 9.59375 0.148438 8.640625 -0.0390625 7.285156 0.0820312 M 48.566406 1.160156 C 48.101562 1.265625 47.34375 1.617188 47.15625 1.8125 C 47.09375 1.882812 46.902344 1.960938 46.664062 2.011719 C 46.453125 2.0625 45.773438 2.246094 45.152344 2.421875 C 44.144531 2.703125 43.226562 2.9375 43.121094 2.9375 C 43.101562 2.9375 43.226562 2.8125 43.398438 2.660156 C 43.800781 2.300781 43.828125 2.003906 43.496094 1.707031 C 42.699219 1 40.558594 1.332031 39.191406 2.375 C 38.910156 2.59375 38.734375 2.648438 38.816406 2.496094 C 39.097656 1.984375 38.890625 1.683594 38.25 1.683594 C 37.96875 1.683594 37.589844 1.800781 37.589844 1.886719 C 37.589844 2.003906 35.195312 2.953125 34.488281 3.117188 C 33.226562 3.414062 32.71875 2.882812 33.09375 1.664062 C 33.152344 1.480469 33.085938 1.421875 32.78125 1.398438 C 32.328125 1.359375 32.128906 1.488281 31.390625 2.292969 C 30.777344 2.960938 29.984375 3.429688 29.136719 3.625 C 28.308594 3.816406 28.183594 3.65625 28.550781 2.863281 C 28.804688 2.316406 28.835938 1.902344 28.636719 1.773438 C 28.441406 1.644531 27.84375 1.648438 27.558594 1.78125 C 26.613281 2.210938 24.027344 2.117188 22.789062 1.601562 C 22.359375 1.421875 22.308594 1.410156 21.859375 1.410156 C 20.023438 1.410156 17.503906 3.167969 18.316406 3.882812 C 18.644531 4.167969 19.117188 4.304688 19.78125 4.308594 C 21.882812 4.3125 23.761719 3.542969 23.761719 2.675781 C 23.761719 2.519531 23.765625 2.390625 23.773438 2.390625 C 23.777344 2.390625 23.949219 2.417969 24.15625 2.453125 C 24.984375 2.59375 26.617188 2.511719 27.019531 2.308594 C 27.375 2.128906 27.410156 2.359375 27.136719 3.097656 C 26.816406 3.957031 27.203125 4.304688 28.429688 4.261719 C 29.480469 4.226562 30.421875 3.90625 31.382812 3.25 C 31.652344 3.070312 31.882812 2.914062 31.898438 2.90625 C 31.910156 2.898438 31.964844 2.984375 32.015625 3.097656 C 32.460938 4.046875 34.222656 3.972656 36.660156 2.90625 C 37.03125 2.746094 37.359375 2.625 37.386719 2.636719 C 37.460938 2.671875 37.265625 4.035156 37.117188 4.523438 C 37.054688 4.742188 36.976562 5.058594 36.941406 5.234375 L 36.886719 5.550781 L 37.15625 5.652344 C 37.476562 5.777344 37.679688 5.785156 38.023438 5.691406 C 38.359375 5.601562 38.367188 5.585938 38.449219 4.878906 C 38.601562 3.597656 38.652344 3.503906 39.5 2.929688 C 41.054688 1.875 42.578125 1.5625 42.335938 2.34375 C 42.175781 2.863281 41.355469 3.289062 40.183594 3.464844 C 39.546875 3.558594 39.300781 3.660156 39.300781 3.820312 C 39.300781 4.140625 40.472656 4.191406 41.183594 3.898438 C 41.253906 3.871094 42.125 3.660156 43.113281 3.433594 C 44.101562 3.207031 45.25 2.925781 45.667969 2.804688 C 46.085938 2.683594 46.4375 2.585938 46.453125 2.585938 C 46.464844 2.585938 46.472656 2.773438 46.46875 3.007812 C 46.4375 4.695312 50.710938 4.539062 53.726562 2.742188 C 54.800781 2.101562 54.410156 1.988281 53.09375 2.558594 C 50.894531 3.511719 48.949219 3.871094 48.101562 3.484375 C 47.753906 3.324219 47.800781 3.273438 48.492188 3.039062 C 49.820312 2.589844 50.605469 2.105469 50.605469 1.730469 C 50.605469 1.15625 49.699219 0.902344 48.566406 1.160156 M 49.449219 1.648438 C 49.613281 1.882812 49.292969 2.167969 48.488281 2.507812 C 47.6875 2.84375 47.617188 2.8125 47.988281 2.3125 C 48.375 1.785156 49.265625 1.382812 49.449219 1.648438 M 12.289062 1.734375 C 11.796875 1.929688 11.347656 4.058594 11.730469 4.390625 C 12.117188 4.726562 12.816406 4.578125 13.097656 4.097656 C 13.71875 3.035156 15.136719 2.351562 16.714844 2.351562 C 17.875 2.351562 17.902344 1.941406 16.75 1.796875 C 15.5625 1.652344 14.164062 2.085938 13.175781 2.914062 C 12.867188 3.171875 12.832031 3.105469 13.058594 2.660156 C 13.390625 2.003906 13.40625 1.859375 13.152344 1.746094 C 12.886719 1.621094 12.578125 1.617188 12.289062 1.734375 M 22.121094 2.136719 C 23.273438 2.269531 22.496094 3.34375 20.996094 3.699219 C 19.210938 4.121094 19.015625 3.355469 20.652344 2.363281 C 21.324219 1.957031 21.363281 1.941406 21.667969 2.039062 C 21.789062 2.078125 21.992188 2.121094 22.121094 2.136719 M 120.175781 4.960938 C 117.476562 5.152344 115.140625 6.316406 115.59375 7.242188 C 116.160156 8.402344 121.417969 8.160156 123.269531 6.886719 C 125 5.695312 123.445312 4.730469 120.175781 4.960938 M 62.527344 9.609375 C 62.515625 12.035156 62.539062 13.871094 62.582031 13.871094 C 62.621094 13.871094 62.710938 13.839844 62.773438 13.800781 C 62.878906 13.738281 62.878906 13.738281 62.742188 13.785156 C 62.601562 13.835938 62.589844 13.625 62.570312 9.59375 L 62.546875 5.347656 L 62.527344 9.609375 M 73.503906 8.824219 L 73.167969 8.992188 L 73.53125 8.835938 C 73.730469 8.75 73.894531 8.675781 73.894531 8.671875 C 73.894531 8.640625 73.820312 8.671875 73.503906 8.824219 M 71.238281 9.863281 L 69.398438 10.714844 L 71.261719 9.875 C 72.992188 9.089844 73.164062 9.011719 73.101562 9.011719 C 73.089844 9.011719 72.25 9.394531 71.238281 9.863281 M 77.316406 10.332031 L 76.847656 10.558594 L 77.339844 10.34375 C 77.613281 10.226562 77.832031 10.125 77.832031 10.121094 C 77.832031 10.089844 77.75 10.125 77.316406 10.332031 M 68.929688 10.910156 C 68.71875 11.007812 68.570312 11.085938 68.59375 11.085938 C 68.617188 11.085938 68.804688 11.007812 69.015625 10.910156 C 69.222656 10.8125 69.371094 10.734375 69.347656 10.734375 C 69.324219 10.734375 69.136719 10.8125 68.929688 10.910156 M 75.988281 10.941406 L 75.5625 11.144531 L 76.015625 10.953125 C 76.429688 10.769531 76.503906 10.734375 76.4375 10.734375 C 76.425781 10.734375 76.222656 10.828125 75.988281 10.941406 M 73.722656 11.941406 L 72.566406 12.480469 L 73.746094 11.949219 C 74.390625 11.660156 74.921875 11.417969 74.921875 11.410156 C 74.921875 11.382812 74.792969 11.4375 73.722656 11.941406 M 31.101562 11.46875 C 31.1875 11.476562 31.320312 11.476562 31.402344 11.46875 C 31.484375 11.457031 31.417969 11.449219 31.253906 11.449219 C 31.089844 11.449219 31.019531 11.457031 31.101562 11.46875 M 33.074219 11.46875 C 33.15625 11.476562 33.289062 11.476562 33.371094 11.46875 C 33.453125 11.457031 33.386719 11.449219 33.222656 11.449219 C 33.058594 11.449219 32.992188 11.457031 33.074219 11.46875 M 65.417969 12.566406 L 63.832031 13.300781 L 65.4375 12.578125 C 66.929688 11.902344 67.082031 11.832031 67.023438 11.832031 C 67.011719 11.832031 66.289062 12.164062 65.417969 12.566406 M 53.828125 11.9375 C 53.808594 11.957031 54.226562 11.964844 54.761719 11.957031 L 55.734375 11.945312 L 55.765625 12.230469 L 55.796875 12.519531 L 55.789062 12.222656 L 55.785156 11.929688 L 54.828125 11.917969 C 54.300781 11.914062 53.851562 11.921875 53.828125 11.9375 M 53.171875 12.378906 C 53.074219 12.445312 53.007812 12.5 53.03125 12.5 C 53.058594 12.5 53.15625 12.445312 53.257812 12.378906 C 53.359375 12.316406 53.421875 12.261719 53.398438 12.261719 C 53.375 12.261719 53.273438 12.316406 53.171875 12.378906 M 71.210938 13.039062 L 70.460938 13.386719 L 70.644531 13.480469 L 70.824219 13.574219 L 70.691406 13.480469 C 70.554688 13.382812 70.5625 13.378906 71.300781 13.039062 C 71.714844 12.847656 72.03125 12.695312 72.007812 12.695312 C 71.984375 12.695312 71.625 12.851562 71.210938 13.039062 M 45.125 12.96875 C 45.570312 13.074219 45.976562 13.160156 46.023438 13.160156 C 46.070312 13.160156 45.742188 13.074219 45.296875 12.96875 C 44.847656 12.863281 44.445312 12.777344 44.398438 12.777344 C 44.351562 12.777344 44.675781 12.863281 45.125 12.96875 M 51.84375 13.136719 L 51.503906 13.300781 L 51.867188 13.144531 C 52.207031 13.003906 52.269531 12.96875 52.207031 12.96875 C 52.191406 12.96875 52.027344 13.042969 51.84375 13.136719 M 63.402344 13.488281 L 63.0625 13.652344 L 63.425781 13.5 C 63.765625 13.355469 63.828125 13.320312 63.765625 13.320312 C 63.75 13.320312 63.585938 13.394531 63.402344 13.488281 M 55.863281 14.105469 C 55.863281 14.417969 55.875 14.542969 55.890625 14.386719 C 55.90625 14.230469 55.90625 13.976562 55.890625 13.820312 C 55.875 13.664062 55.863281 13.792969 55.863281 14.105469 M 49.257812 13.703125 C 49.386719 13.710938 49.578125 13.710938 49.683594 13.699219 C 49.789062 13.691406 49.683594 13.683594 49.449219 13.683594 C 49.214844 13.683594 49.125 13.691406 49.257812 13.703125 M 71.300781 13.949219 C 71.382812 14.015625 71.507812 14.09375 71.574219 14.117188 C 71.640625 14.140625 71.589844 14.089844 71.457031 13.996094 C 71.179688 13.804688 71.070312 13.773438 71.300781 13.949219 M 45.125 14.390625 C 45.125 14.402344 45.277344 14.46875 45.46875 14.535156 C 45.65625 14.605469 45.808594 14.652344 45.808594 14.640625 C 45.808594 14.628906 45.65625 14.566406 45.46875 14.496094 C 45.277344 14.429688 45.125 14.382812 45.125 14.390625 M 45.894531 14.664062 C 45.894531 14.671875 46.019531 14.730469 46.171875 14.792969 L 46.453125 14.90625 L 46.199219 14.78125 C 45.964844 14.660156 45.894531 14.636719 45.894531 14.664062 M 47.4375 15.339844 C 47.976562 15.585938 48.4375 15.789062 48.460938 15.789062 C 48.484375 15.789062 48.0625 15.585938 47.523438 15.339844 C 46.980469 15.089844 46.519531 14.886719 46.496094 14.886719 C 46.472656 14.886719 46.894531 15.089844 47.4375 15.339844 M 66.359375 15.242188 C 66.359375 15.265625 66.402344 15.273438 66.449219 15.257812 C 66.5 15.246094 66.597656 15.265625 66.667969 15.304688 C 66.789062 15.371094 66.789062 15.371094 66.703125 15.289062 C 66.609375 15.199219 66.359375 15.167969 66.359375 15.242188 M 65.414062 15.660156 L 64.605469 16.042969 L 65.4375 15.671875 C 65.898438 15.46875 66.273438 15.296875 66.273438 15.289062 C 66.273438 15.261719 66.167969 15.308594 65.414062 15.660156 M 67.214844 15.683594 C 67.214844 15.722656 67.652344 16.023438 67.707031 16.023438 C 67.746094 16.023438 67.609375 15.917969 67.332031 15.730469 C 67.265625 15.6875 67.214844 15.667969 67.214844 15.683594 M 55.945312 16.277344 C 55.945312 16.582031 55.960938 16.699219 55.976562 16.542969 C 55.992188 16.382812 55.992188 16.136719 55.976562 15.992188 C 55.960938 15.847656 55.945312 15.976562 55.945312 16.277344 M 48.464844 15.839844 C 48.464844 15.847656 48.589844 15.90625 48.742188 15.96875 L 49.019531 16.082031 L 48.769531 15.957031 C 48.535156 15.835938 48.464844 15.808594 48.464844 15.839844 M 74.277344 15.976562 C 74.410156 16.066406 74.53125 16.140625 74.550781 16.140625 C 74.613281 16.140625 74.285156 15.902344 74.15625 15.855469 C 74.089844 15.828125 74.144531 15.882812 74.277344 15.976562 M 63.382812 16.542969 L 62.507812 16.945312 L 62.507812 22.839844 L 65.589844 22.839844 L 65.589844 23.78125 L 64.539062 23.792969 L 63.492188 23.804688 L 64.582031 23.8125 L 65.675781 23.820312 L 65.675781 22.800781 L 62.59375 22.800781 L 62.59375 16.945312 L 63.46875 16.542969 C 63.949219 16.324219 64.324219 16.140625 64.300781 16.140625 C 64.277344 16.140625 63.863281 16.324219 63.382812 16.542969 M 68.148438 16.355469 C 68.191406 16.398438 68.292969 16.472656 68.371094 16.515625 L 68.507812 16.59375 L 68.425781 16.515625 C 68.378906 16.472656 68.277344 16.398438 68.203125 16.355469 L 68.0625 16.277344 L 68.148438 16.355469 M 75.132812 16.5625 C 75.265625 16.65625 75.390625 16.730469 75.410156 16.730469 C 75.472656 16.730469 75.144531 16.492188 75.015625 16.441406 C 74.949219 16.417969 75 16.472656 75.132812 16.5625 M 75.988281 17.152344 C 76.121094 17.242188 76.246094 17.316406 76.265625 17.316406 C 76.328125 17.316406 76 17.078125 75.871094 17.03125 C 75.804688 17.003906 75.855469 17.058594 75.988281 17.152344 M 76.84375 17.738281 C 76.976562 17.828125 77.101562 17.90625 77.121094 17.90625 C 77.183594 17.90625 76.855469 17.667969 76.726562 17.617188 C 76.660156 17.59375 76.714844 17.648438 76.84375 17.738281 M 51.605469 17.921875 C 51.734375 18.042969 51.851562 18.132812 51.867188 18.125 C 51.90625 18.105469 51.476562 17.707031 51.417969 17.707031 C 51.394531 17.707031 51.480469 17.804688 51.605469 17.921875 M 70.203125 17.808594 C 70.246094 17.851562 70.347656 17.921875 70.425781 17.964844 L 70.566406 18.042969 L 70.480469 17.964844 C 70.433594 17.921875 70.332031 17.851562 70.257812 17.808594 L 70.117188 17.730469 L 70.203125 17.808594 M 56.035156 18.648438 C 56.035156 19.089844 56.046875 19.273438 56.0625 19.050781 C 56.078125 18.828125 56.078125 18.46875 56.0625 18.246094 C 56.046875 18.027344 56.035156 18.207031 56.035156 18.648438 M 71.144531 18.472656 C 71.191406 18.515625 71.289062 18.585938 71.367188 18.628906 L 71.507812 18.707031 L 71.421875 18.628906 C 71.375 18.585938 71.273438 18.515625 71.199219 18.472656 L 71.058594 18.394531 L 71.144531 18.472656 M 52.96875 19.355469 C 53 19.410156 53.074219 19.503906 53.140625 19.570312 C 53.234375 19.664062 53.246094 19.667969 53.203125 19.589844 C 53.175781 19.535156 53.097656 19.4375 53.035156 19.375 C 52.941406 19.28125 52.929688 19.277344 52.96875 19.355469 M 72.855469 19.6875 C 72.902344 19.730469 73.003906 19.800781 73.078125 19.84375 L 73.21875 19.921875 L 73.132812 19.84375 C 73.089844 19.800781 72.988281 19.730469 72.910156 19.6875 L 72.773438 19.609375 L 72.855469 19.6875 M 56.101562 20.753906 L 56.085938 21.039062 L 55.1875 21.039062 C 54.425781 21.039062 54.28125 21.027344 54.207031 20.96875 C 54.160156 20.933594 54.117188 20.921875 54.117188 20.941406 C 54.109375 21.050781 54.347656 21.078125 55.207031 21.078125 C 56.222656 21.078125 56.191406 21.089844 56.148438 20.722656 L 56.117188 20.472656 L 56.101562 20.753906 M 81.382812 20.832031 C 81.515625 20.925781 81.640625 21 81.660156 21 C 81.722656 21 81.394531 20.761719 81.265625 20.714844 C 81.199219 20.6875 81.25 20.742188 81.382812 20.832031 M 19.457031 21.117188 C 19.457031 21.191406 19.472656 21.222656 19.496094 21.1875 C 19.515625 21.148438 19.515625 21.085938 19.496094 21.050781 C 19.472656 21.011719 19.457031 21.042969 19.457031 21.117188 M 75.082031 21.253906 C 75.128906 21.296875 75.230469 21.367188 75.304688 21.410156 L 75.445312 21.488281 L 75.359375 21.410156 C 75.316406 21.367188 75.214844 21.296875 75.136719 21.253906 L 74.996094 21.175781 L 75.082031 21.253906 M 83.046875 21.960938 C 83.089844 22.003906 83.191406 22.074219 83.269531 22.117188 L 83.410156 22.195312 L 83.324219 22.117188 C 83.277344 22.074219 83.175781 22.003906 83.101562 21.960938 L 82.960938 21.882812 L 83.046875 21.960938 M 83.613281 22.355469 C 83.695312 22.421875 83.835938 22.515625 83.929688 22.570312 L 84.097656 22.664062 L 83.953125 22.542969 C 83.875 22.480469 83.730469 22.382812 83.640625 22.328125 L 83.46875 22.234375 L 83.613281 22.355469 M 19.46875 23.234375 C 19.46875 23.523438 19.484375 23.644531 19.5 23.496094 C 19.515625 23.351562 19.515625 23.113281 19.5 22.96875 C 19.484375 22.824219 19.46875 22.941406 19.46875 23.234375 M 34.605469 22.910156 C 34.613281 23.003906 34.621094 23.003906 34.652344 22.929688 L 34.691406 22.839844 L 45.792969 22.832031 L 56.898438 22.820312 L 45.746094 22.8125 L 34.59375 22.800781 L 34.605469 22.910156 M 77.402344 22.910156 L 77.496094 23 L 81.027344 22.988281 L 84.554688 22.980469 L 81.050781 22.96875 C 77.847656 22.957031 77.539062 22.953125 77.429688 22.890625 C 77.320312 22.828125 77.320312 22.832031 77.402344 22.910156 M 34.613281 23.15625 C 34.613281 23.230469 34.628906 23.261719 34.652344 23.222656 C 34.671875 23.1875 34.671875 23.125 34.652344 23.085938 C 34.628906 23.046875 34.613281 23.078125 34.613281 23.15625 M 34.59375 23.753906 C 34.59375 23.816406 34.761719 23.820312 37.140625 23.8125 L 39.6875 23.800781 L 37.207031 23.792969 C 35.355469 23.785156 34.710938 23.769531 34.664062 23.730469 C 34.613281 23.699219 34.59375 23.703125 34.59375 23.753906 M 40.222656 23.847656 C 40.328125 23.859375 40.484375 23.859375 40.566406 23.847656 C 40.648438 23.839844 40.5625 23.832031 40.371094 23.832031 C 40.183594 23.832031 40.117188 23.839844 40.222656 23.847656 M 62.484375 23.847656 C 62.59375 23.859375 62.746094 23.859375 62.828125 23.847656 C 62.910156 23.839844 62.824219 23.832031 62.632812 23.832031 C 62.445312 23.832031 62.378906 23.839844 62.484375 23.847656 M 59.746094 24.195312 C 59.519531 24.25 59.339844 24.300781 59.339844 24.3125 C 59.339844 24.328125 60.1875 24.144531 60.273438 24.109375 C 60.378906 24.066406 60.101562 24.109375 59.746094 24.195312 M 42.90625 24.148438 C 42.992188 24.183594 43.496094 24.292969 43.496094 24.273438 C 43.496094 24.25 43.023438 24.132812 42.929688 24.132812 C 42.898438 24.132812 42.886719 24.140625 42.90625 24.148438 M 58.4375 24.652344 L 58.011719 24.859375 L 58.460938 24.664062 C 58.878906 24.484375 58.949219 24.449219 58.886719 24.449219 C 58.871094 24.449219 58.667969 24.539062 58.4375 24.652344 M 44.523438 24.652344 C 44.730469 24.757812 44.914062 24.839844 44.929688 24.839844 C 44.992188 24.839844 44.925781 24.804688 44.546875 24.640625 L 44.140625 24.46875 L 44.523438 24.652344 M 57.816406 24.988281 C 57.59375 25.132812 57.523438 25.191406 57.566406 25.191406 C 57.585938 25.191406 57.703125 25.121094 57.828125 25.035156 C 58.082031 24.859375 58.070312 24.816406 57.816406 24.988281 M 57.164062 25.570312 C 57.089844 25.671875 57.027344 25.773438 57.03125 25.796875 C 57.035156 25.820312 57.113281 25.742188 57.203125 25.625 C 57.292969 25.507812 57.351562 25.40625 57.335938 25.398438 C 57.316406 25.390625 57.242188 25.46875 57.164062 25.570312 M 45.90625 25.703125 C 45.90625 25.734375 45.941406 25.796875 45.980469 25.839844 C 46.027344 25.886719 46.054688 25.894531 46.054688 25.859375 C 46.054688 25.824219 46.019531 25.765625 45.980469 25.722656 C 45.933594 25.671875 45.90625 25.664062 45.90625 25.703125 M 20.050781 26.035156 C 20.046875 26.078125 20.097656 26.21875 20.160156 26.347656 C 20.222656 26.476562 20.277344 26.546875 20.28125 26.503906 C 20.285156 26.460938 20.234375 26.320312 20.167969 26.191406 C 20.105469 26.0625 20.050781 25.992188 20.050781 26.035156 M 46.34375 26.757812 C 46.34375 26.835938 46.359375 26.867188 46.382812 26.828125 C 46.402344 26.789062 46.402344 26.726562 46.382812 26.691406 C 46.359375 26.652344 46.34375 26.683594 46.34375 26.757812 M 56.597656 29.519531 L 56.597656 32.125 L 55.683594 32.125 C 54.855469 32.125 54.746094 32.117188 54.546875 32.039062 L 54.328125 31.949219 L 54.535156 32.058594 C 54.738281 32.164062 54.761719 32.167969 55.714844 32.167969 L 56.683594 32.167969 L 56.683594 29.542969 C 56.683594 28.097656 56.664062 26.917969 56.640625 26.917969 C 56.617188 26.917969 56.597656 28.089844 56.597656 29.519531 M 46.050781 29.179688 C 45.96875 29.300781 45.917969 29.410156 45.933594 29.414062 C 45.980469 29.4375 46.253906 29.035156 46.222656 28.992188 C 46.207031 28.972656 46.128906 29.054688 46.050781 29.179688 M 22.40625 29.191406 C 22.492188 29.257812 22.617188 29.332031 22.683594 29.359375 C 22.75 29.382812 22.699219 29.328125 22.566406 29.238281 C 22.289062 29.046875 22.179688 29.011719 22.40625 29.191406 M 22.992188 29.542969 C 23.230469 29.683594 24.082031 30.097656 24.046875 30.058594 C 24.03125 30.039062 23.75 29.890625 23.421875 29.734375 C 23.09375 29.574219 22.902344 29.488281 22.992188 29.542969 M 24.394531 30.21875 C 24.527344 30.296875 25.171875 30.535156 25.171875 30.511719 C 25.171875 30.5 24.972656 30.417969 24.722656 30.320312 C 24.476562 30.226562 24.328125 30.179688 24.394531 30.21875 M 44.5625 30.296875 L 44.3125 30.421875 L 44.589844 30.308594 C 44.742188 30.246094 44.867188 30.1875 44.867188 30.179688 C 44.867188 30.148438 44.796875 30.175781 44.5625 30.296875 M 25.257812 30.535156 C 25.257812 30.546875 25.375 30.59375 25.515625 30.636719 C 25.65625 30.683594 25.773438 30.714844 25.773438 30.703125 C 25.773438 30.691406 25.65625 30.644531 25.515625 30.597656 C 25.375 30.554688 25.257812 30.523438 25.257812 30.535156 M 17.210938 30.648438 C 17.371094 30.71875 17.980469 30.886719 17.980469 30.859375 C 17.980469 30.847656 17.777344 30.785156 17.53125 30.714844 C 17.285156 30.648438 17.140625 30.617188 17.210938 30.648438 M 26.542969 30.933594 C 26.542969 30.957031 27.410156 31.15625 27.449219 31.136719 C 27.464844 31.128906 27.269531 31.074219 27.011719 31.019531 C 26.753906 30.960938 26.542969 30.921875 26.542969 30.933594 M 18.496094 31.007812 C 18.496094 31.019531 18.648438 31.0625 18.835938 31.109375 C 19.027344 31.152344 19.179688 31.179688 19.179688 31.167969 C 19.179688 31.15625 19.027344 31.113281 18.835938 31.070312 C 18.648438 31.023438 18.496094 30.996094 18.496094 31.007812 M 49.085938 31.175781 C 49.214844 31.183594 49.410156 31.183594 49.515625 31.175781 C 49.617188 31.164062 49.511719 31.160156 49.277344 31.160156 C 49.042969 31.160156 48.957031 31.167969 49.085938 31.175781 M 50.328125 31.175781 C 50.433594 31.183594 50.605469 31.183594 50.710938 31.175781 C 50.816406 31.164062 50.730469 31.15625 50.519531 31.15625 C 50.308594 31.15625 50.21875 31.164062 50.328125 31.175781 M 39.945312 31.382812 C 39.835938 31.402344 39.820312 31.417969 39.902344 31.417969 C 39.972656 31.417969 40.105469 31.402344 40.199219 31.382812 C 40.308594 31.359375 40.324219 31.347656 40.242188 31.347656 C 40.171875 31.347656 40.039062 31.363281 39.945312 31.382812 M 53.515625 31.667969 C 53.515625 31.679688 53.65625 31.734375 53.828125 31.796875 C 54.003906 31.855469 54.117188 31.886719 54.085938 31.863281 C 54.015625 31.8125 53.515625 31.640625 53.515625 31.667969 M 31.746094 31.722656 C 31.851562 31.734375 32.007812 31.734375 32.089844 31.722656 C 32.171875 31.714844 32.082031 31.707031 31.894531 31.707031 C 31.707031 31.707031 31.640625 31.714844 31.746094 31.722656 M 36.285156 31.722656 C 36.390625 31.734375 36.5625 31.734375 36.667969 31.722656 C 36.773438 31.714844 36.6875 31.707031 36.476562 31.707031 C 36.265625 31.707031 36.175781 31.714844 36.285156 31.722656 M 32.691406 31.765625 C 32.890625 31.773438 33.199219 31.773438 33.375 31.761719 C 33.550781 31.753906 33.386719 31.75 33.007812 31.75 C 32.632812 31.75 32.488281 31.753906 32.691406 31.765625 M 34.957031 31.765625 C 35.183594 31.773438 35.53125 31.773438 35.730469 31.765625 C 35.929688 31.753906 35.742188 31.75 35.320312 31.75 C 34.898438 31.75 34.734375 31.753906 34.957031 31.765625 M 44.140625 31.796875 C 43.925781 31.84375 43.917969 31.847656 44.097656 31.828125 C 44.339844 31.800781 44.613281 31.738281 44.480469 31.738281 C 44.433594 31.738281 44.28125 31.765625 44.140625 31.796875 M 42.257812 32.089844 C 42.019531 32.132812 41.9375 32.15625 42.074219 32.144531 C 42.34375 32.121094 42.910156 32.015625 42.769531 32.015625 C 42.722656 32.015625 42.492188 32.050781 42.257812 32.089844 M 39.472656 32.460938 C 39.261719 32.488281 39.164062 32.511719 39.257812 32.511719 C 39.351562 32.511719 39.585938 32.488281 39.773438 32.460938 C 40.214844 32.394531 39.976562 32.394531 39.472656 32.460938 M 30.503906 32.703125 C 30.585938 32.710938 30.722656 32.710938 30.804688 32.703125 C 30.886719 32.691406 30.820312 32.683594 30.652344 32.683594 C 30.488281 32.683594 30.421875 32.691406 30.503906 32.703125 M 36.582031 32.703125 C 36.664062 32.710938 36.800781 32.710938 36.882812 32.703125 C 36.964844 32.691406 36.898438 32.683594 36.734375 32.683594 C 36.570312 32.683594 36.5 32.691406 36.582031 32.703125 M 31.53125 32.742188 C 31.660156 32.75 31.871094 32.75 32.003906 32.742188 C 32.132812 32.734375 32.027344 32.726562 31.765625 32.726562 C 31.507812 32.726562 31.402344 32.734375 31.53125 32.742188 M 35.300781 32.742188 C 35.429688 32.75 35.640625 32.75 35.769531 32.742188 C 35.898438 32.734375 35.792969 32.726562 35.535156 32.726562 C 35.277344 32.726562 35.167969 32.734375 35.300781 32.742188 "/>
<path style=" stroke:none;fill-rule:evenodd;fill:rgb(59.607846%,58.039218%,56.078434%);fill-opacity:1;" d="M 6.035156 0.214844 C 5.707031 0.285156 5.859375 0.285156 6.25 0.214844 C 6.414062 0.1875 6.492188 0.164062 6.421875 0.160156 C 6.351562 0.160156 6.179688 0.183594 6.035156 0.214844 M 4.773438 0.453125 C 4.550781 0.507812 4.367188 0.558594 4.367188 0.570312 C 4.367188 0.585938 5.214844 0.402344 5.300781 0.367188 C 5.40625 0.324219 5.128906 0.367188 4.773438 0.453125 M 3.339844 0.878906 C 3.082031 0.972656 2.597656 1.179688 2.269531 1.335938 C 1.714844 1.601562 1.734375 1.597656 2.484375 1.273438 C 2.929688 1.078125 3.429688 0.871094 3.597656 0.8125 C 3.761719 0.757812 3.875 0.707031 3.851562 0.707031 C 3.828125 0.707031 3.597656 0.78125 3.339844 0.878906 M 8.429688 0.839844 C 8.640625 0.917969 9.082031 0.917969 9.296875 0.839844 C 9.457031 0.78125 9.453125 0.78125 9.273438 0.820312 C 9.171875 0.84375 8.984375 0.863281 8.863281 0.863281 C 8.738281 0.863281 8.550781 0.84375 8.449219 0.820312 C 8.269531 0.78125 8.269531 0.78125 8.429688 0.839844 M 5.714844 0.941406 C 5.539062 0.984375 5.394531 1.03125 5.394531 1.039062 C 5.394531 1.058594 6.070312 0.914062 6.15625 0.875 C 6.257812 0.835938 6 0.875 5.714844 0.941406 M 49.214844 1.046875 C 49.320312 1.054688 49.472656 1.054688 49.554688 1.046875 C 49.636719 1.035156 49.550781 1.027344 49.363281 1.027344 C 49.175781 1.027344 49.105469 1.035156 49.214844 1.046875 M 50.226562 1.21875 C 50.363281 1.296875 50.492188 1.351562 50.515625 1.34375 C 50.535156 1.335938 50.421875 1.273438 50.261719 1.203125 L 49.972656 1.078125 L 50.226562 1.21875 M 4.582031 1.277344 L 4.324219 1.378906 L 4.601562 1.292969 C 4.753906 1.246094 4.878906 1.203125 4.878906 1.191406 C 4.878906 1.164062 4.84375 1.171875 4.582031 1.277344 M 47.878906 1.359375 L 47.480469 1.539062 L 47.90625 1.371094 C 48.144531 1.277344 48.351562 1.195312 48.371094 1.1875 C 48.390625 1.179688 48.378906 1.175781 48.34375 1.175781 C 48.308594 1.175781 48.101562 1.257812 47.878906 1.359375 M 41.828125 1.3125 C 42.035156 1.34375 42.816406 1.359375 42.710938 1.328125 C 42.648438 1.308594 42.40625 1.296875 42.171875 1.296875 C 41.933594 1.296875 41.78125 1.304688 41.828125 1.3125 M 21.6875 1.398438 C 21.816406 1.410156 22.007812 1.40625 22.113281 1.398438 C 22.21875 1.390625 22.113281 1.382812 21.878906 1.382812 C 21.640625 1.382812 21.554688 1.390625 21.6875 1.398438 M 3.789062 1.566406 C 3.46875 1.703125 3.363281 1.761719 3.449219 1.761719 C 3.464844 1.761719 3.644531 1.683594 3.851562 1.585938 C 4.320312 1.371094 4.28125 1.355469 3.789062 1.566406 M 22.347656 1.417969 C 23.183594 1.765625 23.328125 1.816406 22.992188 1.652344 C 22.800781 1.558594 22.570312 1.464844 22.476562 1.441406 C 22.382812 1.417969 22.324219 1.40625 22.347656 1.417969 M 32.175781 1.480469 C 32.027344 1.558594 31.765625 1.78125 31.769531 1.828125 C 31.773438 1.847656 31.855469 1.789062 31.953125 1.703125 C 32.050781 1.617188 32.1875 1.515625 32.261719 1.480469 C 32.332031 1.441406 32.375 1.410156 32.351562 1.410156 C 32.328125 1.410156 32.25 1.441406 32.175781 1.480469 M 40.535156 1.628906 L 40.199219 1.769531 L 40.566406 1.640625 C 40.898438 1.527344 40.976562 1.488281 40.898438 1.488281 C 40.882812 1.488281 40.722656 1.550781 40.535156 1.628906 M 50.628906 1.722656 C 50.628906 1.84375 50.644531 1.890625 50.664062 1.832031 C 50.683594 1.773438 50.683594 1.675781 50.664062 1.617188 C 50.644531 1.558594 50.628906 1.605469 50.628906 1.722656 M 133.210938 1.554688 C 133.316406 1.566406 133.492188 1.566406 133.597656 1.554688 C 133.703125 1.546875 133.617188 1.539062 133.402344 1.539062 C 133.191406 1.539062 133.105469 1.546875 133.210938 1.554688 M 134.367188 1.554688 C 134.449219 1.566406 134.585938 1.566406 134.667969 1.554688 C 134.75 1.546875 134.679688 1.535156 134.515625 1.535156 C 134.351562 1.535156 134.285156 1.546875 134.367188 1.554688 M 49.257812 1.609375 C 49.34375 1.632812 49.410156 1.699219 49.414062 1.773438 C 49.421875 1.847656 49.441406 1.871094 49.464844 1.828125 C 49.53125 1.710938 49.414062 1.566406 49.253906 1.570312 C 49.113281 1.570312 49.113281 1.570312 49.257812 1.609375 M 135.03125 1.605469 C 135.324219 1.648438 135.546875 1.648438 135.332031 1.605469 C 135.234375 1.585938 135.082031 1.574219 134.988281 1.574219 C 134.851562 1.574219 134.859375 1.582031 135.03125 1.605469 M 12.269531 1.707031 L 12.03125 1.808594 L 12.277344 1.726562 C 12.570312 1.628906 12.816406 1.625 13.101562 1.707031 L 13.316406 1.769531 L 13.113281 1.6875 C 12.839844 1.578125 12.5625 1.585938 12.269531 1.707031 M 131.820312 1.644531 L 131.648438 1.679688 L 131.820312 1.679688 C 131.914062 1.683594 132.046875 1.667969 132.121094 1.644531 C 132.289062 1.59375 132.074219 1.59375 131.820312 1.644531 M 27.621094 1.707031 C 27.527344 1.738281 27.496094 1.761719 27.550781 1.761719 C 27.601562 1.761719 27.671875 1.746094 27.699219 1.722656 C 27.808594 1.644531 28.492188 1.679688 28.636719 1.773438 C 28.710938 1.820312 28.769531 1.839844 28.769531 1.816406 C 28.769531 1.664062 27.960938 1.585938 27.621094 1.707031 M 37.808594 1.707031 C 37.71875 1.738281 37.679688 1.761719 37.726562 1.761719 C 37.773438 1.761719 37.847656 1.746094 37.894531 1.726562 C 37.9375 1.707031 38.089844 1.683594 38.230469 1.675781 L 38.488281 1.65625 L 38.230469 1.652344 C 38.089844 1.648438 37.898438 1.675781 37.808594 1.707031 M 135.628906 1.683594 C 135.628906 1.707031 135.660156 1.71875 135.695312 1.714844 C 135.78125 1.703125 136.171875 1.804688 136.246094 1.855469 C 136.277344 1.878906 136.328125 1.886719 136.359375 1.875 C 136.414062 1.847656 135.820312 1.644531 135.695312 1.644531 C 135.660156 1.644531 135.628906 1.664062 135.628906 1.683594 M 43.636719 1.859375 C 43.707031 2.003906 43.753906 2.035156 43.753906 1.9375 C 43.753906 1.894531 43.710938 1.835938 43.664062 1.800781 C 43.601562 1.757812 43.59375 1.773438 43.636719 1.859375 M 130.535156 1.824219 C 130.320312 1.871094 130.3125 1.875 130.492188 1.855469 C 130.734375 1.828125 131.007812 1.765625 130.878906 1.765625 C 130.832031 1.765625 130.675781 1.792969 130.535156 1.824219 M 1.113281 1.957031 C 1.011719 2.023438 0.949219 2.078125 0.972656 2.078125 C 0.996094 2.078125 1.097656 2.023438 1.199219 1.957031 C 1.300781 1.894531 1.363281 1.839844 1.339844 1.839844 C 1.316406 1.839844 1.214844 1.894531 1.113281 1.957031 M 2.988281 1.949219 C 2.714844 2.085938 2.539062 2.195312 2.582031 2.195312 C 2.601562 2.195312 2.761719 2.113281 2.941406 2.019531 C 3.292969 1.824219 3.324219 1.777344 2.988281 1.949219 M 48.292969 1.96875 C 48.199219 2.039062 48.121094 2.113281 48.121094 2.132812 C 48.121094 2.175781 48.132812 2.167969 48.359375 1.988281 C 48.585938 1.808594 48.527344 1.792969 48.292969 1.96875 M 17.394531 1.9375 C 17.476562 1.984375 17.554688 2.070312 17.574219 2.136719 L 17.613281 2.253906 L 17.625 2.132812 C 17.632812 2.050781 17.578125 1.988281 17.445312 1.9375 C 17.253906 1.863281 17.253906 1.863281 17.394531 1.9375 M 28.796875 2.136719 C 28.796875 2.285156 28.8125 2.34375 28.832031 2.261719 C 28.851562 2.179688 28.851562 2.058594 28.832031 1.988281 C 28.8125 1.917969 28.796875 1.984375 28.796875 2.136719 M 37.375 1.976562 C 37.277344 2.019531 36.777344 2.242188 36.261719 2.464844 C 35.742188 2.691406 35.457031 2.824219 35.621094 2.765625 C 36.058594 2.601562 37.617188 1.917969 37.578125 1.90625 C 37.5625 1.902344 37.46875 1.933594 37.375 1.976562 M 41.417969 1.980469 C 41.242188 2.035156 41.101562 2.089844 41.101562 2.097656 C 41.101562 2.109375 41.242188 2.074219 41.417969 2.019531 C 41.8125 1.898438 42.09375 1.890625 42.171875 2 C 42.203125 2.046875 42.246094 2.074219 42.269531 2.0625 C 42.292969 2.050781 42.269531 2.007812 42.21875 1.960938 C 42.089844 1.851562 41.808594 1.859375 41.417969 1.980469 M 59.660156 1.910156 L 62.503906 1.921875 L 62.550781 5.367188 L 62.550781 1.898438 L 56.8125 1.898438 L 59.660156 1.910156 M 14.640625 2.039062 L 14.34375 2.160156 L 14.683594 2.050781 C 14.875 1.992188 15.042969 1.9375 15.0625 1.929688 C 15.082031 1.925781 15.0625 1.917969 15.015625 1.917969 C 14.972656 1.917969 14.800781 1.972656 14.640625 2.039062 M 38.980469 2.039062 C 38.980469 2.113281 38.996094 2.144531 39.019531 2.105469 C 39.039062 2.066406 39.039062 2.007812 39.019531 1.96875 C 38.996094 1.929688 38.980469 1.960938 38.980469 2.039062 M 136.488281 1.945312 C 136.488281 1.96875 136.542969 2.007812 136.609375 2.035156 C 136.675781 2.0625 136.757812 2.136719 136.789062 2.199219 C 136.820312 2.265625 136.863281 2.308594 136.882812 2.300781 C 136.953125 2.269531 136.824219 2.097656 136.65625 2 C 136.5625 1.945312 136.488281 1.921875 136.488281 1.945312 M 24.679688 2.023438 C 24.765625 2.035156 24.898438 2.035156 24.980469 2.023438 C 25.0625 2.015625 24.996094 2.007812 24.832031 2.007812 C 24.667969 2.007812 24.597656 2.015625 24.679688 2.023438 M 25.796875 2.027344 C 25.925781 2.035156 26.117188 2.035156 26.222656 2.027344 C 26.328125 2.015625 26.222656 2.007812 25.988281 2.007812 C 25.75 2.007812 25.664062 2.015625 25.796875 2.027344 M 32.988281 2.136719 C 32.988281 2.222656 33.003906 2.253906 33.027344 2.203125 C 33.046875 2.15625 33.046875 2.085938 33.023438 2.046875 C 33.003906 2.007812 32.984375 2.050781 32.988281 2.136719 M 19.265625 2.234375 C 19.164062 2.296875 19.101562 2.351562 19.125 2.351562 C 19.148438 2.351562 19.25 2.296875 19.351562 2.234375 C 19.453125 2.167969 19.515625 2.117188 19.492188 2.117188 C 19.46875 2.117188 19.367188 2.167969 19.265625 2.234375 M 20.71875 2.320312 C 20.558594 2.414062 20.496094 2.464844 20.578125 2.433594 C 20.734375 2.375 21.101562 2.15625 21.042969 2.15625 C 21.023438 2.15625 20.875 2.230469 20.71875 2.320312 M 22.367188 2.214844 C 22.398438 2.238281 22.464844 2.300781 22.511719 2.351562 C 22.5625 2.414062 22.597656 2.425781 22.597656 2.382812 C 22.601562 2.347656 22.539062 2.285156 22.457031 2.246094 C 22.371094 2.203125 22.332031 2.191406 22.367188 2.214844 M 0.636719 2.316406 C 0.5625 2.382812 0.515625 2.445312 0.535156 2.453125 C 0.554688 2.460938 0.632812 2.40625 0.710938 2.332031 C 0.886719 2.160156 0.824219 2.148438 0.636719 2.316406 M 40.585938 2.292969 C 40.476562 2.347656 40.421875 2.390625 40.464844 2.386719 C 40.539062 2.386719 40.890625 2.195312 40.820312 2.195312 C 40.800781 2.195312 40.695312 2.238281 40.585938 2.292969 M 48.632812 2.417969 L 48.164062 2.644531 L 48.65625 2.429688 C 48.925781 2.3125 49.148438 2.210938 49.148438 2.207031 C 49.148438 2.175781 49.066406 2.210938 48.632812 2.417969 M 27.007812 2.320312 L 26.84375 2.410156 L 27.03125 2.335938 L 27.21875 2.265625 L 27.25 2.492188 L 27.28125 2.722656 L 27.296875 2.476562 C 27.316406 2.214844 27.261719 2.183594 27.007812 2.320312 M 52.832031 2.632812 C 52.335938 2.851562 52.164062 2.941406 52.445312 2.832031 C 52.949219 2.636719 53.847656 2.230469 53.769531 2.234375 C 53.746094 2.234375 53.324219 2.414062 52.832031 2.632812 M 7.328125 2.332031 C 7.253906 2.367188 7.195312 2.433594 7.199219 2.480469 C 7.207031 2.558594 7.214844 2.558594 7.269531 2.46875 C 7.300781 2.414062 7.421875 2.347656 7.539062 2.320312 C 7.683594 2.289062 7.707031 2.273438 7.605469 2.273438 C 7.527344 2.273438 7.402344 2.300781 7.328125 2.332031 M 17.441406 2.296875 C 17.414062 2.308594 17.261719 2.335938 17.109375 2.351562 C 16.863281 2.378906 16.855469 2.382812 17.042969 2.386719 C 17.164062 2.386719 17.339844 2.363281 17.429688 2.332031 C 17.519531 2.300781 17.574219 2.273438 17.546875 2.273438 C 17.519531 2.273438 17.472656 2.28125 17.441406 2.296875 M 43.671875 2.332031 C 43.667969 2.375 43.589844 2.484375 43.5 2.578125 C 43.40625 2.671875 43.367188 2.734375 43.40625 2.722656 C 43.527344 2.691406 43.777344 2.363281 43.726562 2.304688 C 43.699219 2.273438 43.679688 2.285156 43.671875 2.332031 M 49.625 2.578125 C 49.128906 2.832031 49.105469 2.847656 49.480469 2.683594 C 49.871094 2.515625 50.332031 2.269531 50.246094 2.273438 C 50.230469 2.273438 49.953125 2.410156 49.625 2.578125 M 128.351562 2.390625 C 128.1875 2.453125 128.082031 2.507812 128.117188 2.507812 C 128.148438 2.507812 128.246094 2.480469 128.328125 2.449219 C 128.414062 2.417969 128.558594 2.363281 128.652344 2.332031 C 128.746094 2.300781 128.785156 2.273438 128.738281 2.273438 C 128.691406 2.273438 128.515625 2.328125 128.351562 2.390625 M 8.476562 2.324219 C 8.476562 2.328125 8.601562 2.378906 8.753906 2.429688 C 8.925781 2.488281 8.988281 2.496094 8.914062 2.453125 C 8.796875 2.390625 8.476562 2.292969 8.476562 2.324219 M 42.222656 2.4375 C 42.21875 2.472656 42.191406 2.535156 42.164062 2.574219 C 42.117188 2.640625 42.121094 2.640625 42.210938 2.574219 C 42.265625 2.535156 42.292969 2.476562 42.273438 2.4375 C 42.238281 2.378906 42.230469 2.375 42.222656 2.4375 M 30.972656 2.644531 C 30.84375 2.761719 30.757812 2.859375 30.78125 2.859375 C 30.839844 2.859375 31.269531 2.464844 31.234375 2.445312 C 31.214844 2.4375 31.097656 2.527344 30.972656 2.644531 M 40.199219 2.484375 C 40.152344 2.515625 40.027344 2.59375 39.917969 2.660156 C 39.625 2.839844 39.730469 2.808594 40.101562 2.605469 C 40.277344 2.507812 40.390625 2.429688 40.355469 2.429688 C 40.316406 2.429688 40.246094 2.453125 40.199219 2.484375 M 22.628906 2.625 C 22.628906 2.722656 22.644531 2.761719 22.664062 2.714844 C 22.6875 2.664062 22.6875 2.585938 22.664062 2.535156 C 22.644531 2.488281 22.628906 2.527344 22.628906 2.625 M 28.648438 2.628906 C 28.617188 2.71875 28.609375 2.800781 28.628906 2.808594 C 28.652344 2.820312 28.695312 2.753906 28.726562 2.664062 C 28.761719 2.574219 28.769531 2.492188 28.746094 2.484375 C 28.726562 2.472656 28.679688 2.539062 28.648438 2.628906 M 14.804688 2.707031 L 14.429688 2.867188 L 14.835938 2.71875 C 15.058594 2.636719 15.242188 2.5625 15.242188 2.558594 C 15.242188 2.527344 15.148438 2.558594 14.804688 2.707031 M 47.789062 2.636719 C 47.777344 2.757812 47.875 2.773438 48.046875 2.675781 C 48.152344 2.613281 48.148438 2.609375 48.019531 2.65625 C 47.898438 2.699219 47.871094 2.695312 47.839844 2.617188 C 47.804688 2.535156 47.800781 2.539062 47.789062 2.636719 M 53.808594 2.691406 C 53.679688 2.769531 53.613281 2.820312 53.667969 2.808594 C 53.777344 2.777344 54.148438 2.546875 54.089844 2.546875 C 54.066406 2.546875 53.941406 2.613281 53.808594 2.691406 M 127.710938 2.625 C 127.625 2.667969 127.574219 2.710938 127.597656 2.722656 C 127.621094 2.734375 127.710938 2.707031 127.796875 2.664062 C 127.882812 2.621094 127.933594 2.578125 127.910156 2.566406 C 127.886719 2.554688 127.796875 2.582031 127.710938 2.625 M 7.269531 2.695312 C 7.238281 2.773438 7.253906 2.808594 7.300781 2.789062 C 7.34375 2.769531 7.363281 2.710938 7.347656 2.660156 C 7.320312 2.582031 7.308594 2.585938 7.269531 2.695312 M 8.867188 2.84375 C 8.746094 2.964844 8.648438 3.078125 8.652344 3.089844 C 8.65625 3.121094 8.894531 2.917969 9.046875 2.753906 C 9.242188 2.539062 9.105469 2.609375 8.867188 2.84375 M 20.144531 2.675781 C 20.023438 2.742188 19.851562 2.898438 19.898438 2.898438 C 19.917969 2.898438 20.011719 2.835938 20.109375 2.761719 C 20.289062 2.625 20.304688 2.582031 20.144531 2.675781 M 36.730469 2.890625 L 36.175781 3.152344 L 37.324219 2.652344 L 37.386719 3.152344 L 37.402344 2.890625 C 37.410156 2.742188 37.386719 2.625 37.351562 2.625 C 37.316406 2.625 37.035156 2.742188 36.730469 2.890625 M 12.953125 2.859375 C 12.90625 2.96875 12.902344 3.066406 12.941406 3.078125 C 12.980469 3.089844 13.015625 3.085938 13.019531 3.066406 C 13.019531 3.050781 13.039062 2.953125 13.058594 2.851562 C 13.105469 2.609375 13.058594 2.613281 12.953125 2.859375 M 43.820312 2.746094 C 43.640625 2.789062 43.496094 2.832031 43.496094 2.84375 C 43.496094 2.851562 43.652344 2.824219 43.839844 2.78125 C 44.027344 2.738281 44.183594 2.691406 44.183594 2.683594 C 44.183594 2.65625 44.183594 2.65625 43.820312 2.746094 M 46.429688 2.820312 C 46.429688 2.894531 46.445312 2.925781 46.46875 2.890625 C 46.488281 2.851562 46.488281 2.789062 46.46875 2.753906 C 46.445312 2.714844 46.429688 2.746094 46.429688 2.820312 M 136.796875 2.835938 C 136.765625 2.890625 136.71875 2.964844 136.6875 3.003906 C 136.648438 3.054688 136.660156 3.0625 136.722656 3.035156 C 136.816406 2.996094 136.957031 2.742188 136.886719 2.742188 C 136.867188 2.742188 136.824219 2.785156 136.796875 2.835938 M 11.667969 2.917969 C 11.667969 3.003906 11.683594 3.035156 11.707031 2.988281 C 11.726562 2.9375 11.726562 2.867188 11.703125 2.832031 C 11.683594 2.792969 11.664062 2.832031 11.667969 2.917969 M 127.144531 2.910156 C 126.894531 3.054688 126.785156 3.132812 126.832031 3.132812 C 126.894531 3.132812 127.429688 2.816406 127.394531 2.800781 C 127.375 2.792969 127.261719 2.84375 127.144531 2.910156 M 6.679688 3.082031 C 6.464844 3.183594 6.402344 3.230469 6.535156 3.183594 C 6.75 3.109375 7.160156 2.898438 7.09375 2.898438 C 7.078125 2.898438 6.890625 2.980469 6.679688 3.082031 M 31.824219 2.929688 C 31.789062 2.953125 31.804688 2.984375 31.851562 2.996094 C 31.898438 3.011719 31.941406 3.058594 31.949219 3.105469 C 31.953125 3.160156 31.972656 3.171875 31.992188 3.132812 C 32.042969 3.046875 31.898438 2.875 31.824219 2.929688 M 52.617188 3.28125 C 52.144531 3.492188 51.914062 3.605469 52.101562 3.539062 C 52.445312 3.414062 53.589844 2.898438 53.511719 2.902344 C 53.492188 2.902344 53.085938 3.074219 52.617188 3.28125 M 1.816406 3.195312 C 1.800781 3.441406 1.820312 3.484375 1.992188 3.550781 C 2.183594 3.625 2.183594 3.625 2.039062 3.542969 C 1.941406 3.492188 1.882812 3.375 1.863281 3.191406 L 1.832031 2.917969 L 1.816406 3.195312 M 41.402344 3.125 C 41.21875 3.226562 41.15625 3.273438 41.265625 3.230469 C 41.457031 3.15625 41.828125 2.9375 41.765625 2.9375 C 41.75 2.9375 41.585938 3.023438 41.402344 3.125 M 44.847656 3.019531 C 44.667969 3.0625 44.523438 3.105469 44.523438 3.117188 C 44.523438 3.128906 44.679688 3.101562 44.867188 3.054688 C 45.054688 3.011719 45.210938 2.96875 45.210938 2.957031 C 45.210938 2.929688 45.210938 2.933594 44.847656 3.019531 M 48.507812 3.039062 L 48.25 3.140625 L 48.527344 3.054688 C 48.679688 3.011719 48.804688 2.964844 48.804688 2.957031 C 48.804688 2.925781 48.769531 2.9375 48.507812 3.039062 M 33.222656 2.988281 C 33.222656 3.046875 33.5 3.210938 33.597656 3.210938 C 33.664062 3.210938 33.664062 3.203125 33.601562 3.183594 C 33.554688 3.167969 33.445312 3.109375 33.367188 3.058594 C 33.289062 3.003906 33.222656 2.972656 33.222656 2.988281 M 51.546875 3.140625 C 51.246094 3.257812 51.246094 3.257812 51.523438 3.175781 C 51.675781 3.128906 51.820312 3.074219 51.847656 3.054688 C 51.929688 2.992188 51.863281 3.011719 51.546875 3.140625 M 39.085938 3.210938 C 39.015625 3.277344 38.972656 3.332031 38.996094 3.332031 C 39.019531 3.332031 39.101562 3.277344 39.171875 3.210938 C 39.246094 3.148438 39.289062 3.09375 39.261719 3.09375 C 39.238281 3.09375 39.160156 3.148438 39.085938 3.210938 M 33.992188 3.171875 C 33.816406 3.199219 33.808594 3.207031 33.949219 3.207031 C 34.042969 3.210938 34.179688 3.195312 34.25 3.171875 C 34.398438 3.128906 34.296875 3.128906 33.992188 3.171875 M 35.746094 3.265625 C 35.554688 3.332031 35.304688 3.421875 35.191406 3.460938 C 34.984375 3.527344 34.988281 3.527344 35.265625 3.460938 C 35.53125 3.394531 36.230469 3.136719 36.132812 3.140625 C 36.109375 3.140625 35.9375 3.195312 35.746094 3.265625 M 11.585938 3.371094 C 11.585938 3.488281 11.601562 3.535156 11.621094 3.476562 C 11.640625 3.417969 11.640625 3.320312 11.621094 3.261719 C 11.601562 3.203125 11.585938 3.25 11.585938 3.371094 M 13.695312 3.375 C 13.597656 3.460938 13.53125 3.539062 13.550781 3.546875 C 13.566406 3.558594 13.664062 3.484375 13.769531 3.386719 C 14 3.167969 13.9375 3.15625 13.695312 3.375 M 21.75 3.390625 C 21.539062 3.484375 21.390625 3.566406 21.414062 3.566406 C 21.4375 3.566406 21.625 3.484375 21.835938 3.390625 C 22.042969 3.292969 22.191406 3.210938 22.167969 3.210938 C 22.144531 3.210938 21.957031 3.292969 21.75 3.390625 M 126.480469 3.347656 C 126.382812 3.425781 126.316406 3.488281 126.335938 3.488281 C 126.402344 3.488281 126.742188 3.246094 126.703125 3.226562 C 126.679688 3.21875 126.582031 3.273438 126.480469 3.347656 M 136.246094 3.460938 C 136.089844 3.59375 136.027344 3.667969 136.101562 3.625 C 136.273438 3.53125 136.59375 3.25 136.554688 3.230469 C 136.539062 3.222656 136.402344 3.328125 136.246094 3.460938 M 5.695312 3.390625 C 5.410156 3.464844 5.210938 3.523438 5.246094 3.523438 C 5.359375 3.527344 6.148438 3.335938 6.207031 3.292969 C 6.273438 3.242188 6.304688 3.234375 5.695312 3.390625 M 19.546875 3.429688 C 19.546875 3.535156 19.5625 3.574219 19.582031 3.515625 C 19.605469 3.457031 19.601562 3.367188 19.582031 3.320312 C 19.5625 3.273438 19.546875 3.320312 19.546875 3.429688 M 23.210938 3.453125 C 23.058594 3.566406 22.988281 3.636719 23.050781 3.613281 C 23.171875 3.566406 23.582031 3.25 23.523438 3.25 C 23.503906 3.25 23.363281 3.34375 23.210938 3.453125 M 50.925781 3.3125 C 50.605469 3.394531 50.625 3.425781 50.945312 3.351562 C 51.089844 3.316406 51.203125 3.28125 51.203125 3.269531 C 51.203125 3.246094 51.195312 3.246094 50.925781 3.3125 M 8.265625 3.421875 C 8.199219 3.492188 8.125 3.601562 8.097656 3.664062 C 8.042969 3.792969 8.078125 3.761719 8.308594 3.476562 C 8.480469 3.265625 8.445312 3.222656 8.265625 3.421875 M 31.082031 3.449219 C 30.980469 3.511719 30.917969 3.566406 30.941406 3.566406 C 30.964844 3.566406 31.066406 3.511719 31.167969 3.449219 C 31.269531 3.382812 31.332031 3.332031 31.308594 3.332031 C 31.285156 3.332031 31.183594 3.382812 31.082031 3.449219 M 29.582031 3.46875 C 29.425781 3.53125 29.394531 3.554688 29.503906 3.53125 C 29.664062 3.496094 29.953125 3.367188 29.871094 3.371094 C 29.855469 3.371094 29.722656 3.414062 29.582031 3.46875 M 40.199219 3.425781 C 39.871094 3.496094 40.023438 3.496094 40.414062 3.429688 C 40.578125 3.398438 40.65625 3.375 40.585938 3.375 C 40.515625 3.375 40.34375 3.398438 40.199219 3.425781 M 18.089844 3.546875 C 18.089844 3.632812 18.105469 3.664062 18.128906 3.613281 C 18.148438 3.566406 18.148438 3.496094 18.125 3.457031 C 18.105469 3.417969 18.085938 3.460938 18.089844 3.546875 M 37.269531 3.605469 C 37.269531 3.703125 37.285156 3.742188 37.308594 3.691406 C 37.328125 3.644531 37.328125 3.566406 37.308594 3.515625 C 37.285156 3.46875 37.269531 3.507812 37.269531 3.605469 M 39.480469 3.589844 C 39.28125 3.664062 39.21875 3.71875 39.226562 3.8125 L 39.238281 3.9375 L 39.292969 3.800781 C 39.328125 3.707031 39.429688 3.640625 39.636719 3.578125 C 39.796875 3.527344 39.886719 3.488281 39.835938 3.488281 C 39.785156 3.488281 39.625 3.53125 39.480469 3.589844 M 20.933594 3.667969 C 20.746094 3.71875 20.632812 3.761719 20.679688 3.761719 C 20.78125 3.761719 21.320312 3.613281 21.320312 3.585938 C 21.320312 3.558594 21.339844 3.554688 20.933594 3.667969 M 28.34375 3.589844 C 28.339844 3.65625 28.574219 3.734375 28.703125 3.710938 C 28.773438 3.695312 28.761719 3.6875 28.667969 3.6875 C 28.585938 3.683594 28.480469 3.652344 28.433594 3.613281 C 28.386719 3.578125 28.347656 3.566406 28.34375 3.589844 M 32.453125 3.617188 C 32.453125 3.664062 33.042969 3.800781 33.234375 3.796875 C 33.40625 3.792969 33.398438 3.789062 33.179688 3.765625 C 33.035156 3.75 32.8125 3.703125 32.683594 3.664062 C 32.558594 3.628906 32.453125 3.605469 32.453125 3.617188 M 30.4375 3.808594 L 30.097656 3.976562 L 30.460938 3.820312 C 30.660156 3.738281 30.824219 3.660156 30.824219 3.65625 C 30.824219 3.625 30.75 3.65625 30.4375 3.808594 M 51.390625 3.738281 C 50.996094 3.867188 50.9375 3.902344 51.273438 3.816406 C 51.429688 3.773438 51.601562 3.71875 51.648438 3.691406 C 51.773438 3.625 51.714844 3.632812 51.390625 3.738281 M 11.5 3.859375 C 11.5 3.96875 11.515625 4.007812 11.535156 3.945312 C 11.554688 3.886719 11.554688 3.800781 11.535156 3.75 C 11.515625 3.703125 11.496094 3.75 11.5 3.859375 M 0.257812 3.746094 C 0.257812 3.769531 0.363281 3.828125 0.492188 3.882812 L 0.726562 3.976562 L 0.515625 3.859375 C 0.394531 3.792969 0.289062 3.734375 0.277344 3.726562 C 0.265625 3.714844 0.257812 3.726562 0.257812 3.746094 M 3.191406 3.75 C 3.320312 3.757812 3.511719 3.757812 3.617188 3.75 C 3.722656 3.742188 3.617188 3.734375 3.382812 3.734375 C 3.148438 3.734375 3.0625 3.742188 3.191406 3.75 M 6.496094 3.828125 C 6.390625 3.890625 6.394531 3.894531 6.519531 3.847656 C 6.636719 3.804688 6.671875 3.804688 6.707031 3.847656 C 6.734375 3.878906 6.753906 3.875 6.757812 3.828125 C 6.761719 3.792969 6.730469 3.761719 6.6875 3.761719 C 6.648438 3.761719 6.5625 3.792969 6.496094 3.828125 M 20.015625 3.789062 C 20.121094 3.796875 20.277344 3.796875 20.359375 3.789062 C 20.441406 3.777344 20.351562 3.769531 20.164062 3.769531 C 19.976562 3.773438 19.910156 3.78125 20.015625 3.789062 M 125.917969 3.902344 C 125.886719 3.957031 125.878906 4.011719 125.898438 4.023438 C 125.917969 4.03125 125.960938 3.992188 125.992188 3.933594 C 126.023438 3.878906 126.03125 3.824219 126.011719 3.8125 C 125.992188 3.804688 125.949219 3.84375 125.917969 3.902344 M 27.058594 3.941406 C 27.058594 3.960938 27.15625 4.03125 27.277344 4.09375 L 27.5 4.210938 L 27.304688 4.074219 C 27.058594 3.898438 27.058594 3.898438 27.058594 3.941406 M 37.183594 4.09375 C 37.183594 4.179688 37.203125 4.210938 37.222656 4.164062 C 37.242188 4.113281 37.242188 4.042969 37.21875 4.003906 C 37.199219 3.96875 37.183594 4.007812 37.183594 4.09375 M 39.511719 4.054688 C 39.601562 4.085938 39.738281 4.113281 39.808594 4.109375 C 39.925781 4.109375 39.925781 4.105469 39.816406 4.085938 C 39.746094 4.074219 39.609375 4.046875 39.515625 4.027344 C 39.347656 3.992188 39.347656 3.992188 39.511719 4.054688 M 40.371094 4.078125 C 40.136719 4.117188 40.011719 4.148438 40.097656 4.152344 C 40.269531 4.152344 40.84375 4.050781 40.84375 4.019531 C 40.84375 4.007812 40.832031 4 40.820312 4 C 40.808594 4.003906 40.609375 4.039062 40.371094 4.078125 M 0.902344 4.078125 C 0.960938 4.121094 1.460938 4.242188 1.5 4.222656 C 1.515625 4.214844 1.378906 4.171875 1.191406 4.125 C 1.007812 4.078125 0.875 4.058594 0.902344 4.078125 M 21.492188 4.136719 C 21.234375 4.1875 21.078125 4.230469 21.148438 4.230469 C 21.300781 4.230469 22.003906 4.089844 22.003906 4.058594 C 22.003906 4.046875 21.996094 4.039062 21.984375 4.039062 C 21.972656 4.042969 21.75 4.085938 21.492188 4.136719 M 49.664062 4.117188 C 49.386719 4.164062 49.300781 4.1875 49.460938 4.175781 C 49.726562 4.15625 50.386719 4.042969 50.21875 4.042969 C 50.171875 4.042969 49.921875 4.078125 49.664062 4.117188 M 18.496094 4.089844 C 18.496094 4.113281 19.144531 4.308594 19.226562 4.308594 C 19.273438 4.308594 19.1875 4.277344 19.039062 4.234375 C 18.890625 4.191406 18.746094 4.140625 18.714844 4.117188 C 18.660156 4.078125 18.496094 4.054688 18.496094 4.089844 M 48.527344 4.21875 C 48.636719 4.230469 48.789062 4.230469 48.871094 4.21875 C 48.953125 4.210938 48.867188 4.203125 48.679688 4.203125 C 48.488281 4.203125 48.421875 4.210938 48.527344 4.21875 M 7.707031 4.367188 C 7.707031 4.441406 7.734375 4.507812 7.773438 4.519531 C 7.808594 4.53125 7.824219 4.46875 7.804688 4.386719 C 7.765625 4.195312 7.707031 4.183594 7.707031 4.367188 M 28.0625 4.296875 C 28.167969 4.308594 28.34375 4.308594 28.449219 4.296875 C 28.554688 4.289062 28.46875 4.28125 28.257812 4.28125 C 28.042969 4.28125 27.957031 4.289062 28.0625 4.296875 M 12.9375 4.355469 C 12.933594 4.394531 12.84375 4.449219 12.738281 4.484375 C 12.632812 4.515625 12.589844 4.542969 12.640625 4.542969 C 12.785156 4.542969 13.035156 4.398438 12.988281 4.339844 C 12.957031 4.308594 12.941406 4.3125 12.9375 4.355469 M 19.585938 4.335938 C 19.695312 4.347656 19.847656 4.347656 19.929688 4.335938 C 20.011719 4.328125 19.925781 4.320312 19.738281 4.320312 C 19.546875 4.320312 19.480469 4.328125 19.585938 4.335938 M 3.445312 4.375 C 3.527344 4.386719 3.664062 4.386719 3.746094 4.375 C 3.828125 4.367188 3.761719 4.359375 3.597656 4.359375 C 3.429688 4.359375 3.363281 4.367188 3.445312 4.375 M 11.648438 4.378906 C 11.644531 4.472656 11.980469 4.585938 12.265625 4.578125 L 12.542969 4.574219 L 12.222656 4.546875 C 11.867188 4.515625 11.882812 4.519531 11.746094 4.40625 C 11.691406 4.363281 11.648438 4.351562 11.648438 4.378906 M 125.789062 4.542969 C 125.789062 4.617188 126.023438 4.855469 126.03125 4.792969 C 126.035156 4.769531 125.984375 4.691406 125.914062 4.617188 C 125.847656 4.546875 125.789062 4.511719 125.789062 4.542969 M 38.476562 4.917969 C 38.476562 5.109375 38.488281 5.195312 38.507812 5.105469 C 38.527344 5.011719 38.527344 4.855469 38.507812 4.75 C 38.492188 4.648438 38.476562 4.722656 38.476562 4.917969 M 7.710938 4.816406 C 7.660156 4.859375 7.539062 4.902344 7.441406 4.917969 C 7.34375 4.933594 7.285156 4.953125 7.308594 4.964844 C 7.378906 4.996094 7.695312 4.898438 7.792969 4.816406 C 7.84375 4.777344 7.863281 4.742188 7.839844 4.742188 C 7.816406 4.742188 7.757812 4.773438 7.710938 4.816406 M 126.125 4.890625 C 126.125 4.933594 126.453125 5.066406 126.769531 5.152344 L 127.023438 5.21875 L 126.8125 5.136719 C 126.691406 5.09375 126.574219 5.054688 126.546875 5.054688 C 126.519531 5.054688 126.453125 5.011719 126.398438 4.957031 C 126.304688 4.863281 126.125 4.820312 126.125 4.890625 M 132.636719 4.894531 C 132.566406 4.914062 132.53125 4.941406 132.558594 4.953125 C 132.625 4.984375 132.890625 4.9375 132.890625 4.894531 C 132.890625 4.847656 132.796875 4.847656 132.636719 4.894531 M 120.925781 4.925781 C 121.054688 4.933594 121.265625 4.933594 121.394531 4.925781 C 121.523438 4.917969 121.417969 4.910156 121.160156 4.910156 C 120.902344 4.910156 120.792969 4.917969 120.925781 4.925781 M 36.925781 5.09375 C 36.925781 5.167969 36.941406 5.199219 36.964844 5.160156 C 36.984375 5.125 36.984375 5.0625 36.964844 5.023438 C 36.941406 4.988281 36.925781 5.019531 36.925781 5.09375 M 131.949219 5.074219 C 131.667969 5.148438 131.765625 5.148438 132.132812 5.074219 C 132.289062 5.042969 132.359375 5.019531 132.289062 5.019531 C 132.21875 5.019531 132.066406 5.042969 131.949219 5.074219 M 122.914062 5.082031 C 123.132812 5.175781 123.671875 5.335938 123.542969 5.265625 C 123.460938 5.226562 123.269531 5.15625 123.113281 5.117188 C 122.957031 5.078125 122.867188 5.058594 122.914062 5.082031 M 118.226562 5.234375 C 118.003906 5.285156 117.820312 5.339844 117.820312 5.347656 C 117.820312 5.367188 118.667969 5.183594 118.753906 5.148438 C 118.859375 5.101562 118.582031 5.148438 118.226562 5.234375 M 128.460938 5.355469 C 128.6875 5.367188 129.035156 5.363281 129.230469 5.355469 C 129.429688 5.347656 129.246094 5.34375 128.824219 5.34375 C 128.398438 5.34375 128.238281 5.347656 128.460938 5.355469 M 117.085938 5.613281 L 116.835938 5.738281 L 117.113281 5.625 C 117.371094 5.515625 117.429688 5.484375 117.363281 5.484375 C 117.351562 5.484375 117.226562 5.542969 117.085938 5.613281 M 123.90625 5.597656 C 123.964844 5.671875 123.988281 5.847656 123.964844 6.027344 C 123.933594 6.242188 123.945312 6.300781 124.003906 6.230469 C 124.113281 6.097656 124.050781 5.578125 123.917969 5.515625 C 123.832031 5.476562 123.828125 5.492188 123.90625 5.597656 M 116.476562 5.886719 C 116.308594 5.972656 115.933594 6.230469 116.039062 6.191406 C 116.121094 6.160156 116.707031 5.796875 116.679688 5.796875 C 116.664062 5.796875 116.574219 5.839844 116.476562 5.886719 M 115.507812 7.230469 C 115.511719 7.273438 115.550781 7.332031 115.597656 7.367188 C 115.660156 7.410156 115.667969 7.394531 115.628906 7.308594 C 115.558594 7.164062 115.507812 7.132812 115.507812 7.230469 M 115.765625 7.535156 C 115.765625 7.542969 115.890625 7.597656 116.042969 7.660156 L 116.320312 7.777344 L 116.070312 7.648438 C 115.835938 7.53125 115.765625 7.503906 115.765625 7.535156 M 121.246094 7.679688 C 120.984375 7.742188 120.804688 7.792969 120.839844 7.792969 C 120.933594 7.796875 121.757812 7.605469 121.757812 7.582031 C 121.757812 7.554688 121.769531 7.550781 121.246094 7.679688 M 77.191406 7.707031 C 80.460938 7.734375 83.226562 7.734375 83.226562 7.707031 C 83.226562 7.691406 81.582031 7.683594 79.566406 7.6875 C 77.554688 7.691406 76.484375 7.703125 77.191406 7.707031 M 75.390625 7.925781 L 74.964844 8.128906 L 75.414062 7.933594 C 75.832031 7.753906 75.902344 7.71875 75.839844 7.71875 C 75.824219 7.71875 75.625 7.8125 75.390625 7.925781 M 82.027344 8.257812 L 81.300781 8.601562 L 82.050781 8.269531 C 82.460938 8.085938 82.800781 7.929688 82.800781 7.925781 C 82.800781 7.894531 82.699219 7.9375 82.027344 8.257812 M 79.15625 9.53125 L 78.816406 9.695312 L 79.183594 9.542969 C 79.519531 9.398438 79.585938 9.363281 79.519531 9.363281 C 79.507812 9.363281 79.34375 9.4375 79.15625 9.53125 M 30.589844 11.46875 C 30.671875 11.476562 30.808594 11.476562 30.890625 11.46875 C 30.972656 11.457031 30.902344 11.449219 30.738281 11.449219 C 30.574219 11.449219 30.507812 11.457031 30.589844 11.46875 M 32.859375 12.488281 C 33.058594 12.496094 33.386719 12.496094 33.585938 12.488281 C 33.785156 12.480469 33.621094 12.472656 33.222656 12.472656 C 32.820312 12.472656 32.660156 12.480469 32.859375 12.488281 M 20.359375 12.753906 C 20.023438 12.839844 20.0625 12.867188 20.398438 12.789062 C 20.722656 12.710938 20.78125 12.695312 20.671875 12.695312 C 20.628906 12.695312 20.488281 12.722656 20.359375 12.753906 M 24.1875 14.035156 L 23.675781 14.28125 L 24.210938 14.046875 C 24.707031 13.828125 24.785156 13.792969 24.722656 13.792969 C 24.707031 13.792969 24.46875 13.902344 24.1875 14.035156 M 13.738281 14.9375 L 13.484375 15.0625 L 13.765625 14.949219 C 13.917969 14.886719 14.042969 14.828125 14.042969 14.820312 C 14.042969 14.792969 13.972656 14.816406 13.738281 14.9375 M 56.109375 20.273438 C 56.113281 20.40625 56.128906 20.453125 56.144531 20.382812 C 56.164062 20.3125 56.164062 20.207031 56.144531 20.148438 C 56.125 20.089844 56.109375 20.144531 56.109375 20.273438 M 19.472656 21.921875 C 19.472656 22.308594 19.484375 22.460938 19.5 22.261719 C 19.515625 22.0625 19.515625 21.742188 19.5 21.554688 C 19.484375 21.367188 19.472656 21.53125 19.472656 21.921875 M 7.136719 21.902344 C 7.136719 22.0625 7.152344 22.128906 7.167969 22.046875 C 7.1875 21.96875 7.1875 21.835938 7.167969 21.753906 C 7.152344 21.671875 7.136719 21.738281 7.136719 21.902344 M 7.136719 22.566406 C 7.136719 22.730469 7.152344 22.792969 7.167969 22.714844 C 7.1875 22.632812 7.1875 22.5 7.167969 22.421875 C 7.152344 22.339844 7.136719 22.40625 7.136719 22.566406 M 13.441406 29.246094 C 13.890625 29.453125 14.273438 29.621094 14.296875 29.621094 C 14.320312 29.621094 13.972656 29.453125 13.527344 29.246094 C 13.082031 29.042969 12.699219 28.875 12.675781 28.875 C 12.652344 28.875 12.996094 29.042969 13.441406 29.246094 M 19.78125 31.324219 C 19.78125 31.351562 20.304688 31.46875 20.34375 31.449219 C 20.359375 31.441406 20.242188 31.40625 20.078125 31.371094 C 19.914062 31.335938 19.78125 31.3125 19.78125 31.324219 "/>
</g>
</svg>
