<svg id="svg" version="1.1" xmlns="http://www.w3.org/2000/svg" xmlns:xlink="http://www.w3.org/1999/xlink" width="400" height="267.75" viewBox="0, 0, 400,267.75"><g id="svgg"><path id="path0" d="M201.017 1.218 C 200.350 2.464,199.541 7.919,198.484 18.285 C 197.690 26.079,197.529 26.798,196.376 27.705 C 195.579 28.332,191.894 30.234,189.750 31.125 C 187.814 31.930,185.857 32.812,184.063 33.690 L 182.750 34.331 182.750 61.291 C 182.750 76.118,182.782 88.250,182.821 88.250 C 182.891 88.250,189.769 81.335,207.511 63.428 C 217.357 53.490,216.690 54.281,216.157 53.158 C 214.690 50.066,213.035 50.445,210.937 54.353 C 207.523 60.713,206.135 53.786,203.752 18.500 C 202.762 3.844,202.043 -0.699,201.017 1.218 M386.875 10.217 C 386.188 10.404,385.169 10.587,384.612 10.623 C 384.055 10.659,382.975 10.984,382.213 11.344 C 381.450 11.705,380.588 12.000,380.296 12.000 C 379.906 12.000,379.808 12.109,379.924 12.412 C 380.055 12.754,379.967 12.796,379.416 12.658 C 379.021 12.558,378.750 12.594,378.750 12.745 C 378.750 12.885,378.590 13.000,378.394 13.000 C 378.198 13.000,377.692 13.291,377.269 13.647 C 376.846 14.003,376.500 14.212,376.500 14.111 C 376.500 14.010,376.238 14.197,375.918 14.526 C 374.983 15.487,374.272 16.000,373.872 16.000 C 373.667 16.000,373.500 16.151,373.500 16.336 C 373.500 16.756,372.641 17.558,372.424 17.341 C 372.336 17.253,372.159 17.449,372.030 17.778 C 371.902 18.106,371.392 18.811,370.898 19.344 C 370.404 19.877,370.000 20.429,370.000 20.570 C 370.000 20.712,369.719 21.197,369.375 21.647 C 369.031 22.098,368.750 22.646,368.750 22.866 C 368.750 23.086,368.581 23.330,368.375 23.410 C 368.169 23.489,368.000 23.826,368.000 24.160 C 368.000 24.493,367.831 25.170,367.625 25.664 C 366.985 27.196,367.567 30.993,368.443 30.998 C 368.618 30.999,368.880 31.263,369.027 31.584 C 369.300 32.183,370.210 32.826,371.750 33.507 C 373.222 34.158,378.964 34.175,381.273 33.535 C 382.292 33.253,383.406 32.983,383.750 32.935 C 384.094 32.888,384.735 32.658,385.175 32.425 C 385.615 32.191,386.206 32.000,386.488 32.000 C 386.776 32.000,387.000 31.836,387.000 31.625 C 387.000 31.223,387.034 31.207,388.021 31.144 C 388.713 31.100,391.250 29.378,391.250 28.952 C 391.250 28.811,391.419 28.761,391.625 28.840 C 391.852 28.928,392.000 28.841,392.000 28.622 C 392.000 28.423,392.281 28.189,392.625 28.103 C 392.969 28.016,393.250 27.807,393.250 27.638 C 393.250 27.469,393.536 27.200,393.887 27.040 C 394.237 26.881,394.715 26.413,394.949 26.002 C 395.183 25.590,395.503 25.252,395.660 25.252 C 395.817 25.251,396.013 24.982,396.095 24.655 C 396.178 24.326,396.492 23.995,396.799 23.915 C 397.104 23.835,397.275 23.692,397.180 23.597 C 397.002 23.418,398.406 20.751,398.829 20.465 C 398.959 20.377,399.097 19.902,399.136 19.408 C 399.176 18.915,399.386 18.154,399.604 17.717 C 400.030 16.863,400.148 14.750,399.770 14.750 C 399.643 14.750,399.467 14.420,399.379 14.017 C 399.290 13.614,399.056 13.151,398.859 12.987 C 398.662 12.823,398.500 12.534,398.500 12.344 C 398.500 12.155,398.331 12.000,398.125 12.000 C 397.919 12.000,397.750 11.906,397.750 11.790 C 397.750 11.560,396.488 10.886,396.188 10.956 C 396.084 10.980,396.000 10.908,396.000 10.796 C 396.000 10.056,389.072 9.616,386.875 10.217 M324.844 48.488 C 319.682 49.719,315.696 55.214,317.458 58.668 C 319.665 62.994,325.801 62.699,330.387 58.046 C 335.193 53.172,331.548 46.888,324.844 48.488 M163.341 53.971 C 160.573 55.064,159.967 55.582,160.147 56.705 C 160.330 57.848,159.867 58.492,157.536 60.334 C 155.453 61.981,152.546 64.000,152.259 64.000 C 152.139 64.000,152.004 64.087,151.958 64.194 C 151.870 64.401,150.420 65.364,145.000 68.816 C 133.657 76.040,127.649 80.274,128.130 80.704 C 128.686 81.199,138.544 85.774,140.625 86.502 C 146.329 88.499,150.369 86.230,156.107 77.808 L 157.338 76.000 160.052 76.000 C 162.002 76.000,162.794 76.088,162.867 76.313 C 163.033 76.822,164.013 134.026,163.861 134.273 C 163.636 134.636,158.567 134.558,158.328 134.188 C 158.217 134.016,157.769 132.750,157.334 131.375 C 152.311 115.529,147.658 107.204,138.875 98.350 C 132.830 92.255,125.384 86.840,124.596 87.965 C 123.954 88.882,120.964 89.619,113.375 90.733 C 110.487 91.156,107.422 91.615,106.563 91.752 C 105.703 91.888,104.241 92.117,103.313 92.260 C 86.747 94.809,81.830 97.064,83.813 101.201 C 84.280 102.177,84.375 102.797,84.375 104.875 C 84.375 109.098,83.419 111.271,77.081 121.448 C 76.507 122.370,76.028 123.322,76.018 123.563 C 76.008 123.803,75.900 124.000,75.777 124.000 C 75.025 124.000,74.543 126.843,75.149 127.708 C 76.307 129.362,71.148 134.336,59.527 142.767 L 57.000 144.601 57.000 147.699 C 57.000 150.371,57.067 150.892,57.488 151.483 C 58.816 153.348,59.507 160.112,58.736 163.705 C 57.964 167.306,61.934 180.691,65.238 185.625 C 67.952 189.677,74.347 196.000,75.731 196.000 C 75.879 196.000,76.000 196.095,76.000 196.212 C 76.000 196.542,81.240 199.184,83.551 200.019 C 100.381 206.105,125.244 201.176,132.509 190.314 C 136.461 184.405,136.698 169.229,132.956 161.567 C 131.931 159.466,129.064 156.000,128.352 156.000 C 128.158 156.000,128.000 155.892,128.000 155.761 C 128.000 155.255,123.354 153.227,121.000 152.705 C 118.902 152.239,117.597 152.165,109.813 152.067 L 101.000 151.956 101.000 148.728 L 101.000 145.500 133.500 145.500 L 166.000 145.500 166.000 99.375 C 166.000 55.610,165.978 53.250,165.563 53.259 C 165.322 53.263,164.322 53.584,163.341 53.971 M311.375 59.196 C 310.118 59.614,299.214 64.982,295.250 67.135 C 283.923 73.286,269.960 81.693,260.375 88.134 C 254.057 92.379,253.022 93.105,253.130 93.214 C 253.268 93.351,255.859 92.411,255.958 92.188 C 256.004 92.084,256.229 92.000,256.458 92.000 C 256.814 92.000,260.974 90.256,265.375 88.260 C 267.315 87.381,278.113 81.980,280.625 80.633 C 283.052 79.331,287.832 76.722,289.250 75.924 C 296.695 71.739,300.651 69.556,303.125 68.266 C 305.595 66.978,306.523 66.321,308.375 64.552 C 309.613 63.370,311.328 61.733,312.188 60.913 C 314.426 58.779,314.182 58.263,311.375 59.196 M240.113 61.767 C 239.570 62.229,237.550 64.133,235.625 65.998 C 230.077 71.375,226.332 72.377,223.741 69.177 L 223.299 68.631 221.843 70.003 C 220.317 71.441,213.606 77.938,208.807 82.624 L 205.989 85.375 215.943 100.250 C 221.417 108.431,230.588 122.133,236.323 130.698 C 242.058 139.263,246.750 146.379,246.750 146.510 C 246.750 146.659,242.890 146.750,236.554 146.750 L 226.358 146.750 222.242 140.365 C 219.978 136.853,217.506 133.029,216.750 131.867 C 215.994 130.705,214.123 127.812,212.592 125.439 C 205.044 113.737,194.476 97.417,194.363 97.290 C 194.183 97.086,193.253 97.917,188.153 102.846 L 182.750 108.068 182.750 126.784 L 182.750 145.500 187.250 145.500 L 191.750 145.500 191.750 148.718 L 191.750 151.935 186.938 152.072 C 174.294 152.431,168.935 156.125,166.187 166.375 C 165.666 168.319,165.648 168.894,165.563 186.813 L 165.476 205.250 162.644 205.250 C 160.312 205.250,159.751 205.177,159.468 204.836 C 154.008 198.249,143.379 197.120,131.830 201.901 C 115.299 208.744,101.288 210.506,83.500 207.980 C 81.644 207.717,80.097 207.501,80.063 207.501 C 79.730 207.497,80.323 208.494,82.049 210.841 C 88.331 219.375,92.134 224.405,92.599 224.792 C 95.710 227.381,104.881 225.749,119.438 220.017 C 120.159 219.733,121.284 219.291,121.938 219.035 C 123.058 218.597,128.135 216.501,134.875 213.696 C 151.203 206.901,152.407 207.767,140.860 218.000 C 139.116 219.546,133.969 223.827,130.676 226.470 C 128.917 227.883,126.976 229.676,126.363 230.457 C 120.048 238.497,122.105 251.207,132.066 265.688 C 133.585 267.896,133.229 267.909,136.590 265.527 C 140.587 262.696,146.910 258.693,151.750 255.928 C 154.257 254.497,159.225 252.000,159.567 252.000 C 159.782 252.000,159.996 251.908,160.042 251.795 C 160.244 251.298,167.185 248.787,169.846 248.248 C 175.329 247.139,178.470 248.223,180.357 251.875 C 182.902 256.803,187.153 257.261,191.963 253.125 C 193.426 251.867,196.000 248.771,196.000 248.270 C 196.000 248.121,196.095 248.000,196.211 248.000 C 196.527 248.000,198.199 244.302,198.744 242.397 C 199.857 238.505,199.628 235.424,197.985 232.180 C 196.826 229.891,196.812 229.762,197.615 228.807 C 199.342 226.755,206.344 225.915,227.250 225.254 C 250.437 224.521,259.977 222.653,262.932 218.269 C 264.521 215.912,262.864 211.002,257.922 203.423 C 256.865 201.802,256.000 200.377,256.000 200.258 C 256.000 200.139,255.902 200.004,255.782 199.958 C 254.540 199.483,250.517 190.885,249.543 186.625 C 247.814 179.064,248.155 174.570,250.765 170.500 C 251.444 169.441,252.000 168.446,252.000 168.288 C 252.000 168.129,252.108 168.000,252.239 168.000 C 252.371 168.000,253.119 167.184,253.901 166.188 C 254.684 165.191,255.450 164.262,255.603 164.125 C 256.150 163.636,258.447 160.358,258.969 159.322 C 260.219 156.844,259.510 156.139,255.723 156.090 C 252.449 156.049,251.992 155.824,251.039 153.791 C 250.046 151.674,250.110 145.554,251.214 137.000 C 252.899 123.936,253.000 122.855,253.000 117.806 C 253.000 107.868,250.982 104.166,245.147 103.397 C 242.381 103.033,243.976 100.313,249.497 95.980 C 250.530 95.169,251.600 94.327,251.875 94.108 L 252.375 93.709 251.875 93.872 C 238.509 98.217,231.985 98.054,229.818 93.320 C 228.681 90.838,229.400 85.397,231.495 80.625 C 231.737 80.075,232.354 78.669,232.866 77.500 C 233.877 75.196,238.461 66.548,239.493 65.000 C 240.207 63.929,241.294 61.508,241.195 61.210 C 241.141 61.048,240.679 61.285,240.113 61.767 M48.000 194.688 C 48.000 194.928,48.229 195.727,48.509 196.463 C 50.477 201.641,52.992 203.049,55.759 200.520 L 56.815 199.554 56.220 199.193 C 55.893 198.994,54.500 198.175,53.125 197.373 C 51.750 196.570,50.131 195.540,49.527 195.082 C 48.280 194.138,48.000 194.065,48.000 194.688 " stroke="none" fill="#faa44d" fill-rule="evenodd"></path><path id="path1" d="M166.000 79.000 L 166.000 145.750 133.625 145.750 C 102.964 145.750,101.249 145.773,101.236 146.188 C 101.228 146.428,101.185 147.653,101.141 148.910 C 101.097 150.166,101.132 151.306,101.218 151.442 C 101.314 151.594,104.668 151.741,109.875 151.821 C 125.566 152.063,131.108 154.880,134.237 164.206 C 135.502 167.975,136.020 179.707,135.130 184.416 C 133.744 191.743,127.365 197.341,116.982 200.339 C 91.185 207.788,67.993 198.286,61.267 177.513 C 53.893 154.740,55.601 114.076,64.617 97.750 C 76.272 76.646,104.702 73.374,129.625 90.269 C 142.477 98.981,150.717 110.732,156.611 128.750 C 157.398 131.156,158.142 133.378,158.265 133.688 C 158.478 134.222,158.624 134.250,161.154 134.250 L 163.819 134.250 163.658 124.813 C 163.569 119.622,163.384 108.287,163.246 99.625 C 163.108 90.963,162.928 82.159,162.846 80.063 L 162.697 76.250 160.010 76.250 L 157.323 76.250 156.183 77.965 C 153.316 82.276,149.981 85.623,147.424 86.754 C 144.181 88.189,142.058 87.658,132.125 82.927 C 109.594 72.195,91.827 70.368,71.750 76.716 C 40.892 86.475,21.001 111.912,20.987 141.634 C 20.970 176.155,46.985 202.959,85.500 208.105 C 101.860 210.291,113.436 208.772,130.625 202.183 C 144.102 197.017,151.086 197.423,158.519 203.803 L 159.914 205.000 162.582 205.000 L 165.250 205.000 165.250 188.918 C 165.250 179.068,165.356 171.779,165.524 170.106 C 166.837 157.044,173.490 151.802,188.813 151.758 L 191.500 151.750 191.500 148.750 L 191.500 145.750 187.000 145.750 L 182.500 145.750 182.500 126.923 L 182.500 108.096 185.313 105.368 C 186.859 103.868,189.440 101.360,191.048 99.794 C 192.655 98.229,194.085 96.988,194.224 97.037 C 194.444 97.114,197.646 101.937,201.751 108.375 C 202.452 109.475,206.160 115.213,209.990 121.125 C 213.820 127.037,219.074 135.165,221.665 139.186 L 226.375 146.496 236.545 146.498 L 246.716 146.500 243.406 141.563 C 241.586 138.847,233.583 126.894,225.622 115.000 C 217.660 103.106,209.937 91.575,208.457 89.375 L 205.768 85.375 208.196 82.995 C 209.532 81.686,214.394 76.965,219.000 72.504 C 227.184 64.578,229.558 62.269,238.500 53.539 L 242.875 49.268 232.309 49.259 L 221.742 49.250 210.684 60.426 C 204.601 66.573,195.865 75.404,191.269 80.051 C 186.674 84.698,182.821 88.500,182.707 88.500 C 182.593 88.500,182.500 71.344,182.500 50.375 L 182.500 12.250 174.250 12.250 L 166.000 12.250 166.000 79.000 " stroke="none" fill="#050404" fill-rule="evenodd"></path><path id="path2" d="M0.000 133.875 L 0.000 267.750 200.000 267.750 L 400.000 267.750 399.982 142.438 C 399.965 23.467,399.943 17.201,399.534 18.625 C 397.059 27.255,386.781 34.086,376.250 34.099 C 366.127 34.111,364.115 26.467,371.947 17.750 C 379.617 9.214,397.393 6.809,399.672 14.000 C 399.889 14.686,399.954 13.273,399.974 7.438 L 400.000 0.000 212.438 0.029 C 109.278 0.045,25.100 0.113,25.375 0.179 C 26.251 0.392,27.541 1.537,27.916 2.434 C 28.943 4.893,26.479 6.676,24.196 5.125 C 20.261 2.451,8.052 10.595,5.970 17.283 C 4.924 20.644,5.343 22.542,7.314 23.365 C 11.671 25.186,21.643 20.226,21.146 16.484 C 20.938 14.910,21.338 14.500,23.080 14.501 C 26.391 14.503,27.163 16.075,25.512 19.450 C 23.363 23.845,22.337 27.760,23.006 29.011 C 23.766 30.432,21.765 32.176,19.865 31.748 C 17.960 31.318,17.630 29.839,18.737 26.701 C 19.157 25.512,19.500 24.469,19.500 24.383 C 19.500 24.297,18.997 24.572,18.381 24.996 C 10.233 30.602,-0.165 27.973,0.310 20.427 C 0.868 11.561,11.703 1.655,22.368 0.260 C 23.262 0.144,19.019 0.051,11.938 0.032 L 0.000 0.000 0.000 133.875 M201.992 1.688 C 202.571 3.732,203.088 8.678,203.752 18.500 C 205.534 44.880,206.792 54.829,208.549 56.419 C 209.248 57.052,209.697 56.663,210.937 54.353 C 212.061 52.260,213.202 51.000,213.974 51.000 C 214.462 51.000,215.994 52.401,216.008 52.860 C 216.053 54.368,216.709 54.096,219.191 51.536 L 221.650 49.000 232.325 49.000 C 238.196 49.000,243.000 49.094,243.000 49.209 C 243.000 49.419,241.144 51.251,229.565 62.469 C 222.460 69.353,222.674 68.965,225.250 70.294 C 228.306 71.872,230.572 70.868,236.183 65.452 C 240.270 61.506,241.250 60.699,241.250 61.279 C 241.250 61.637,240.073 64.130,239.493 65.000 C 238.461 66.548,233.877 75.196,232.866 77.500 C 232.354 78.669,231.737 80.075,231.495 80.625 C 229.400 85.397,228.681 90.838,229.818 93.320 C 231.985 98.054,238.509 98.217,251.875 93.872 L 252.375 93.709 251.875 94.108 C 251.600 94.327,250.530 95.169,249.497 95.980 C 243.976 100.313,242.381 103.033,245.147 103.397 C 250.982 104.166,253.000 107.868,253.000 117.806 C 253.000 122.855,252.899 123.936,251.214 137.000 C 250.110 145.554,250.046 151.674,251.039 153.791 C 251.992 155.824,252.449 156.049,255.723 156.090 C 259.510 156.139,260.219 156.844,258.969 159.322 C 258.447 160.358,256.150 163.636,255.603 164.125 C 253.873 165.673,249.714 171.881,249.012 173.963 C 247.884 177.313,248.751 185.437,250.817 190.875 C 251.953 193.866,255.152 199.717,255.782 199.958 C 255.902 200.004,256.000 200.139,256.000 200.258 C 256.000 200.377,256.865 201.802,257.922 203.423 C 262.864 211.002,264.521 215.912,262.932 218.269 C 259.977 222.653,250.437 224.521,227.250 225.254 C 206.344 225.915,199.342 226.755,197.615 228.807 C 196.812 229.762,196.826 229.891,197.985 232.180 C 199.628 235.424,199.857 238.505,198.744 242.397 C 198.199 244.302,196.527 248.000,196.211 248.000 C 196.095 248.000,196.000 248.121,196.000 248.270 C 196.000 248.771,193.426 251.867,191.963 253.125 C 187.153 257.261,182.902 256.803,180.357 251.875 C 178.470 248.223,175.329 247.139,169.846 248.248 C 167.185 248.787,160.244 251.298,160.042 251.795 C 159.996 251.908,159.782 252.000,159.567 252.000 C 159.225 252.000,154.257 254.497,151.750 255.928 C 146.910 258.693,140.587 262.696,136.590 265.527 C 133.229 267.909,133.585 267.896,132.066 265.688 C 122.105 251.207,120.048 238.497,126.363 230.457 C 126.976 229.676,128.917 227.883,130.676 226.470 C 133.969 223.827,139.116 219.546,140.860 218.000 C 152.407 207.767,151.203 206.901,134.875 213.696 C 128.135 216.501,123.058 218.597,121.937 219.035 C 121.284 219.291,120.159 219.733,119.437 220.017 C 104.881 225.749,95.710 227.381,92.599 224.792 C 92.133 224.404,86.875 217.435,81.440 210.000 L 79.520 207.375 76.698 206.698 C 69.872 205.059,60.998 201.890,57.812 199.953 L 56.999 199.459 55.846 200.473 C 54.095 202.015,52.763 202.104,51.045 200.796 C 49.925 199.943,48.000 196.023,48.000 194.593 C 48.000 194.225,47.441 193.639,46.187 192.693 C 12.113 166.989,12.328 116.540,46.627 89.638 C 68.985 72.101,97.901 68.240,124.375 79.255 C 125.750 79.827,127.067 80.353,127.302 80.424 C 127.570 80.505,128.459 80.006,129.685 79.089 C 133.002 76.605,137.367 73.677,145.000 68.816 C 150.420 65.364,151.870 64.401,151.958 64.194 C 152.004 64.087,152.139 64.000,152.259 64.000 C 152.546 64.000,155.453 61.981,157.536 60.334 C 159.867 58.492,160.330 57.848,160.147 56.705 C 159.961 55.544,160.634 55.007,163.739 53.839 L 165.875 53.036 165.939 32.514 L 166.003 11.993 174.314 12.059 L 182.625 12.125 182.690 23.188 C 182.726 29.272,182.799 34.250,182.852 34.250 C 182.905 34.250,183.607 33.926,184.412 33.529 C 186.173 32.662,187.583 32.027,189.750 31.126 C 191.896 30.233,195.579 28.331,196.376 27.705 C 197.529 26.798,197.690 26.079,198.484 18.285 C 200.009 3.326,201.055 -1.623,201.992 1.688 M145.571 6.843 C 149.801 8.645,148.416 14.232,142.618 18.752 C 141.825 19.370,140.839 20.164,140.427 20.518 L 139.678 21.162 140.416 21.988 C 142.725 24.572,148.296 22.399,154.625 16.446 C 158.337 12.954,160.238 12.923,157.901 16.393 C 149.356 29.081,134.923 30.557,135.546 18.679 L 135.657 16.571 133.596 17.901 C 132.463 18.632,129.137 20.430,126.206 21.897 C 123.274 23.363,120.396 24.893,119.810 25.296 C 117.742 26.717,115.799 26.750,114.902 25.381 C 113.890 23.836,114.686 22.829,117.775 21.750 C 120.772 20.703,122.982 18.023,123.408 14.920 C 124.010 10.528,120.683 11.854,116.125 17.824 C 113.270 21.563,112.772 23.210,112.511 29.771 C 112.397 32.625,112.219 35.110,112.115 35.293 C 111.215 36.874,109.599 37.242,108.334 36.153 C 107.521 35.453,107.494 34.626,108.125 29.750 C 108.626 25.890,108.994 21.307,108.997 18.912 L 109.000 16.948 106.938 18.892 C 102.199 23.357,97.938 25.180,95.605 23.738 C 94.779 23.227,93.250 20.639,93.250 19.752 C 93.250 18.859,92.899 19.079,91.939 20.573 C 88.538 25.862,83.943 28.564,80.845 27.094 C 78.845 26.145,78.398 24.421,79.037 20.125 C 79.283 18.475,79.487 16.526,79.492 15.794 L 79.500 14.464 78.841 14.982 C 77.109 16.345,73.179 16.647,70.089 15.655 C 69.578 15.491,69.550 15.570,69.464 17.435 C 69.018 27.192,52.761 32.164,52.902 22.500 C 52.982 17.014,59.536 8.750,63.806 8.750 C 65.038 8.750,65.564 9.028,67.150 10.513 C 70.132 13.306,77.584 13.722,80.294 11.246 C 81.326 10.304,82.903 10.201,83.649 11.028 C 84.397 11.857,84.282 15.350,83.382 19.085 C 82.316 23.511,82.945 24.482,85.663 22.610 C 88.323 20.778,89.836 18.510,92.375 12.550 C 93.643 9.574,94.321 8.750,95.503 8.750 C 96.749 8.750,96.871 9.192,96.563 12.580 C 96.043 18.281,97.091 20.900,99.588 20.149 C 101.669 19.522,108.652 13.754,109.727 11.774 C 111.280 8.914,114.389 10.843,113.782 14.290 C 113.427 16.307,113.486 16.315,114.725 14.413 C 116.979 10.954,120.721 8.249,123.250 8.251 C 127.078 8.254,129.154 13.459,126.823 17.210 C 126.382 17.919,126.074 18.500,126.140 18.500 C 126.373 18.500,130.922 15.875,133.587 14.202 C 135.079 13.266,136.447 12.500,136.626 12.500 C 136.806 12.500,137.233 12.022,137.576 11.438 C 139.756 7.722,143.111 5.795,145.571 6.843 M38.386 10.864 C 39.155 11.633,39.176 12.576,38.501 16.054 C 37.851 19.398,37.852 19.401,38.922 17.500 C 41.008 13.794,44.507 11.250,47.517 11.250 C 51.949 11.250,53.302 15.051,48.908 15.159 C 44.207 15.275,39.940 19.772,38.384 26.251 C 37.768 28.815,36.749 29.680,34.999 29.125 C 33.345 28.600,33.250 21.067,34.796 13.125 C 35.295 10.566,37.009 9.486,38.386 10.864 M142.538 10.881 C 141.058 12.127,138.739 18.076,140.147 17.014 C 142.740 15.060,144.329 12.820,144.202 11.297 C 144.105 10.136,143.579 10.005,142.538 10.881 M61.206 14.143 C 58.005 18.354,57.250 19.790,57.250 21.667 C 57.250 25.549,61.855 24.447,65.053 19.799 C 66.349 17.914,66.212 14.324,64.824 13.835 C 64.387 13.680,62.794 12.992,62.456 12.811 C 62.363 12.761,61.801 13.361,61.206 14.143 M357.699 31.907 C 362.504 33.515,363.591 37.716,360.609 43.144 C 354.911 53.514,335.307 53.799,337.251 43.485 C 338.787 35.339,349.622 29.204,357.699 31.907 M329.446 48.638 C 335.040 50.975,332.718 58.577,325.623 61.153 C 318.010 63.916,313.801 56.160,320.138 51.044 C 323.230 48.547,326.935 47.590,329.446 48.638 M313.750 59.087 C 313.750 59.272,313.047 60.094,312.188 60.913 C 311.328 61.733,309.613 63.370,308.375 64.552 C 306.523 66.321,305.595 66.978,303.125 68.266 C 300.651 69.556,296.695 71.739,289.250 75.924 C 279.078 81.642,267.998 87.205,260.000 90.608 C 250.902 94.479,250.899 94.501,260.375 88.134 C 281.138 74.183,313.750 56.435,313.750 59.087 M92.500 79.881 C 92.294 79.922,91.281 80.091,90.250 80.257 C 67.902 83.856,57.805 101.160,57.032 137.188 C 56.946 141.210,56.944 144.500,57.028 144.500 C 57.230 144.500,62.776 140.405,65.623 138.153 C 73.820 131.671,76.142 129.125,75.149 127.708 C 74.346 126.562,75.237 124.175,78.112 119.770 C 83.949 110.826,85.697 105.133,83.813 101.201 C 82.264 97.970,84.410 96.286,92.625 94.288 C 95.988 93.469,98.283 93.034,103.313 92.260 C 104.241 92.117,105.703 91.888,106.563 91.752 C 107.422 91.615,110.487 91.159,113.375 90.738 C 121.184 89.600,124.750 88.631,124.750 87.648 C 124.750 86.475,113.580 82.066,107.375 80.790 C 103.003 79.891,94.961 79.399,92.500 79.881 M57.132 153.125 C 57.276 155.228,57.806 160.361,58.159 163.063 C 58.532 165.919,58.993 163.762,58.997 159.142 C 59.000 155.596,58.420 152.681,57.477 151.500 L 56.977 150.875 57.132 153.125 " stroke="none" fill="#fbfbfb" fill-rule="evenodd"></path><path id="path3" d="M21.266 0.522 C 11.031 2.530,1.133 11.980,0.341 20.501 C -0.331 27.728,10.619 30.381,18.310 24.856 C 19.915 23.703,19.988 23.843,19.040 26.264 C 17.717 29.643,18.184 31.750,20.255 31.750 C 22.016 31.750,23.896 29.583,22.750 28.875 C 22.059 28.448,23.386 23.320,25.081 19.875 C 26.699 16.585,26.695 16.618,25.650 15.633 C 23.663 13.758,21.001 14.285,21.372 16.480 C 21.894 19.571,13.783 24.455,9.050 23.898 C 5.417 23.471,4.450 21.617,5.724 17.523 C 7.881 10.592,19.816 2.363,24.084 4.864 C 26.207 6.108,27.988 5.467,27.996 3.457 C 28.007 0.958,25.225 -0.254,21.266 0.522 M141.799 7.397 C 140.438 8.075,138.229 10.316,137.685 11.570 C 137.495 12.009,136.941 12.503,136.250 12.849 C 135.631 13.160,133.643 14.327,131.831 15.443 C 128.889 17.256,126.212 18.750,125.906 18.750 C 125.846 18.750,126.207 17.948,126.710 16.967 C 127.881 14.687,127.971 12.784,126.998 10.894 C 124.671 6.371,118.422 8.494,114.433 15.162 C 113.602 16.551,113.094 16.911,113.336 15.938 C 114.152 12.657,113.545 10.750,111.684 10.750 C 110.858 10.750,109.750 11.485,109.750 12.033 C 109.750 12.780,102.761 18.853,100.696 19.901 C 97.009 21.773,95.531 18.402,96.629 10.625 C 96.796 9.444,96.597 9.073,95.708 8.911 C 94.387 8.672,93.810 9.486,91.653 14.625 C 89.859 18.899,87.551 21.886,85.076 23.139 C 82.658 24.362,82.293 23.325,83.362 18.266 C 84.099 14.772,84.194 12.138,83.611 11.306 C 83.045 10.498,81.293 10.525,80.465 11.354 C 77.699 14.119,70.151 13.501,66.542 10.214 C 65.284 9.068,65.132 9.000,63.823 9.000 C 58.461 9.000,51.109 20.218,53.484 24.776 C 54.434 26.598,55.820 27.479,57.760 27.491 C 63.886 27.530,69.375 22.602,69.375 17.063 C 69.375 16.066,69.389 15.250,69.406 15.250 C 69.423 15.250,69.929 15.433,70.531 15.657 C 72.942 16.555,77.716 16.031,78.884 14.740 C 79.928 13.586,80.028 15.051,79.226 19.771 C 78.296 25.246,79.424 27.460,83.011 27.201 C 86.077 26.979,88.826 24.921,91.631 20.750 C 92.416 19.581,93.091 18.589,93.130 18.545 C 93.169 18.501,93.327 19.053,93.481 19.771 C 94.777 25.815,99.925 25.354,107.041 18.555 C 108.123 17.521,109.078 16.745,109.164 16.830 C 109.373 17.040,108.802 25.757,108.374 28.875 C 108.186 30.250,107.956 32.282,107.863 33.391 L 107.693 35.408 108.491 36.079 C 109.416 36.858,110.017 36.916,111.016 36.326 C 111.999 35.745,112.021 35.655,112.264 31.125 C 112.703 22.963,112.852 22.359,115.325 18.699 C 119.869 11.974,124.313 9.968,123.610 14.959 C 123.145 18.259,120.747 20.987,117.327 22.106 C 115.470 22.713,114.750 23.348,114.750 24.379 C 114.750 26.428,118.174 26.744,120.241 24.886 C 120.452 24.696,122.987 23.357,125.875 21.912 C 128.762 20.466,132.122 18.657,133.339 17.891 C 134.557 17.126,135.587 16.500,135.627 16.500 C 135.667 16.500,135.690 17.709,135.678 19.188 C 135.589 29.957,148.064 28.964,156.871 17.500 C 160.007 13.417,158.860 12.697,155.016 16.336 C 148.594 22.414,142.919 24.708,140.439 22.228 C 139.429 21.217,139.559 20.895,141.580 19.400 C 145.463 16.528,147.750 13.429,147.750 11.038 C 147.750 7.369,145.104 5.750,141.799 7.397 M144.382 10.522 C 144.857 12.020,143.924 13.838,141.573 15.992 C 139.234 18.135,139.024 17.956,140.109 14.748 C 141.245 11.390,143.842 8.821,144.382 10.522 M35.882 11.063 C 34.443 12.315,33.136 25.897,34.251 28.010 C 35.381 30.153,37.424 29.203,38.239 26.156 C 40.053 19.376,44.197 15.000,48.804 15.000 C 52.189 15.000,52.267 12.380,48.907 11.475 C 45.435 10.540,41.358 13.320,38.475 18.588 C 37.565 20.252,37.468 19.805,38.126 16.969 C 39.098 12.780,39.142 11.869,38.404 11.131 C 37.623 10.350,36.728 10.326,35.882 11.063 M64.592 13.639 C 67.949 14.482,65.684 21.332,61.298 23.600 C 56.094 26.291,55.523 21.414,60.301 15.078 C 62.257 12.484,62.379 12.399,63.265 13.019 C 63.617 13.265,64.214 13.544,64.592 13.639 M350.875 31.657 C 342.993 32.882,336.177 40.293,337.496 46.203 C 339.152 53.620,354.507 52.074,359.910 43.947 C 364.965 36.344,360.428 30.173,350.875 31.657 M182.561 61.313 C 182.526 76.788,182.595 88.500,182.719 88.500 C 182.840 88.500,183.093 88.303,183.282 88.063 C 183.593 87.666,183.584 87.657,183.189 87.967 C 182.774 88.292,182.749 86.952,182.687 61.217 L 182.623 34.125 182.561 61.313 M214.613 56.313 L 213.625 57.375 214.688 56.387 C 215.272 55.843,215.750 55.365,215.750 55.324 C 215.750 55.135,215.532 55.324,214.613 56.313 M207.998 62.938 L 202.625 68.375 208.063 63.002 C 213.115 58.010,213.613 57.500,213.435 57.500 C 213.400 57.500,210.953 59.947,207.998 62.938 M225.741 65.938 L 224.375 67.375 225.813 66.009 C 226.603 65.257,227.250 64.610,227.250 64.571 C 227.250 64.385,227.011 64.602,225.741 65.938 M201.250 69.625 C 200.643 70.244,200.202 70.750,200.271 70.750 C 200.340 70.750,200.893 70.244,201.500 69.625 C 202.107 69.006,202.548 68.500,202.479 68.500 C 202.410 68.500,201.857 69.006,201.250 69.625 M221.866 69.813 L 220.625 71.125 221.938 69.884 C 223.157 68.732,223.365 68.500,223.178 68.500 C 223.139 68.500,222.548 69.091,221.866 69.813 M215.247 76.188 L 211.875 79.625 215.313 76.253 C 217.203 74.399,218.750 72.852,218.750 72.816 C 218.750 72.637,218.378 72.994,215.247 76.188 M90.813 73.172 C 91.053 73.235,91.447 73.235,91.688 73.172 C 91.928 73.109,91.731 73.058,91.250 73.058 C 90.769 73.058,90.572 73.109,90.813 73.172 M96.563 73.172 C 96.803 73.235,97.197 73.235,97.438 73.172 C 97.678 73.109,97.481 73.058,97.000 73.058 C 96.519 73.058,96.322 73.109,96.563 73.172 M190.997 80.188 L 186.375 84.875 191.063 80.253 C 195.418 75.958,195.863 75.500,195.685 75.500 C 195.649 75.500,193.540 77.609,190.997 80.188 M157.168 76.179 C 157.101 76.287,158.325 76.340,159.887 76.298 L 162.728 76.220 162.817 78.048 L 162.907 79.875 162.891 78.000 L 162.875 76.125 160.082 76.054 C 158.546 76.016,157.235 76.072,157.168 76.179 M155.250 79.000 C 154.956 79.412,154.772 79.750,154.841 79.750 C 154.910 79.750,155.206 79.412,155.500 79.000 C 155.794 78.588,155.978 78.250,155.909 78.250 C 155.840 78.250,155.544 78.588,155.250 79.000 M207.919 83.206 L 205.723 85.412 206.257 86.018 L 206.790 86.625 206.394 86.006 C 206.003 85.394,206.025 85.360,208.181 83.193 C 209.382 81.987,210.308 81.000,210.240 81.000 C 210.171 81.000,209.127 81.993,207.919 83.206 M131.750 82.750 C 133.056 83.424,134.238 83.975,134.375 83.975 C 134.512 83.975,133.556 83.424,132.250 82.750 C 130.944 82.076,129.762 81.525,129.625 81.525 C 129.488 81.525,130.444 82.076,131.750 82.750 M151.363 83.813 L 150.375 84.875 151.438 83.887 C 152.426 82.968,152.615 82.750,152.426 82.750 C 152.385 82.750,151.907 83.228,151.363 83.813 M185.113 86.063 L 184.125 87.125 185.188 86.137 C 186.176 85.218,186.365 85.000,186.176 85.000 C 186.135 85.000,185.657 85.478,185.113 86.063 M163.099 90.000 C 163.099 91.994,163.138 92.809,163.186 91.813 C 163.233 90.816,163.233 89.184,163.186 88.188 C 163.138 87.191,163.099 88.006,163.099 90.000 M143.816 87.429 C 144.196 87.487,144.758 87.485,145.066 87.426 C 145.373 87.367,145.063 87.320,144.375 87.322 C 143.688 87.323,143.436 87.372,143.816 87.429 M208.173 89.019 C 208.422 89.442,208.785 89.920,208.980 90.082 C 209.175 90.243,209.020 89.897,208.634 89.313 C 207.825 88.085,207.506 87.882,208.173 89.019 M131.750 91.833 C 131.750 91.902,132.200 92.314,132.750 92.750 C 133.300 93.186,133.750 93.486,133.750 93.417 C 133.750 93.348,133.300 92.936,132.750 92.500 C 132.200 92.064,131.750 91.764,131.750 91.833 M134.000 93.578 C 134.000 93.621,134.366 93.987,134.813 94.391 L 135.625 95.125 134.891 94.313 C 134.206 93.555,134.000 93.385,134.000 93.578 M138.500 97.875 C 140.077 99.456,141.423 100.750,141.492 100.750 C 141.561 100.750,140.327 99.456,138.750 97.875 C 137.173 96.294,135.827 95.000,135.758 95.000 C 135.689 95.000,136.923 96.294,138.500 97.875 M193.750 97.265 C 193.750 97.410,193.870 97.455,194.017 97.365 C 194.163 97.274,194.451 97.408,194.655 97.662 C 195.003 98.094,195.010 98.088,194.755 97.563 C 194.479 96.993,193.750 96.777,193.750 97.265 M190.995 99.938 L 188.625 102.375 191.063 100.005 C 192.403 98.701,193.500 97.605,193.500 97.567 C 193.500 97.386,193.196 97.674,190.995 99.938 M196.250 100.075 C 196.250 100.315,197.528 102.250,197.687 102.250 C 197.799 102.250,197.401 101.575,196.587 100.382 C 196.401 100.111,196.250 99.972,196.250 100.075 M163.349 103.875 C 163.349 105.800,163.388 106.554,163.436 105.552 C 163.483 104.549,163.483 102.974,163.435 102.052 C 163.387 101.129,163.348 101.950,163.349 103.875 M141.500 101.078 C 141.500 101.121,141.866 101.487,142.313 101.891 L 143.125 102.625 142.391 101.813 C 141.706 101.055,141.500 100.885,141.500 101.078 M216.866 101.938 C 217.251 102.522,217.614 103.000,217.672 103.000 C 217.853 103.000,216.895 101.478,216.520 101.168 C 216.325 101.007,216.480 101.353,216.866 101.938 M185.058 105.567 L 182.500 108.134 182.500 126.942 L 182.500 145.750 187.000 145.750 L 191.500 145.750 191.500 148.742 L 191.500 151.735 188.438 151.813 L 185.375 151.892 188.563 151.946 L 191.750 152.000 191.750 148.750 L 191.750 145.500 187.250 145.500 L 182.750 145.500 182.750 126.817 L 182.750 108.134 185.308 105.567 C 186.715 104.155,187.810 103.000,187.741 103.000 C 187.672 103.000,186.465 104.155,185.058 105.567 M198.968 104.375 C 199.103 104.650,199.397 105.100,199.620 105.375 L 200.028 105.875 199.782 105.375 C 199.647 105.100,199.353 104.650,199.130 104.375 L 198.722 103.875 198.968 104.375 M219.366 105.688 C 219.751 106.272,220.114 106.750,220.172 106.750 C 220.353 106.750,219.395 105.228,219.020 104.918 C 218.825 104.757,218.980 105.103,219.366 105.688 M221.866 109.438 C 222.251 110.022,222.614 110.500,222.672 110.500 C 222.853 110.500,221.895 108.978,221.520 108.668 C 221.325 108.507,221.480 108.853,221.866 109.438 M224.366 113.188 C 224.751 113.772,225.114 114.250,225.172 114.250 C 225.353 114.250,224.395 112.728,224.020 112.418 C 223.825 112.257,223.980 112.603,224.366 113.188 M150.676 114.368 C 151.045 115.120,151.389 115.694,151.440 115.643 C 151.553 115.531,150.292 113.000,150.124 113.000 C 150.059 113.000,150.307 113.616,150.676 114.368 M204.968 113.625 C 205.103 113.900,205.397 114.350,205.620 114.625 L 206.028 115.125 205.782 114.625 C 205.647 114.350,205.353 113.900,205.130 113.625 L 204.722 113.125 204.968 113.625 M163.605 119.000 C 163.605 121.819,163.642 122.972,163.686 121.563 C 163.731 120.153,163.731 117.847,163.686 116.438 C 163.642 115.028,163.605 116.181,163.605 119.000 M207.718 117.875 C 207.853 118.150,208.147 118.600,208.370 118.875 L 208.778 119.375 208.532 118.875 C 208.397 118.600,208.103 118.150,207.880 117.875 L 207.472 117.375 207.718 117.875 M154.658 123.500 C 154.743 123.844,154.965 124.463,155.153 124.875 C 155.428 125.477,155.465 125.502,155.342 125.000 C 155.257 124.656,155.035 124.037,154.847 123.625 C 154.572 123.023,154.535 122.998,154.658 123.500 M212.718 125.625 C 212.853 125.900,213.147 126.350,213.370 126.625 L 213.778 127.125 213.532 126.625 C 213.397 126.350,213.103 125.900,212.880 125.625 L 212.472 125.125 212.718 125.625 M163.798 132.438 L 163.750 134.250 161.137 134.250 C 158.913 134.250,158.487 134.185,158.270 133.813 C 158.130 133.572,158.012 133.493,158.008 133.637 C 157.988 134.313,158.678 134.500,161.183 134.500 C 164.151 134.500,164.068 134.569,163.936 132.224 L 163.846 130.625 163.798 132.438 M237.616 132.938 C 238.001 133.522,238.364 134.000,238.422 134.000 C 238.603 134.000,237.645 132.478,237.270 132.168 C 237.075 132.007,237.230 132.353,237.616 132.938 M56.808 134.750 C 56.808 135.231,56.859 135.428,56.922 135.188 C 56.985 134.947,56.985 134.553,56.922 134.313 C 56.859 134.072,56.808 134.269,56.808 134.750 M219.218 135.625 C 219.353 135.900,219.647 136.350,219.870 136.625 L 220.278 137.125 220.032 136.625 C 219.897 136.350,219.603 135.900,219.380 135.625 L 218.972 135.125 219.218 135.625 M242.468 140.125 C 242.603 140.400,242.897 140.850,243.120 141.125 L 243.528 141.625 243.282 141.125 C 243.147 140.850,242.853 140.400,242.630 140.125 L 242.222 139.625 242.468 140.125 M244.131 142.642 C 244.363 143.063,244.776 143.682,245.048 144.017 L 245.542 144.625 245.119 143.858 C 244.887 143.437,244.474 142.818,244.202 142.483 L 243.708 141.875 244.131 142.642 M56.848 148.250 C 56.848 150.106,56.887 150.866,56.935 149.938 C 56.983 149.009,56.983 147.491,56.935 146.563 C 56.887 145.634,56.848 146.394,56.848 148.250 M101.034 146.188 C 101.063 146.776,101.084 146.794,101.176 146.313 L 101.285 145.752 133.705 145.687 L 166.125 145.623 133.563 145.562 L 101.000 145.500 101.034 146.188 M225.995 146.188 L 226.268 146.750 236.571 146.690 L 246.875 146.631 236.650 146.563 C 227.289 146.500,226.396 146.458,226.074 146.060 C 225.758 145.669,225.750 145.682,225.995 146.188 M101.058 147.750 C 101.058 148.231,101.109 148.428,101.172 148.188 C 101.235 147.947,101.235 147.553,101.172 147.313 C 101.109 147.072,101.058 147.269,101.058 147.750 M101.004 151.563 C 101.000 151.971,101.497 151.996,108.438 151.941 L 115.875 151.883 108.637 151.813 C 103.233 151.760,101.350 151.664,101.204 151.434 C 101.066 151.217,101.007 151.255,101.004 151.563 M117.440 152.177 C 117.751 152.237,118.201 152.234,118.440 152.172 C 118.679 152.109,118.425 152.060,117.875 152.063 C 117.325 152.066,117.129 152.117,117.440 152.177 M182.440 152.177 C 182.751 152.237,183.201 152.234,183.440 152.172 C 183.679 152.109,183.425 152.060,182.875 152.063 C 182.325 152.066,182.129 152.117,182.440 152.177 M174.438 154.391 C 173.784 154.731,173.250 155.066,173.250 155.134 C 173.250 155.246,175.725 154.077,175.979 153.845 C 176.289 153.563,175.475 153.851,174.438 154.391 M125.271 154.093 C 125.528 154.323,127.000 155.000,127.000 154.888 C 127.000 154.744,125.614 154.000,125.346 154.000 C 125.247 154.000,125.214 154.042,125.271 154.093 M170.616 157.313 L 169.375 158.625 170.688 157.384 C 171.907 156.232,172.115 156.000,171.928 156.000 C 171.889 156.000,171.298 156.591,170.616 157.313 M129.990 157.313 C 130.603 157.966,131.137 158.500,131.177 158.500 C 131.365 158.500,131.166 158.276,130.063 157.240 L 128.875 156.125 129.990 157.313 M168.808 159.438 C 168.161 160.372,167.950 160.750,168.077 160.750 C 168.136 160.750,168.481 160.300,168.845 159.750 C 169.585 158.632,169.553 158.362,168.808 159.438 M166.903 163.156 C 166.681 163.807,166.508 164.460,166.518 164.607 C 166.528 164.754,166.753 164.265,167.017 163.520 C 167.282 162.775,167.455 162.122,167.402 162.069 C 167.349 162.016,167.125 162.505,166.903 163.156 M134.035 164.000 C 134.035 164.206,134.132 164.600,134.250 164.875 C 134.385 165.190,134.465 165.236,134.465 165.000 C 134.465 164.794,134.368 164.400,134.250 164.125 C 134.115 163.810,134.035 163.764,134.035 164.000 M58.537 166.125 C 58.528 166.400,58.674 167.300,58.860 168.125 C 59.046 168.950,59.205 169.400,59.213 169.125 C 59.222 168.850,59.076 167.950,58.890 167.125 C 58.704 166.300,58.545 165.850,58.537 166.125 M135.308 170.750 C 135.308 171.231,135.359 171.428,135.422 171.188 C 135.485 170.947,135.485 170.553,135.422 170.313 C 135.359 170.072,135.308 170.269,135.308 170.750 M165.250 188.375 L 165.250 205.000 162.579 205.000 C 160.165 205.000,159.845 204.946,159.266 204.438 L 158.625 203.875 159.231 204.563 C 159.825 205.236,159.893 205.250,162.669 205.250 L 165.500 205.250 165.500 188.500 C 165.500 179.287,165.444 171.750,165.375 171.750 C 165.306 171.750,165.250 179.231,165.250 188.375 M134.453 186.185 C 134.221 186.972,134.069 187.653,134.115 187.699 C 134.250 187.833,135.049 185.273,134.958 185.002 C 134.912 184.866,134.685 185.399,134.453 186.185 M65.423 186.269 C 65.672 186.692,66.035 187.170,66.230 187.332 C 66.425 187.493,66.270 187.147,65.884 186.563 C 65.075 185.335,64.756 185.132,65.423 186.269 M67.132 188.500 C 67.831 189.398,70.311 192.051,70.210 191.793 C 70.163 191.674,69.342 190.743,68.385 189.725 C 67.428 188.708,66.864 188.156,67.132 188.500 M71.226 192.829 C 71.614 193.315,73.500 194.855,73.500 194.685 C 73.500 194.626,72.909 194.086,72.188 193.484 C 71.466 192.881,71.033 192.587,71.226 192.829 M130.109 193.313 L 129.375 194.125 130.188 193.391 C 130.634 192.987,131.000 192.621,131.000 192.578 C 131.000 192.385,130.794 192.555,130.109 193.313 M73.750 194.841 C 73.750 194.910,74.088 195.206,74.500 195.500 C 74.912 195.794,75.250 195.978,75.250 195.909 C 75.250 195.840,74.912 195.544,74.500 195.250 C 74.088 194.956,73.750 194.772,73.750 194.841 M50.250 195.561 C 50.716 196.011,52.500 197.085,52.500 196.917 C 52.500 196.849,51.909 196.434,51.188 195.996 C 50.466 195.558,50.044 195.363,50.250 195.561 M77.500 197.374 C 77.500 197.542,80.031 198.803,80.143 198.690 C 80.194 198.639,79.620 198.295,78.868 197.926 C 78.116 197.557,77.500 197.309,77.500 197.374 M54.000 197.865 C 54.000 197.934,54.450 198.219,55.000 198.500 C 55.550 198.781,56.000 198.954,56.000 198.885 C 56.000 198.816,55.550 198.531,55.000 198.250 C 54.450 197.969,54.000 197.796,54.000 197.865 M143.316 198.929 C 143.696 198.987,144.258 198.985,144.566 198.926 C 144.873 198.867,144.563 198.820,143.875 198.822 C 143.188 198.823,142.936 198.872,143.316 198.929 M146.938 198.926 C 147.247 198.986,147.753 198.986,148.063 198.926 C 148.372 198.867,148.119 198.818,147.500 198.818 C 146.881 198.818,146.628 198.867,146.938 198.926 M116.625 200.250 C 116.310 200.385,116.264 200.465,116.500 200.465 C 116.706 200.465,117.100 200.368,117.375 200.250 C 117.690 200.115,117.736 200.035,117.500 200.035 C 117.294 200.035,116.900 200.132,116.625 200.250 M156.250 202.078 C 156.250 202.140,156.663 202.506,157.168 202.891 C 157.673 203.276,158.007 203.463,157.910 203.307 C 157.712 202.987,156.250 201.905,156.250 202.078 M92.690 202.427 C 93.001 202.487,93.451 202.484,93.690 202.422 C 93.929 202.359,93.675 202.310,93.125 202.313 C 92.575 202.316,92.379 202.367,92.690 202.427 M105.938 202.426 C 106.247 202.486,106.753 202.486,107.063 202.426 C 107.372 202.367,107.119 202.318,106.500 202.318 C 105.881 202.318,105.628 202.367,105.938 202.426 M95.444 202.683 C 96.032 202.736,96.932 202.735,97.444 202.682 C 97.956 202.628,97.475 202.585,96.375 202.586 C 95.275 202.587,94.856 202.631,95.444 202.683 M102.070 202.684 C 102.727 202.736,103.740 202.735,104.320 202.683 C 104.900 202.630,104.362 202.588,103.125 202.589 C 101.888 202.590,101.413 202.632,102.070 202.684 M128.875 202.884 C 128.250 203.185,128.229 203.220,128.750 203.092 C 129.458 202.919,130.255 202.513,129.875 202.519 C 129.738 202.521,129.287 202.685,128.875 202.884 M123.375 204.771 C 122.688 205.037,122.450 205.191,122.847 205.113 C 123.634 204.961,125.281 204.291,124.875 204.290 C 124.737 204.289,124.063 204.506,123.375 204.771 M115.250 207.125 C 114.631 207.304,114.350 207.453,114.625 207.456 C 114.900 207.459,115.575 207.313,116.125 207.132 C 117.420 206.705,116.718 206.700,115.250 207.125 M89.063 208.672 C 89.303 208.735,89.697 208.735,89.938 208.672 C 90.178 208.609,89.981 208.558,89.500 208.558 C 89.019 208.558,88.822 208.609,89.063 208.672 M106.813 208.672 C 107.053 208.735,107.447 208.735,107.688 208.672 C 107.928 208.609,107.731 208.558,107.250 208.558 C 106.769 208.558,106.572 208.609,106.813 208.672 M92.063 208.929 C 92.441 208.986,93.059 208.986,93.438 208.929 C 93.816 208.872,93.506 208.825,92.750 208.825 C 91.994 208.825,91.684 208.872,92.063 208.929 M103.063 208.929 C 103.441 208.986,104.059 208.986,104.438 208.929 C 104.816 208.872,104.506 208.825,103.750 208.825 C 102.994 208.825,102.684 208.872,103.063 208.929 " stroke="none" fill="#8c6237" fill-rule="evenodd"></path><path id="path4" d="M17.625 1.366 C 16.659 1.808,17.109 1.815,18.250 1.375 C 18.731 1.190,18.956 1.035,18.750 1.030 C 18.544 1.026,18.038 1.177,17.625 1.366 M13.938 2.891 C 13.284 3.231,12.750 3.566,12.750 3.634 C 12.750 3.746,15.225 2.577,15.479 2.345 C 15.789 2.063,14.975 2.351,13.938 2.891 M9.750 5.597 C 8.994 6.200,7.588 7.520,6.625 8.530 C 5.011 10.222,5.060 10.190,7.250 8.115 C 8.556 6.877,10.019 5.562,10.500 5.194 C 10.981 4.825,11.319 4.518,11.250 4.512 C 11.181 4.506,10.506 4.994,9.750 5.597 M24.610 5.361 C 25.233 5.860,26.517 5.860,27.140 5.361 C 27.608 4.986,27.606 4.981,27.079 5.236 C 26.779 5.381,26.237 5.500,25.875 5.500 C 25.513 5.500,24.971 5.381,24.671 5.236 C 24.144 4.981,24.142 4.986,24.610 5.361 M16.688 6.017 C 16.172 6.289,15.750 6.568,15.750 6.636 C 15.750 6.747,17.725 5.825,17.979 5.594 C 18.267 5.334,17.516 5.580,16.688 6.017 M143.690 6.677 C 144.001 6.737,144.451 6.734,144.690 6.672 C 144.929 6.609,144.675 6.560,144.125 6.563 C 143.575 6.566,143.379 6.617,143.690 6.677 M146.643 7.774 C 147.046 8.268,147.425 8.630,147.487 8.578 C 147.549 8.526,147.220 8.122,146.755 7.679 L 145.911 6.875 146.643 7.774 M13.375 8.147 L 12.625 8.791 13.438 8.254 C 13.884 7.958,14.250 7.667,14.250 7.608 C 14.250 7.421,14.144 7.486,13.375 8.147 M139.798 8.662 L 138.625 9.824 139.875 8.744 C 140.563 8.151,141.172 7.628,141.229 7.582 C 141.286 7.537,141.252 7.500,141.152 7.500 C 141.052 7.500,140.443 8.023,139.798 8.662 M122.125 8.375 C 122.726 8.580,125.016 8.664,124.709 8.469 C 124.525 8.353,123.813 8.265,123.125 8.274 C 122.438 8.282,121.987 8.328,122.125 8.375 M63.316 8.929 C 63.696 8.987,64.258 8.985,64.566 8.926 C 64.873 8.867,64.563 8.820,63.875 8.822 C 63.188 8.823,62.936 8.872,63.316 8.929 M11.063 9.993 C 10.131 10.858,9.823 11.250,10.073 11.250 C 10.113 11.250,10.643 10.744,11.250 10.125 C 12.611 8.738,12.499 8.659,11.063 9.993 M65.250 9.046 C 67.685 11.256,68.113 11.595,67.125 10.534 C 66.575 9.944,65.900 9.342,65.625 9.196 C 65.350 9.051,65.181 8.983,65.250 9.046 M93.944 9.438 C 93.505 9.938,92.745 11.377,92.761 11.675 C 92.767 11.785,93.006 11.425,93.291 10.875 C 93.576 10.325,93.982 9.678,94.193 9.438 C 94.405 9.197,94.521 9.000,94.452 9.000 C 94.384 9.000,94.155 9.197,93.944 9.438 M118.354 10.393 L 117.375 11.286 118.438 10.476 C 119.408 9.736,119.645 9.500,119.417 9.500 C 119.371 9.500,118.893 9.902,118.354 10.393 M147.825 11.000 C 147.825 11.756,147.872 12.066,147.929 11.688 C 147.986 11.309,147.986 10.691,147.929 10.313 C 147.872 9.934,147.825 10.244,147.825 11.000 M388.938 9.926 C 389.247 9.986,389.753 9.986,390.063 9.926 C 390.372 9.867,390.119 9.818,389.500 9.818 C 388.881 9.818,388.628 9.867,388.938 9.926 M392.313 9.922 C 392.553 9.985,392.947 9.985,393.188 9.922 C 393.428 9.859,393.231 9.808,392.750 9.808 C 392.269 9.808,392.072 9.859,392.313 9.922 M143.813 10.270 C 144.072 10.421,144.262 10.850,144.279 11.325 C 144.296 11.786,144.358 11.931,144.426 11.668 C 144.620 10.916,144.279 9.999,143.808 10.008 C 143.400 10.015,143.401 10.030,143.813 10.270 M394.250 10.250 C 395.105 10.524,395.762 10.524,395.125 10.250 C 394.850 10.132,394.400 10.038,394.125 10.042 C 393.723 10.048,393.748 10.089,394.250 10.250 M35.826 10.899 L 35.125 11.549 35.846 11.024 C 36.707 10.398,37.420 10.360,38.257 10.895 L 38.875 11.290 38.285 10.770 C 37.492 10.072,36.674 10.115,35.826 10.899 M384.875 10.500 L 384.375 10.715 384.875 10.729 C 385.150 10.736,385.544 10.633,385.750 10.500 C 386.247 10.179,385.622 10.179,384.875 10.500 M80.640 10.883 C 80.373 11.085,80.282 11.250,80.437 11.250 C 80.593 11.250,80.790 11.137,80.875 11.000 C 81.192 10.487,83.194 10.711,83.611 11.306 C 83.825 11.611,84.000 11.741,84.000 11.594 C 84.000 10.627,81.639 10.127,80.640 10.883 M110.390 10.883 C 110.123 11.085,110.016 11.250,110.152 11.250 C 110.288 11.250,110.507 11.146,110.638 11.019 C 110.768 10.892,111.213 10.740,111.625 10.682 L 112.375 10.575 111.625 10.545 C 111.213 10.529,110.657 10.681,110.390 10.883 M396.000 10.750 C 396.000 10.887,396.084 10.976,396.188 10.947 C 396.441 10.875,397.583 11.510,397.799 11.843 C 397.895 11.990,398.044 12.039,398.131 11.952 C 398.288 11.795,396.559 10.500,396.192 10.500 C 396.086 10.500,396.000 10.613,396.000 10.750 M127.403 11.875 C 127.608 12.794,127.751 12.994,127.746 12.354 C 127.744 12.091,127.628 11.706,127.489 11.500 C 127.303 11.226,127.280 11.327,127.403 11.875 M381.125 11.634 C 380.500 11.935,380.479 11.970,381.000 11.842 C 381.708 11.669,382.505 11.263,382.125 11.269 C 381.988 11.271,381.538 11.435,381.125 11.634 M3.250 12.500 C 2.956 12.912,2.772 13.250,2.841 13.250 C 2.910 13.250,3.206 12.912,3.500 12.500 C 3.794 12.088,3.978 11.750,3.909 11.750 C 3.840 11.750,3.544 12.088,3.250 12.500 M8.722 12.438 C 7.926 13.318,7.410 14.000,7.541 14.000 C 7.598 14.000,8.067 13.494,8.585 12.875 C 9.617 11.640,9.709 11.346,8.722 12.438 M140.997 12.563 C 140.725 13.009,140.501 13.478,140.501 13.604 C 140.500 13.889,140.535 13.842,141.196 12.688 C 141.854 11.539,141.686 11.434,140.997 12.563 M50.792 12.375 C 51.021 12.650,51.257 13.213,51.317 13.625 L 51.425 14.375 51.463 13.601 C 51.488 13.075,51.320 12.675,50.938 12.351 C 50.379 11.879,50.378 11.879,50.792 12.375 M84.082 13.625 C 84.083 14.588,84.128 14.951,84.182 14.432 C 84.237 13.913,84.236 13.126,84.180 12.682 C 84.125 12.238,84.081 12.662,84.082 13.625 M109.120 12.612 C 108.842 12.894,107.380 14.301,105.870 15.738 C 104.360 17.176,103.519 18.032,104.000 17.640 C 105.284 16.597,109.833 12.245,109.721 12.167 C 109.668 12.130,109.398 12.330,109.120 12.612 M120.933 12.634 C 120.420 12.983,120.000 13.324,120.000 13.393 C 120.000 13.462,120.420 13.233,120.933 12.884 C 122.078 12.106,122.907 12.062,123.131 12.769 C 123.222 13.054,123.351 13.233,123.418 13.165 C 123.485 13.098,123.415 12.808,123.261 12.521 C 122.888 11.823,122.068 11.863,120.933 12.634 M174.185 12.186 L 182.495 12.257 182.564 23.253 L 182.633 34.250 182.629 23.188 L 182.625 12.125 174.250 12.120 L 165.875 12.115 174.185 12.186 M42.741 13.018 L 41.875 13.786 42.875 13.091 C 43.425 12.708,43.922 12.363,43.979 12.323 C 44.036 12.283,43.976 12.250,43.845 12.250 C 43.713 12.250,43.217 12.596,42.741 13.018 M113.808 13.000 C 113.808 13.481,113.859 13.678,113.922 13.438 C 113.985 13.197,113.985 12.803,113.922 12.563 C 113.859 12.322,113.808 12.519,113.808 13.000 M398.506 12.407 C 398.503 12.562,398.662 12.823,398.859 12.987 C 399.056 13.151,399.292 13.622,399.383 14.035 C 399.473 14.448,399.599 14.735,399.661 14.672 C 399.863 14.471,399.488 13.392,398.993 12.750 C 398.728 12.406,398.509 12.252,398.506 12.407 M72.063 12.922 C 72.303 12.985,72.697 12.985,72.938 12.922 C 73.178 12.859,72.981 12.808,72.500 12.808 C 72.019 12.808,71.822 12.859,72.063 12.922 M75.316 12.929 C 75.696 12.987,76.258 12.985,76.566 12.926 C 76.873 12.867,76.563 12.820,75.875 12.822 C 75.188 12.823,74.936 12.872,75.316 12.929 M96.313 13.625 C 96.316 14.175,96.367 14.371,96.427 14.060 C 96.487 13.749,96.484 13.299,96.422 13.060 C 96.359 12.821,96.310 13.075,96.313 13.625 M56.250 14.250 C 55.956 14.662,55.772 15.000,55.841 15.000 C 55.910 15.000,56.206 14.662,56.500 14.250 C 56.794 13.838,56.978 13.500,56.909 13.500 C 56.840 13.500,56.544 13.838,56.250 14.250 M60.489 14.813 C 60.025 15.397,59.843 15.716,60.084 15.522 C 60.539 15.157,61.611 13.750,61.434 13.750 C 61.379 13.750,60.954 14.228,60.489 14.813 M65.302 14.127 C 65.400 14.278,65.590 14.677,65.724 15.013 C 65.878 15.400,65.974 15.474,65.984 15.215 C 65.993 14.990,65.803 14.591,65.563 14.328 C 65.322 14.066,65.205 13.975,65.302 14.127 M1.863 14.773 C 1.643 15.199,1.508 15.591,1.562 15.645 C 1.616 15.699,1.847 15.351,2.076 14.872 C 2.590 13.794,2.412 13.711,1.863 14.773 M118.500 14.625 C 118.177 14.969,118.017 15.246,118.144 15.242 C 118.358 15.235,119.388 14.000,119.180 14.000 C 119.129 14.000,118.823 14.281,118.500 14.625 M141.991 15.438 L 140.625 16.875 142.063 15.509 C 142.853 14.757,143.500 14.110,143.500 14.071 C 143.500 13.885,143.261 14.102,141.991 15.438 M78.851 14.813 L 78.375 15.375 78.924 14.911 L 79.473 14.447 79.564 15.911 L 79.655 17.375 79.703 15.813 C 79.754 14.127,79.592 13.937,78.851 14.813 M154.250 16.803 C 152.806 18.193,152.300 18.759,153.125 18.061 C 154.595 16.816,157.219 14.238,156.991 14.263 C 156.927 14.269,155.694 15.413,154.250 16.803 M21.393 14.893 C 21.177 15.109,21.011 15.531,21.025 15.830 C 21.048 16.328,21.065 16.321,21.223 15.752 C 21.319 15.409,21.673 14.989,22.011 14.818 C 22.437 14.602,22.497 14.506,22.205 14.504 C 21.975 14.502,21.609 14.677,21.393 14.893 M50.929 14.654 C 50.845 14.739,50.404 14.896,49.950 15.003 C 49.232 15.173,49.208 15.202,49.765 15.224 C 50.117 15.238,50.623 15.085,50.890 14.883 C 51.157 14.681,51.309 14.512,51.229 14.508 C 51.149 14.504,51.014 14.569,50.929 14.654 M127.514 14.875 C 127.500 15.150,127.270 15.858,127.002 16.447 C 126.735 17.037,126.616 17.458,126.738 17.382 C 127.088 17.166,127.818 15.073,127.672 14.706 C 127.592 14.507,127.529 14.574,127.514 14.875 M144.891 16.450 C 143.438 18.062,143.370 18.172,144.473 17.125 C 145.605 16.050,146.951 14.475,146.705 14.512 C 146.661 14.519,145.845 15.391,144.891 16.450 M374.750 15.250 C 374.269 15.655,373.958 15.990,374.060 15.993 C 374.161 15.997,374.442 15.833,374.685 15.630 C 374.927 15.426,375.350 15.092,375.625 14.888 C 375.900 14.683,376.012 14.515,375.875 14.515 C 375.738 14.514,375.231 14.845,374.750 15.250 M24.750 14.819 C 24.750 14.867,25.116 15.174,25.563 15.501 C 26.065 15.869,26.240 15.929,26.021 15.659 C 25.688 15.249,24.750 14.629,24.750 14.819 M123.279 15.542 C 123.263 15.771,123.185 16.165,123.106 16.417 C 122.970 16.851,122.977 16.852,123.248 16.430 C 123.405 16.185,123.483 15.791,123.421 15.555 C 123.319 15.168,123.305 15.166,123.279 15.542 M90.426 16.882 C 90.057 17.634,89.809 18.250,89.874 18.250 C 90.042 18.250,91.303 15.719,91.190 15.607 C 91.139 15.556,90.795 16.130,90.426 16.882 M117.374 15.849 C 117.237 16.041,116.864 16.548,116.545 16.974 C 115.689 18.121,116.006 17.916,117.085 16.625 C 117.602 16.006,117.934 15.500,117.824 15.500 C 117.713 15.500,117.511 15.657,117.374 15.849 M66.068 16.750 C 66.068 17.369,66.117 17.622,66.176 17.313 C 66.236 17.003,66.236 16.497,66.176 16.188 C 66.117 15.878,66.068 16.131,66.068 16.750 M83.650 16.775 C 83.558 17.348,83.532 17.866,83.592 17.925 C 83.652 17.985,83.779 17.569,83.875 17.000 C 83.971 16.431,83.997 15.914,83.933 15.850 C 83.869 15.786,83.742 16.202,83.650 16.775 M43.220 17.269 L 42.125 18.288 43.313 17.341 C 43.966 16.820,44.500 16.362,44.500 16.322 C 44.500 16.129,44.227 16.331,43.220 17.269 M139.534 16.813 C 139.495 17.600,139.784 17.697,140.282 17.063 C 140.589 16.670,140.582 16.659,140.207 16.952 C 139.845 17.235,139.774 17.202,139.678 16.702 C 139.580 16.189,139.564 16.202,139.534 16.813 M157.109 17.168 C 156.724 17.673,156.537 18.007,156.693 17.910 C 157.013 17.712,158.095 16.250,157.922 16.250 C 157.860 16.250,157.494 16.663,157.109 17.168 M372.875 16.750 C 372.625 17.027,372.476 17.309,372.545 17.378 C 372.613 17.447,372.875 17.277,373.125 17.000 C 373.375 16.723,373.524 16.441,373.455 16.372 C 373.387 16.303,373.125 16.473,372.875 16.750 M21.220 17.195 C 21.138 17.692,21.175 17.925,21.313 17.787 C 21.439 17.661,21.500 17.292,21.449 16.966 C 21.371 16.466,21.335 16.501,21.220 17.195 M25.893 18.155 C 25.539 18.928,25.255 19.631,25.260 19.718 C 25.273 19.926,25.974 18.624,26.410 17.580 C 26.987 16.200,26.583 16.650,25.893 18.155 M58.814 17.063 C 58.460 17.509,57.962 18.500,58.092 18.500 C 58.152 18.500,58.433 18.106,58.717 17.625 C 59.233 16.751,59.281 16.473,58.814 17.063 M107.243 18.438 L 105.625 20.125 107.299 18.520 L 108.974 16.915 109.064 18.520 L 109.154 20.125 109.202 18.438 C 109.228 17.509,109.162 16.750,109.055 16.750 C 108.948 16.750,108.133 17.509,107.243 18.438 M37.818 18.257 C 37.681 18.951,37.666 19.573,37.785 19.646 C 37.903 19.720,38.005 19.688,38.012 19.577 C 38.018 19.466,38.071 18.841,38.129 18.188 C 38.266 16.644,38.131 16.675,37.818 18.257 M127.938 17.517 C 127.422 17.789,127.000 18.068,127.000 18.136 C 127.000 18.204,127.450 18.031,128.000 17.750 C 128.550 17.469,129.000 17.186,129.000 17.120 C 129.000 16.956,128.998 16.957,127.938 17.517 M135.558 18.000 C 135.558 18.481,135.609 18.678,135.672 18.438 C 135.735 18.197,135.735 17.803,135.672 17.563 C 135.609 17.322,135.558 17.519,135.558 18.000 M399.403 18.102 C 399.320 18.433,399.179 18.911,399.089 19.164 C 398.978 19.480,399.008 19.546,399.187 19.375 C 399.459 19.114,399.877 17.500,399.672 17.500 C 399.607 17.500,399.486 17.771,399.403 18.102 M34.063 18.625 C 34.066 19.175,34.117 19.371,34.177 19.060 C 34.237 18.749,34.234 18.299,34.172 18.060 C 34.109 17.821,34.060 18.075,34.063 18.625 M371.225 18.574 C 370.499 19.496,370.178 20.000,370.318 20.000 C 370.494 20.000,372.053 17.970,371.953 17.870 C 371.900 17.817,371.572 18.134,371.225 18.574 M19.500 19.674 C 18.881 20.318,18.691 20.605,19.077 20.312 C 19.705 19.836,20.910 18.497,20.706 18.502 C 20.661 18.503,20.119 19.030,19.500 19.674 M92.912 18.690 C 92.818 18.841,92.856 19.036,92.996 19.122 C 93.136 19.209,93.263 19.526,93.279 19.827 C 93.297 20.172,93.347 20.230,93.413 19.984 C 93.558 19.448,93.129 18.339,92.912 18.690 M153.625 20.941 C 152.250 22.272,151.575 23.007,152.125 22.574 C 153.122 21.790,156.466 18.490,156.243 18.511 C 156.178 18.517,155.000 19.610,153.625 20.941 M5.299 20.399 C 5.256 21.964,5.316 22.229,5.813 22.649 C 6.372 23.122,6.373 23.122,5.950 22.619 C 5.665 22.280,5.496 21.541,5.437 20.369 L 5.348 18.625 5.299 20.399 M120.880 19.938 C 120.343 20.591,120.163 20.900,120.479 20.625 C 121.038 20.139,122.124 18.750,121.945 18.750 C 121.896 18.750,121.417 19.284,120.880 19.938 M130.938 19.267 C 130.422 19.539,130.000 19.818,130.000 19.886 C 130.000 19.954,130.450 19.781,131.000 19.500 C 131.550 19.219,132.000 18.936,132.000 18.870 C 132.000 18.706,131.998 18.707,130.938 19.267 M141.625 19.397 L 140.875 20.041 141.688 19.504 C 142.134 19.208,142.500 18.917,142.500 18.858 C 142.500 18.671,142.394 18.736,141.625 19.397 M97.000 19.078 C 97.000 19.446,97.811 20.500,98.091 20.496 C 98.286 20.494,98.292 20.434,98.111 20.309 C 97.965 20.208,97.656 19.847,97.423 19.507 C 97.190 19.167,97.000 18.974,97.000 19.078 M150.500 20.031 C 149.629 20.794,149.628 20.795,150.430 20.262 C 150.873 19.968,151.301 19.619,151.382 19.488 C 151.623 19.098,151.423 19.221,150.500 20.031 M114.125 20.500 C 113.912 20.913,113.793 21.250,113.862 21.250 C 113.931 21.250,114.162 20.913,114.375 20.500 C 114.588 20.087,114.707 19.750,114.638 19.750 C 114.569 19.750,114.338 20.087,114.125 20.500 M99.250 20.250 C 98.735 20.415,98.713 20.454,99.125 20.471 C 99.400 20.483,99.794 20.383,100.000 20.250 C 100.438 19.967,100.134 19.967,99.250 20.250 M104.369 20.832 C 103.815 21.268,103.084 21.827,102.744 22.073 C 102.149 22.505,102.157 22.505,102.962 22.073 C 103.736 21.659,105.784 20.010,105.500 20.030 C 105.431 20.035,104.922 20.396,104.369 20.832 M33.825 21.500 C 33.825 22.256,33.872 22.566,33.929 22.188 C 33.986 21.809,33.986 21.191,33.929 20.813 C 33.872 20.434,33.825 20.744,33.825 21.500 M39.988 21.524 C 39.700 22.088,39.508 22.591,39.560 22.644 C 39.613 22.696,39.900 22.235,40.200 21.620 C 40.881 20.217,40.697 20.134,39.988 21.524 M63.500 21.625 C 62.893 22.244,62.452 22.750,62.521 22.750 C 62.590 22.750,63.143 22.244,63.750 21.625 C 64.357 21.006,64.798 20.500,64.729 20.500 C 64.660 20.500,64.107 21.006,63.500 21.625 M369.289 21.364 C 369.002 21.851,368.812 22.250,368.866 22.250 C 369.062 22.250,370.052 20.719,369.933 20.600 C 369.867 20.533,369.577 20.877,369.289 21.364 M397.796 22.081 C 397.342 22.930,397.155 23.400,397.380 23.125 C 397.874 22.522,398.818 20.734,398.703 20.620 C 398.658 20.575,398.250 21.233,397.796 22.081 M16.625 21.647 C 15.800 22.108,15.213 22.489,15.321 22.493 C 15.645 22.505,17.953 21.279,18.122 21.005 C 18.318 20.688,18.412 20.647,16.625 21.647 M57.072 21.875 C 57.073 22.563,57.122 22.814,57.179 22.434 C 57.237 22.054,57.235 21.492,57.176 21.184 C 57.117 20.877,57.070 21.188,57.072 21.875 M67.769 22.046 C 67.326 22.758,67.117 23.214,67.303 23.060 C 67.658 22.765,68.858 20.750,68.678 20.750 C 68.621 20.750,68.212 21.333,67.769 22.046 M148.688 21.143 C 147.753 21.650,147.810 21.861,148.750 21.375 C 149.162 21.162,149.500 20.934,149.500 20.869 C 149.500 20.708,149.473 20.717,148.688 21.143 M24.129 21.826 C 23.939 22.281,23.719 22.984,23.640 23.389 C 23.484 24.191,23.587 23.992,24.259 22.188 C 24.760 20.844,24.658 20.561,24.129 21.826 M90.750 22.000 C 90.456 22.413,90.272 22.750,90.341 22.750 C 90.410 22.750,90.706 22.413,91.000 22.000 C 91.294 21.587,91.478 21.250,91.409 21.250 C 91.340 21.250,91.044 21.587,90.750 22.000 M86.375 22.139 C 85.909 22.535,85.822 22.682,86.146 22.527 C 86.610 22.304,87.453 21.498,87.218 21.501 C 87.167 21.502,86.787 21.789,86.375 22.139 M117.375 21.866 C 116.409 22.308,116.859 22.315,118.000 21.875 C 118.481 21.690,118.706 21.535,118.500 21.530 C 118.294 21.526,117.787 21.677,117.375 21.866 M52.813 22.625 C 52.816 23.175,52.867 23.371,52.927 23.060 C 52.987 22.749,52.984 22.299,52.922 22.060 C 52.859 21.821,52.810 22.075,52.813 22.625 M108.818 23.000 C 108.818 23.619,108.867 23.872,108.926 23.563 C 108.986 23.253,108.986 22.747,108.926 22.438 C 108.867 22.128,108.818 22.381,108.818 23.000 M115.269 22.897 C 114.687 23.387,114.508 23.736,114.533 24.335 L 114.566 25.125 114.720 24.259 C 114.829 23.649,115.126 23.224,115.724 22.821 C 116.192 22.507,116.453 22.250,116.306 22.250 C 116.159 22.250,115.692 22.541,115.269 22.897 M61.125 23.394 C 60.575 23.723,60.237 23.993,60.375 23.995 C 60.675 23.999,62.250 23.061,62.250 22.879 C 62.250 22.715,62.302 22.692,61.125 23.394 M82.758 22.907 C 82.746 23.319,83.432 23.818,83.804 23.668 C 84.011 23.585,83.974 23.532,83.700 23.520 C 83.466 23.509,83.160 23.303,83.020 23.063 C 82.880 22.822,82.762 22.752,82.758 22.907 M94.750 23.076 C 94.750 23.378,96.477 24.248,97.030 24.224 C 97.538 24.203,97.514 24.172,96.870 24.018 C 96.454 23.918,95.808 23.635,95.432 23.390 C 95.057 23.144,94.750 23.003,94.750 23.076 M88.863 24.313 L 87.875 25.375 88.938 24.387 C 89.522 23.843,90.000 23.365,90.000 23.324 C 90.000 23.135,89.782 23.324,88.863 24.313 M150.051 23.857 C 148.890 24.678,148.726 24.913,149.707 24.351 C 150.164 24.089,150.656 23.734,150.800 23.563 C 151.169 23.121,150.996 23.189,150.051 23.857 M33.572 24.625 C 33.573 25.313,33.622 25.564,33.679 25.184 C 33.737 24.804,33.735 24.242,33.676 23.934 C 33.617 23.627,33.570 23.938,33.572 24.625 M0.750 23.915 C 0.750 24.051,1.059 24.436,1.438 24.769 L 2.125 25.375 1.500 24.625 C 1.156 24.212,0.847 23.828,0.813 23.771 C 0.778 23.714,0.750 23.778,0.750 23.915 M9.316 23.929 C 9.696 23.987,10.258 23.985,10.566 23.926 C 10.873 23.867,10.563 23.820,9.875 23.822 C 9.188 23.823,8.936 23.872,9.316 23.929 M18.968 24.438 C 18.662 24.828,18.669 24.841,19.038 24.552 C 19.376 24.288,19.475 24.288,19.581 24.552 C 19.663 24.757,19.718 24.716,19.730 24.438 C 19.741 24.197,19.651 24.000,19.531 24.000 C 19.410 24.000,19.157 24.197,18.968 24.438 M58.440 24.177 C 58.751 24.237,59.201 24.234,59.440 24.172 C 59.679 24.109,59.425 24.060,58.875 24.063 C 58.325 24.066,58.129 24.117,58.440 24.177 M367.643 24.893 C 367.551 25.259,367.524 25.607,367.583 25.666 C 367.642 25.725,367.765 25.474,367.857 25.107 C 367.949 24.741,367.976 24.393,367.917 24.334 C 367.858 24.275,367.735 24.526,367.643 24.893 M79.001 25.146 C 79.002 25.272,79.292 25.712,79.647 26.125 L 80.291 26.875 79.727 26.000 C 79.002 24.878,79.000 24.875,79.001 25.146 M108.563 26.125 C 108.566 26.675,108.617 26.871,108.677 26.560 C 108.737 26.249,108.734 25.799,108.672 25.560 C 108.609 25.321,108.560 25.575,108.563 26.125 M115.360 25.861 C 115.627 26.075,116.021 26.241,116.235 26.230 C 116.572 26.213,116.574 26.192,116.250 26.071 C 116.044 25.995,115.650 25.829,115.375 25.702 C 114.883 25.476,114.883 25.479,115.360 25.861 M117.875 26.022 C 117.188 26.273,116.825 26.483,117.071 26.489 C 117.576 26.501,119.250 25.848,119.250 25.638 C 119.250 25.562,119.222 25.515,119.188 25.533 C 119.153 25.552,118.563 25.772,117.875 26.022 M2.638 26.021 C 2.809 26.298,4.260 27.073,4.381 26.952 C 4.427 26.906,4.022 26.625,3.480 26.328 C 2.938 26.031,2.559 25.893,2.638 26.021 M62.750 26.395 C 61.994 26.719,61.544 26.986,61.750 26.987 C 62.194 26.989,64.250 26.085,64.250 25.887 C 64.250 25.812,64.222 25.763,64.188 25.778 C 64.153 25.793,63.506 26.071,62.750 26.395 M145.000 26.282 C 144.190 26.566,143.948 26.714,144.411 26.643 C 145.183 26.525,147.115 25.786,146.625 25.796 C 146.488 25.799,145.756 26.018,145.000 26.282 M54.000 26.091 C 54.000 26.253,55.894 27.500,56.138 27.499 C 56.269 27.499,56.022 27.283,55.590 27.019 C 55.158 26.756,54.729 26.419,54.638 26.270 C 54.483 26.020,54.000 25.884,54.000 26.091 M141.690 26.927 C 142.001 26.987,142.451 26.984,142.690 26.922 C 142.929 26.859,142.675 26.810,142.125 26.813 C 141.575 26.816,141.379 26.867,141.690 26.927 M22.500 27.860 C 22.500 28.333,22.586 28.774,22.692 28.839 C 22.798 28.905,22.842 28.517,22.791 27.979 C 22.676 26.770,22.500 26.698,22.500 27.860 M81.938 27.426 C 82.247 27.486,82.753 27.486,83.063 27.426 C 83.372 27.367,83.119 27.318,82.500 27.318 C 81.881 27.318,81.628 27.367,81.938 27.426 M37.770 27.798 C 37.759 28.031,37.500 28.397,37.194 28.611 C 36.889 28.825,36.759 29.000,36.906 29.000 C 37.330 29.000,38.064 28.061,37.920 27.702 C 37.833 27.484,37.783 27.516,37.770 27.798 M57.190 27.677 C 57.501 27.737,57.951 27.734,58.190 27.672 C 58.429 27.609,58.175 27.560,57.625 27.563 C 57.075 27.566,56.879 27.617,57.190 27.677 M10.063 27.922 C 10.303 27.985,10.697 27.985,10.938 27.922 C 11.178 27.859,10.981 27.808,10.500 27.808 C 10.019 27.808,9.822 27.859,10.063 27.922 M34.008 27.938 C 33.993 28.548,34.981 29.251,35.813 29.221 L 36.625 29.193 35.685 29.010 C 34.652 28.810,34.691 28.835,34.294 28.125 C 34.141 27.850,34.012 27.766,34.008 27.938 M367.271 29.000 C 367.273 29.462,367.951 30.986,367.980 30.591 C 367.991 30.435,367.836 29.929,367.635 29.466 C 367.434 29.004,367.270 28.794,367.271 29.000 M112.339 31.375 C 112.338 32.612,112.380 33.150,112.433 32.570 C 112.485 31.990,112.486 30.977,112.434 30.320 C 112.382 29.663,112.340 30.137,112.339 31.375 M22.509 30.733 C 22.367 30.999,22.017 31.290,21.731 31.381 C 21.446 31.472,21.267 31.601,21.335 31.668 C 21.541 31.875,22.473 31.268,22.753 30.744 C 22.899 30.472,22.961 30.250,22.893 30.250 C 22.824 30.250,22.651 30.467,22.509 30.733 M368.250 31.206 C 368.250 31.486,369.208 32.336,370.125 32.872 L 370.875 33.309 370.250 32.785 C 369.906 32.497,369.559 32.259,369.478 32.256 C 369.397 32.253,369.202 31.969,369.045 31.625 C 368.777 31.035,368.250 30.758,368.250 31.206 M387.257 31.240 C 387.055 31.368,386.954 31.538,387.034 31.617 C 387.231 31.814,388.000 31.501,388.000 31.223 C 388.000 30.938,387.725 30.945,387.257 31.240 M353.063 31.429 C 353.441 31.486,354.059 31.486,354.438 31.429 C 354.816 31.372,354.506 31.325,353.750 31.325 C 352.994 31.325,352.684 31.372,353.063 31.429 M107.808 32.500 C 107.808 32.981,107.859 33.178,107.922 32.938 C 107.985 32.697,107.985 32.303,107.922 32.063 C 107.859 31.822,107.808 32.019,107.808 32.500 M385.250 32.375 C 384.434 32.842,384.719 32.847,385.784 32.385 C 386.246 32.184,386.456 32.019,386.250 32.019 C 386.044 32.018,385.594 32.178,385.250 32.375 M358.875 32.416 C 359.514 33.021,361.083 34.044,360.704 33.609 C 360.473 33.343,359.910 32.912,359.454 32.652 C 358.998 32.392,358.738 32.286,358.875 32.416 M345.188 33.391 C 344.534 33.731,344.000 34.066,344.000 34.134 C 344.000 34.246,346.475 33.077,346.729 32.845 C 347.039 32.563,346.225 32.851,345.188 33.391 M375.070 34.184 C 375.727 34.236,376.740 34.235,377.320 34.183 C 377.900 34.130,377.363 34.088,376.125 34.089 C 374.887 34.090,374.413 34.132,375.070 34.184 M341.859 35.813 L 341.125 36.625 341.938 35.891 C 342.695 35.206,342.865 35.000,342.672 35.000 C 342.629 35.000,342.263 35.366,341.859 35.813 M361.775 35.714 C 361.946 36.204,362.013 37.322,361.940 38.458 C 361.853 39.820,361.886 40.194,362.054 39.750 C 362.375 38.899,362.192 35.592,361.801 35.201 C 361.548 34.948,361.543 35.049,361.775 35.714 M340.077 37.563 C 339.588 38.101,338.493 39.760,338.798 39.500 C 339.037 39.296,340.754 37.000,340.667 37.000 C 340.623 37.000,340.357 37.253,340.077 37.563 M337.254 46.146 C 337.256 46.409,337.372 46.794,337.511 47.000 C 337.697 47.274,337.720 47.173,337.597 46.625 C 337.392 45.706,337.249 45.506,337.254 46.146 M338.000 48.078 C 338.000 48.121,338.366 48.487,338.813 48.891 L 339.625 49.625 338.891 48.813 C 338.206 48.055,338.000 47.885,338.000 48.078 M354.000 49.000 C 353.244 49.400,352.713 49.732,352.821 49.738 C 353.086 49.754,355.500 48.522,355.500 48.371 C 355.500 48.204,355.535 48.189,354.000 49.000 M225.375 49.180 C 234.928 49.354,243.000 49.358,243.000 49.188 C 243.000 49.084,238.191 49.025,232.313 49.055 C 226.434 49.086,223.313 49.142,225.375 49.180 M220.116 50.563 L 218.875 51.875 220.188 50.634 C 221.407 49.482,221.615 49.250,221.428 49.250 C 221.389 49.250,220.798 49.841,220.116 50.563 M239.494 52.688 L 237.375 54.875 239.563 52.756 C 240.766 51.590,241.750 50.605,241.750 50.568 C 241.750 50.386,241.463 50.656,239.494 52.688 M231.113 60.813 L 230.125 61.875 231.188 60.887 C 232.176 59.968,232.365 59.750,232.176 59.750 C 232.135 59.750,231.657 60.228,231.113 60.813 M89.313 73.172 C 89.553 73.235,89.947 73.235,90.188 73.172 C 90.428 73.109,90.231 73.058,89.750 73.058 C 89.269 73.058,89.072 73.109,89.313 73.172 M95.938 79.683 C 96.522 79.736,97.478 79.736,98.063 79.683 C 98.647 79.630,98.169 79.587,97.000 79.587 C 95.831 79.587,95.353 79.630,95.938 79.683 M59.438 81.393 C 58.468 81.919,58.578 82.100,59.563 81.600 C 60.505 81.120,60.672 80.996,60.354 81.010 C 60.228 81.016,59.816 81.188,59.438 81.393 M70.617 89.563 L 69.125 91.125 70.688 89.633 C 72.139 88.247,72.364 88.000,72.180 88.000 C 72.141 88.000,71.438 88.703,70.617 89.563 M40.109 95.313 L 39.375 96.125 40.188 95.391 C 40.634 94.987,41.000 94.621,41.000 94.578 C 41.000 94.385,40.794 94.555,40.109 95.313 M163.827 129.375 C 163.829 130.200,163.876 130.507,163.931 130.058 C 163.987 129.609,163.986 128.934,163.929 128.558 C 163.872 128.182,163.826 128.550,163.827 129.375 M56.853 139.875 C 56.854 142.350,56.891 143.329,56.936 142.050 C 56.982 140.771,56.982 138.746,56.936 137.550 C 56.890 136.354,56.853 137.400,56.853 139.875 M20.834 139.750 C 20.834 140.781,20.878 141.203,20.932 140.688 C 20.986 140.172,20.986 139.328,20.932 138.813 C 20.878 138.297,20.834 138.719,20.834 139.750 M20.834 144.000 C 20.834 145.031,20.878 145.453,20.932 144.938 C 20.986 144.422,20.986 143.578,20.932 143.063 C 20.878 142.547,20.834 142.969,20.834 144.000 M39.250 186.625 C 40.551 187.931,41.671 189.000,41.740 189.000 C 41.809 189.000,40.801 187.931,39.500 186.625 C 38.199 185.319,37.079 184.250,37.010 184.250 C 36.941 184.250,37.949 185.319,39.250 186.625 M57.750 199.873 C 57.750 200.044,59.281 200.803,59.395 200.688 C 59.449 200.634,59.101 200.403,58.622 200.174 C 58.142 199.945,57.750 199.810,57.750 199.873 " stroke="none" fill="#98948f" fill-rule="evenodd"></path></g></svg>