<?xml version="1.0" encoding="UTF-8"?>
<svg xmlns="http://www.w3.org/2000/svg" xmlns:xlink="http://www.w3.org/1999/xlink" width="137px" height="42px" viewBox="0 0 137 42" version="1.1">
<g id="surface1">
<path style=" stroke:none;fill-rule:nonzero;fill:rgb(0%,0%,0%);fill-opacity:1;" d="M 7.285156 0.0820312 C 6.269531 0.171875 4.632812 0.484375 3.765625 0.757812 C 3.183594 0.941406 1.925781 1.507812 1.402344 1.832031 C 0.632812 2.300781 0.0859375 2.933594 0.0859375 3.351562 C 0.09375 3.972656 1.796875 4.449219 3.683594 4.351562 C 3.988281 4.335938 4.359375 4.308594 4.496094 4.292969 C 4.921875 4.242188 5.753906 4.058594 6.242188 3.90625 C 6.5 3.828125 6.722656 3.773438 6.746094 3.785156 C 6.773438 3.796875 6.671875 3.945312 6.523438 4.121094 C 6.183594 4.515625 6.164062 4.75 6.464844 4.882812 C 6.796875 5.039062 7.382812 5.003906 7.722656 4.808594 C 7.886719 4.714844 7.929688 4.566406 7.792969 4.527344 C 7.75 4.515625 7.707031 4.464844 7.707031 4.414062 C 7.707031 4.226562 8.160156 3.527344 8.492188 3.214844 C 9.101562 2.640625 9.101562 2.632812 8.949219 2.523438 C 8.75 2.382812 8.167969 2.261719 7.808594 2.285156 C 7.355469 2.320312 7.253906 2.378906 7.320312 2.574219 C 7.371094 2.726562 7.347656 2.761719 7.074219 2.921875 C 6.722656 3.132812 6.207031 3.320312 5.609375 3.457031 C 4.074219 3.8125 2.695312 3.839844 1.953125 3.535156 C 1.738281 3.453125 1.746094 3.0625 1.96875 2.738281 C 2.242188 2.332031 3.140625 1.796875 4.195312 1.410156 C 5.28125 1.011719 6.25 0.800781 7.371094 0.707031 C 7.84375 0.667969 7.902344 0.671875 8.246094 0.765625 C 8.648438 0.871094 8.980469 0.890625 9.273438 0.820312 C 9.53125 0.757812 9.589844 0.710938 9.589844 0.542969 C 9.589844 0.378906 9.300781 0.191406 8.894531 0.0976562 C 8.632812 0.0351562 7.894531 0.0273438 7.285156 0.0820312 Z M 7.285156 0.0820312 "/>
<path style=" stroke:none;fill-rule:nonzero;fill:rgb(0%,0%,0%);fill-opacity:1;" d="M 48.496094 1.175781 C 48.027344 1.296875 47.332031 1.632812 47.152344 1.816406 C 47.09375 1.882812 46.898438 1.960938 46.664062 2.015625 C 46.453125 2.0625 45.773438 2.246094 45.148438 2.421875 C 44.148438 2.707031 43.222656 2.941406 43.121094 2.941406 C 43.105469 2.941406 43.222656 2.816406 43.394531 2.664062 C 43.660156 2.425781 43.710938 2.339844 43.710938 2.140625 C 43.703125 1.667969 43.199219 1.371094 42.324219 1.339844 C 41.289062 1.300781 40.089844 1.703125 39.164062 2.394531 C 38.992188 2.523438 38.839844 2.621094 38.8125 2.609375 C 38.789062 2.601562 38.8125 2.464844 38.875 2.3125 C 38.933594 2.160156 38.949219 1.992188 38.925781 1.9375 C 38.839844 1.789062 38.566406 1.6875 38.25 1.6875 C 37.964844 1.6875 37.589844 1.804688 37.589844 1.886719 C 37.589844 1.9375 36.023438 2.621094 35.371094 2.859375 C 34.429688 3.195312 33.625 3.300781 33.367188 3.125 C 33 2.867188 32.871094 2.355469 33.058594 1.84375 C 33.171875 1.527344 33.121094 1.425781 32.828125 1.394531 C 32.359375 1.339844 32.160156 1.460938 31.40625 2.273438 C 30.929688 2.792969 30.601562 3.03125 29.960938 3.335938 C 29.429688 3.585938 28.734375 3.761719 28.523438 3.699219 C 28.308594 3.632812 28.316406 3.390625 28.554688 2.855469 C 28.804688 2.285156 28.828125 1.902344 28.632812 1.773438 C 28.4375 1.644531 27.8125 1.652344 27.527344 1.789062 C 27.058594 2.019531 25.328125 2.121094 24.257812 1.980469 C 23.582031 1.890625 23.324219 1.824219 22.792969 1.605469 C 22.535156 1.496094 22.253906 1.410156 22.152344 1.40625 C 21.097656 1.382812 20.363281 1.609375 19.308594 2.257812 C 18.125 2.984375 17.828125 3.71875 18.5625 4.0625 C 19.128906 4.324219 19.726562 4.375 20.765625 4.253906 C 21.902344 4.117188 22.628906 3.886719 23.179688 3.476562 C 23.667969 3.121094 23.761719 2.992188 23.761719 2.675781 C 23.761719 2.519531 23.769531 2.390625 23.769531 2.390625 C 23.777344 2.390625 23.949219 2.417969 24.15625 2.453125 C 24.984375 2.59375 26.621094 2.511719 27.015625 2.3125 C 27.101562 2.269531 27.203125 2.234375 27.246094 2.234375 C 27.367188 2.234375 27.324219 2.632812 27.132812 3.109375 C 26.9375 3.613281 26.964844 3.828125 27.230469 4.027344 C 27.46875 4.210938 27.84375 4.285156 28.417969 4.265625 C 29.480469 4.230469 30.441406 3.90625 31.363281 3.261719 L 31.894531 2.894531 L 32.007812 3.085938 C 32.28125 3.558594 32.726562 3.773438 33.460938 3.773438 C 34.234375 3.773438 35.421875 3.449219 36.671875 2.90625 L 37.445312 2.566406 L 37.375 3.136719 C 37.316406 3.726562 37.28125 3.875 37.023438 4.914062 L 36.863281 5.535156 L 37.144531 5.648438 C 37.496094 5.792969 37.769531 5.796875 38.113281 5.652344 C 38.367188 5.546875 38.386719 5.519531 38.421875 5.230469 C 38.546875 4.046875 38.617188 3.726562 38.796875 3.507812 C 39.171875 3.042969 40.550781 2.246094 41.433594 1.980469 C 42.324219 1.710938 42.683594 2.164062 42.035156 2.738281 C 41.511719 3.1875 41.210938 3.308594 40.269531 3.453125 C 39.550781 3.5625 39.300781 3.65625 39.300781 3.824219 C 39.300781 3.972656 39.515625 4.0625 39.953125 4.101562 C 40.234375 4.125 40.910156 4.015625 41.1875 3.902344 C 41.253906 3.875 42.179688 3.648438 43.242188 3.402344 C 44.300781 3.160156 45.449219 2.875 45.792969 2.773438 C 46.132812 2.671875 46.425781 2.585938 46.441406 2.585938 C 46.460938 2.585938 46.476562 2.777344 46.46875 3.007812 C 46.460938 3.367188 46.496094 3.460938 46.65625 3.625 C 47.015625 3.992188 47.539062 4.15625 48.480469 4.1875 C 49.371094 4.214844 50.390625 4.054688 51.496094 3.714844 C 52.738281 3.328125 54.457031 2.429688 54.3125 2.242188 C 54.21875 2.132812 53.890625 2.210938 53.191406 2.519531 C 51.605469 3.210938 50.871094 3.429688 49.695312 3.566406 C 48.910156 3.660156 48.488281 3.644531 48.121094 3.5 C 47.726562 3.351562 47.789062 3.28125 48.488281 3.042969 C 49.25 2.789062 50.183594 2.332031 50.425781 2.101562 C 50.636719 1.902344 50.664062 1.539062 50.476562 1.375 C 50.097656 1.039062 49.3125 0.960938 48.496094 1.175781 Z M 49.449219 1.652344 C 49.535156 1.765625 49.421875 1.996094 49.21875 2.144531 C 49.039062 2.277344 47.96875 2.746094 47.832031 2.746094 C 47.710938 2.746094 47.847656 2.453125 48.09375 2.164062 C 48.472656 1.742188 49.292969 1.421875 49.449219 1.652344 Z M 21.644531 2.035156 C 21.773438 2.074219 21.996094 2.121094 22.132812 2.144531 C 22.511719 2.199219 22.707031 2.394531 22.664062 2.671875 C 22.613281 2.957031 22.433594 3.105469 21.78125 3.402344 C 21.199219 3.667969 20.679688 3.800781 20.199219 3.804688 C 19.683594 3.804688 19.566406 3.734375 19.566406 3.421875 C 19.574219 3.203125 19.617188 3.113281 19.839844 2.921875 C 20.085938 2.699219 21.269531 1.960938 21.371094 1.960938 C 21.398438 1.960938 21.527344 1.992188 21.644531 2.035156 Z M 21.644531 2.035156 "/>
<path style=" stroke:none;fill-rule:nonzero;fill:rgb(0%,0%,0%);fill-opacity:1;" d="M 12.289062 1.734375 C 12.011719 1.847656 11.859375 2.175781 11.695312 3 C 11.515625 3.910156 11.601562 4.414062 11.9375 4.515625 C 12.105469 4.570312 12.570312 4.546875 12.742188 4.476562 C 12.84375 4.4375 12.988281 4.285156 13.101562 4.101562 C 13.476562 3.445312 14.375 2.796875 15.214844 2.558594 C 15.789062 2.398438 16.132812 2.351562 16.75 2.351562 C 17.355469 2.351562 17.554688 2.292969 17.554688 2.117188 C 17.554688 1.90625 16.765625 1.734375 16.027344 1.78125 C 15.53125 1.8125 14.71875 2.011719 14.28125 2.210938 C 13.921875 2.375 13.152344 2.886719 13.058594 3.019531 C 12.988281 3.117188 12.816406 3.125 12.878906 3.027344 C 12.988281 2.835938 13.261719 2.230469 13.316406 2.050781 C 13.367188 1.867188 13.347656 1.835938 13.152344 1.746094 C 12.886719 1.625 12.578125 1.621094 12.289062 1.734375 Z M 12.289062 1.734375 "/>
<path style=" stroke:none;fill-rule:nonzero;fill:rgb(0%,0%,0%);fill-opacity:1;" d="M 56.855469 12.371094 L 56.855469 22.820312 L 34.59375 22.820312 L 34.59375 23.839844 L 37.273438 23.839844 C 40.816406 23.839844 41.65625 23.894531 43.15625 24.226562 C 44.097656 24.433594 45.0625 24.882812 45.542969 25.328125 C 46.175781 25.925781 46.410156 26.570312 46.410156 27.75 C 46.410156 28.792969 46.175781 29.289062 45.46875 29.792969 C 44.355469 30.585938 42.617188 31.078125 39.644531 31.445312 C 36.828125 31.796875 34.234375 31.875 31.390625 31.695312 C 28.425781 31.507812 25.257812 30.75 23.488281 29.800781 C 22.640625 29.347656 22.03125 28.9375 21.613281 28.523438 C 20.867188 27.789062 20.078125 26.324219 19.738281 25.015625 C 19.503906 24.136719 19.394531 22.175781 19.503906 21.09375 C 19.882812 17.613281 21.125 15.652344 23.871094 14.203125 C 26.039062 13.058594 30.378906 12.359375 34.371094 12.503906 C 40.039062 12.714844 45.285156 14.03125 49.207031 16.238281 C 51.023438 17.257812 52.324219 18.4375 53.652344 20.257812 L 54.226562 21.054688 L 56.1875 21.054688 L 56.136719 20.515625 C 56.109375 20.21875 56.042969 18.707031 55.988281 17.152344 C 55.9375 15.601562 55.871094 13.792969 55.835938 13.136719 L 55.785156 11.9375 L 54.84375 11.925781 L 53.890625 11.914062 L 53.542969 12.164062 C 53 12.535156 52.121094 13.019531 51.605469 13.242188 C 51.347656 13.347656 50.886719 13.492188 50.5625 13.5625 C 50.011719 13.6875 49.945312 13.691406 49.285156 13.671875 C 48.488281 13.652344 47.703125 13.519531 45.253906 12.984375 C 40.859375 12.03125 37.753906 11.617188 33.992188 11.484375 C 26.117188 11.207031 17.527344 12.859375 12.441406 15.636719 C 9.523438 17.226562 7.84375 19.007812 7.269531 21.113281 C 7.117188 21.683594 7.132812 22.933594 7.3125 23.523438 C 7.507812 24.195312 7.664062 24.515625 8.058594 25.125 C 9.820312 27.828125 14.28125 30.148438 20.171875 31.425781 C 23.042969 32.050781 26.046875 32.453125 29.371094 32.664062 C 30.609375 32.742188 31.132812 32.753906 33.652344 32.757812 C 35.59375 32.757812 36.742188 32.742188 37.203125 32.707031 C 38.695312 32.597656 39.746094 32.488281 41.074219 32.304688 C 42.308594 32.132812 43.007812 32.019531 45.878906 31.539062 C 47.597656 31.25 49.148438 31.144531 50.679688 31.210938 C 52.058594 31.269531 53.070312 31.488281 54.304688 31.988281 L 54.78125 32.191406 L 56.683594 32.191406 L 56.683594 29.453125 C 56.683594 27.191406 56.710938 26.65625 56.8125 26.351562 C 57.4375 24.585938 59.699219 23.839844 64.382812 23.839844 L 65.683594 23.839844 L 65.65625 23.339844 L 65.632812 22.839844 L 64.117188 22.828125 L 62.59375 22.820312 L 62.59375 16.945312 L 63.644531 16.480469 C 64.21875 16.222656 65.09375 15.832031 65.589844 15.613281 L 66.488281 15.214844 L 66.632812 15.304688 C 66.71875 15.351562 67.695312 16.039062 68.816406 16.832031 C 71.007812 18.386719 71.164062 18.496094 74.835938 21.101562 C 76.179688 22.054688 77.34375 22.875 77.429688 22.925781 L 77.585938 23.015625 L 81.050781 23.015625 C 84.632812 23.015625 84.683594 23.011719 84.390625 22.863281 C 84.332031 22.828125 82.011719 21.246094 79.246094 19.347656 C 76.472656 17.453125 73.378906 15.335938 72.371094 14.644531 L 70.53125 13.390625 L 71.933594 12.765625 C 72.703125 12.425781 74.691406 11.539062 76.335938 10.800781 C 77.988281 10.066406 80.179688 9.089844 81.214844 8.628906 C 82.25 8.171875 83.117188 7.78125 83.125 7.757812 C 83.140625 7.738281 81.761719 7.722656 79.527344 7.722656 L 75.890625 7.722656 L 72.34375 9.363281 C 70.390625 10.265625 67.402344 11.648438 65.699219 12.441406 L 62.59375 13.878906 L 62.59375 10.496094 C 62.59375 8.632812 62.566406 5.945312 62.53125 4.515625 L 62.480469 1.921875 L 56.855469 1.921875 Z M 56.855469 12.371094 "/>
<path style=" stroke:none;fill-rule:nonzero;fill:rgb(0%,0%,0%);fill-opacity:1;" d="M 120.132812 4.976562 C 119.5 5.015625 119.105469 5.078125 118.332031 5.257812 C 117.152344 5.527344 116.175781 6.003906 115.757812 6.503906 C 115.523438 6.777344 115.5 7.253906 115.695312 7.429688 C 116.148438 7.816406 117.382812 8.039062 118.855469 7.988281 C 119.773438 7.953125 120.226562 7.898438 121.117188 7.703125 C 122.085938 7.496094 122.761719 7.242188 123.265625 6.894531 C 123.960938 6.414062 124.171875 5.867188 123.8125 5.5 C 123.640625 5.320312 123.085938 5.113281 122.546875 5.027344 C 122.152344 4.964844 120.765625 4.9375 120.132812 4.976562 Z M 120.132812 4.976562 "/>
</g>
</svg>
