<?xml version="1.0" standalone="no"?>
<!DOCTYPE svg PUBLIC "-//W3C//DTD SVG 20010904//EN"
 "http://www.w3.org/TR/2001/REC-SVG-20010904/DTD/svg10.dtd">
<svg version="1.0" xmlns="http://www.w3.org/2000/svg"
 width="1600.000000pt" height="1071.000000pt" viewBox="0 0 1600.000000 1071.000000"
 preserveAspectRatio="xMidYMid meet">

<g transform="translate(0.000000,1071.000000) scale(0.100000,-0.100000)"
fill="#000000" stroke="none">
<path d="M851 10689 c-119 -23 -310 -103 -411 -172 -68 -47 -215 -192 -276
-274 -90 -120 -154 -281 -154 -388 1 -158 200 -280 420 -255 36 4 79 11 95 15
50 13 147 60 204 99 30 20 56 34 59 31 3 -3 -9 -41 -26 -86 -40 -101 -42 -160
-7 -194 39 -40 107 -31 147 19 19 23 24 61 8 71 -5 3 -10 16 -10 29 0 48 53
226 92 306 71 147 71 149 53 176 -23 36 -91 67 -133 61 -53 -9 -65 -24 -57
-74 6 -38 3 -47 -29 -88 -41 -54 -101 -102 -171 -137 -179 -90 -340 -97 -427
-20 -25 21 -24 121 2 204 32 103 137 240 260 338 127 102 240 156 371 180 55
10 62 9 102 -15 47 -27 86 -32 120 -14 30 16 37 28 37 71 0 41 -34 89 -81 113
-31 16 -117 18 -188 4z"/>
<path d="M5664 10410 c-55 -31 -136 -116 -157 -163 -7 -17 -30 -37 -57 -51
-25 -12 -104 -59 -177 -104 -117 -72 -225 -132 -237 -132 -2 0 12 32 32 71 31
60 37 82 37 133 -1 121 -60 196 -162 204 -121 10 -261 -92 -369 -269 -20 -33
-38 -58 -41 -55 -3 2 0 37 7 76 7 39 9 82 6 96 -10 38 -42 64 -79 64 -33 0
-77 -30 -77 -51 0 -13 -183 -188 -259 -248 -110 -86 -204 -113 -234 -68 -43
66 -58 196 -36 327 13 80 7 106 -27 114 -55 14 -78 -17 -166 -224 -56 -132
-94 -193 -169 -271 -62 -64 -143 -108 -168 -92 -25 16 -24 78 4 215 29 145 32
243 9 276 -23 33 -96 31 -129 -4 -55 -59 -257 -85 -382 -49 -79 23 -109 40
-171 96 -30 27 -63 49 -75 50 -123 6 -209 -51 -332 -217 -138 -185 -173 -372
-87 -460 66 -67 136 -80 257 -49 133 35 218 94 282 198 57 91 68 124 68 205 0
39 1 72 1 72 1 0 21 -7 45 -16 97 -36 288 -15 334 36 10 11 22 20 27 20 14 0
9 -101 -13 -223 -23 -129 -20 -183 11 -234 28 -47 72 -66 139 -61 124 9 236
92 344 256 l62 94 13 -49 c32 -121 84 -175 170 -175 90 0 229 82 375 221 l90
86 -8 -145 c-7 -150 -11 -188 -41 -453 l-19 -159 33 -29 c41 -36 73 -37 113
-1 30 27 32 34 36 108 15 302 23 384 44 439 44 119 205 322 308 390 104 69
146 -47 70 -193 -61 -115 -96 -146 -206 -183 -84 -28 -113 -52 -113 -94 0 -38
25 -61 76 -71 33 -6 112 22 144 51 8 7 116 64 240 127 124 62 258 135 298 161
40 26 74 47 76 47 2 0 4 -48 3 -107 -1 -92 3 -116 22 -158 42 -93 103 -135
213 -143 104 -7 223 34 352 121 145 98 346 327 329 375 -11 28 -49 8 -131 -71
-185 -176 -271 -232 -408 -267 -92 -24 -141 -20 -184 17 -46 38 -39 56 43 117
89 65 198 181 226 240 25 51 28 143 6 185 -44 86 -136 106 -231 51z m111 -121
c10 -29 -3 -88 -27 -126 -21 -34 -146 -153 -162 -153 -14 0 2 74 31 148 44
108 140 189 158 131z m-3247 -98 c15 -10 41 -22 57 -28 44 -14 67 -64 62 -134
-6 -73 -27 -111 -103 -187 -68 -68 -129 -101 -185 -102 -60 0 -74 18 -74 97 1
56 6 79 32 128 29 57 167 245 179 245 3 0 18 -8 32 -19z"/>
<path d="M1435 10268 c-32 -29 -50 -113 -69 -323 -21 -232 -11 -361 28 -387
20 -14 74 -8 94 10 12 10 29 49 42 96 44 167 149 333 247 393 67 41 107 53
179 53 71 0 94 15 94 60 0 54 -92 98 -178 86 -58 -8 -153 -59 -204 -110 -42
-42 -132 -172 -143 -206 -8 -25 -28 -27 -21 -2 13 49 45 203 51 249 6 47 4 55
-19 78 -31 31 -67 32 -101 3z"/>
<path d="M6640 7555 l0 -2665 -1300 0 -1300 0 0 -130 0 -130 313 0 c414 0 512
-14 687 -99 110 -53 223 -167 279 -281 74 -152 101 -317 101 -618 0 -266 -27
-392 -110 -521 -130 -202 -333 -327 -680 -421 -329 -90 -632 -110 -964 -64
-346 48 -716 241 -923 483 -99 116 -170 221 -219 326 -87 187 -179 561 -219
895 -27 224 -40 724 -27 1000 44 888 189 1388 510 1758 253 291 760 470 1226
433 662 -54 1275 -390 1733 -953 212 -260 364 -560 519 -1025 l67 -203 115 0
114 0 -6 138 c-3 75 -11 461 -17 857 -6 396 -14 857 -18 1025 l-6 305 -110 3
-111 3 -41 -63 c-63 -95 -166 -219 -226 -275 -30 -27 -84 -64 -122 -82 -64
-32 -72 -33 -149 -28 -93 5 -185 39 -471 175 -513 243 -876 349 -1315 383
-920 71 -1923 -351 -2517 -1059 -341 -406 -537 -860 -604 -1397 -18 -145 -16
-464 5 -615 23 -171 41 -253 87 -408 206 -689 727 -1281 1415 -1607 335 -159
686 -262 1074 -316 145 -20 206 -23 500 -24 227 0 361 4 415 13 174 28 297 56
452 103 144 44 226 72 561 195 201 74 382 101 561 84 161 -15 279 -71 423
-199 l56 -51 111 0 111 0 0 698 c0 577 3 713 15 791 73 450 337 641 884 641
l152 0 -3 127 -3 128 -177 3 -178 2 0 749 0 749 123 119 c67 65 169 165 227
221 l105 101 17 -22 c10 -12 124 -188 255 -390 256 -396 274 -424 703 -1089
157 -243 293 -452 303 -465 l18 -23 405 0 c418 0 424 1 390 39 -7 9 -278 412
-601 896 -324 484 -685 1024 -803 1200 l-215 320 164 159 c90 87 322 313 514
501 193 188 449 437 570 554 121 117 222 216 223 222 2 5 -159 9 -420 9 l-425
0 -414 -418 c-228 -230 -577 -583 -776 -785 l-363 -367 0 863 c0 475 -3 1161
-7 1525 l-6 662 -329 0 -328 0 0 -2665z"/>
<path d="M14030 9441 c-74 -10 -120 -26 -210 -72 -138 -69 -252 -190 -301
-318 -27 -70 -30 -191 -7 -236 53 -99 197 -155 369 -142 107 9 160 23 264 72
113 53 192 118 251 207 81 122 106 262 64 355 -20 46 -85 99 -148 121 -46 16
-208 23 -282 13z"/>
</g>
</svg>
